<svg width="40" height="40" viewBox="0 0 40 40" fill="none" xmlns="http://www.w3.org/2000/svg">
<circle cx="20" cy="20" r="20" fill="#00060C" fill-opacity="0.7"/>
<path d="M28 20.75C28.4142 20.75 28.75 20.4142 28.75 20C28.75 19.5858 28.4142 19.25 28 19.25V20.75ZM12 19.25C11.5858 19.25 11.25 19.5858 11.25 20C11.25 20.4142 11.5858 20.75 12 20.75V19.25ZM15.472 25.5327C15.7662 25.8243 16.2411 25.8222 16.5327 25.528C16.8243 25.2338 16.8222 24.7589 16.528 24.4673L15.472 25.5327ZM14.237 23.2527L14.765 22.72L14.765 22.72L14.237 23.2527ZM14.237 16.7473L13.7091 16.2146L13.7091 16.2146L14.237 16.7473ZM16.528 15.5327C16.8222 15.2411 16.8243 14.7662 16.5327 14.472C16.2411 14.1778 15.7662 14.1757 15.472 14.4673L16.528 15.5327ZM12.0199 20.3133L11.2759 20.4082L11.2759 20.4082L12.0199 20.3133ZM12.0199 19.6867L11.2759 19.5918L11.2759 19.5918L12.0199 19.6867ZM28 19.25H12V20.75H28V19.25ZM16.528 24.4673L14.765 22.72L13.7091 23.7854L15.472 25.5327L16.528 24.4673ZM14.765 17.28L16.528 15.5327L15.472 14.4673L13.7091 16.2146L14.765 17.28ZM14.765 22.72C14.0495 22.0109 13.5587 21.5228 13.2266 21.1093C12.904 20.7076 12.7933 20.4496 12.7639 20.2185L11.2759 20.4082C11.3547 21.0263 11.6496 21.5412 12.0571 22.0485C12.455 22.544 13.0186 23.1011 13.7091 23.7854L14.765 22.72ZM13.7091 16.2146C13.0186 16.8989 12.455 17.456 12.0571 17.9515C11.6496 18.4588 11.3547 18.9737 11.2759 19.5918L12.7639 19.7815C12.7933 19.5504 12.904 19.2924 13.2266 18.8907C13.5587 18.4772 14.0495 17.9891 14.765 17.28L13.7091 16.2146ZM12.7639 20.2185C12.7454 20.0734 12.7454 19.9266 12.7639 19.7815L11.2759 19.5918C11.2414 19.8629 11.2414 20.1371 11.2759 20.4082L12.7639 20.2185Z" fill="white"/>
</svg>
