<svg width="24" height="24" viewBox="0 0 24 24" fill="none" xmlns="http://www.w3.org/2000/svg">
<path d="M5.75487 20.1406L6.13693 19.6147L5.75487 20.1406ZM4.75933 19.145L5.28519 18.763L4.75933 19.145ZM19.2405 19.145L18.7146 18.763L19.2405 19.145ZM18.2449 20.1406L18.627 20.6664L18.2449 20.1406ZM18.2449 5.65942L18.627 5.13356L18.2449 5.65942ZM19.2405 6.65497L18.7146 7.03703L19.2405 6.65497ZM5.75487 5.65942L6.13693 6.18528L5.75487 5.65942ZM4.75933 6.65497L5.28519 7.03703H5.28519L4.75933 6.65497ZM18.4959 15.6554L18.3943 15.0134H18.3943L18.4959 15.6554ZM14.7553 19.396L14.1133 19.2944L14.7553 19.396ZM9.2999 13.15C8.94092 13.15 8.6499 13.441 8.6499 13.8C8.6499 14.159 8.94092 14.45 9.2999 14.45V13.15ZM14.6999 14.45C15.0589 14.45 15.3499 14.159 15.3499 13.8C15.3499 13.441 15.0589 13.15 14.6999 13.15V14.45ZM14.0499 5.7C14.0499 6.05898 14.3409 6.35 14.6999 6.35C15.0589 6.35 15.3499 6.05898 15.3499 5.7H14.0499ZM15.3499 3C15.3499 2.64101 15.0589 2.35 14.6999 2.35C14.3409 2.35 14.0499 2.64101 14.0499 3H15.3499ZM8.6499 5.7C8.6499 6.05898 8.94092 6.35 9.2999 6.35C9.65889 6.35 9.9499 6.05898 9.9499 5.7H8.6499ZM9.9499 3C9.9499 2.64101 9.65889 2.35 9.2999 2.35C8.94092 2.35 8.6499 2.64101 8.6499 3H9.9499ZM20.0739 15.6L20.7235 15.6223L20.0739 15.6ZM3.92594 10.2L3.27632 10.1777L3.92594 10.2ZM20.0739 10.2L20.7235 10.1777L20.0739 10.2ZM11.9999 20.35C10.298 20.35 9.07386 20.3491 8.12545 20.2464C7.1892 20.1449 6.5991 19.9505 6.13693 19.6147L5.37281 20.6664C6.09353 21.1901 6.93857 21.4254 7.98542 21.5388C9.02011 21.6509 10.327 21.65 11.9999 21.65V20.35ZM3.2499 12.9C3.2499 14.5729 3.24901 15.8798 3.36111 16.9145C3.47453 17.9613 3.70983 18.8064 4.23346 19.5271L5.28519 18.763C4.9494 18.3008 4.75498 17.7107 4.65355 16.7745C4.55079 15.826 4.5499 14.6019 4.5499 12.9H3.2499ZM6.13693 19.6147C5.81008 19.3772 5.52265 19.0898 5.28519 18.763L4.23346 19.5271C4.55111 19.9643 4.9356 20.3488 5.37281 20.6664L6.13693 19.6147ZM18.7146 18.763C18.4772 19.0898 18.1897 19.3772 17.8629 19.6147L18.627 20.6664C19.0642 20.3488 19.4487 19.9643 19.7663 19.5271L18.7146 18.763ZM17.8629 6.18528C18.1897 6.42275 18.4772 6.71018 18.7146 7.03703L19.7663 6.27291C19.4487 5.8357 19.0642 5.45121 18.627 5.13356L17.8629 6.18528ZM5.37281 5.13356C4.9356 5.45121 4.55111 5.8357 4.23346 6.27291L5.28519 7.03703C5.52265 6.71018 5.81008 6.42275 6.13693 6.18528L5.37281 5.13356ZM18.3943 15.0134C16.1906 15.3624 14.4623 17.0907 14.1133 19.2944L15.3973 19.4977C15.6582 17.8503 16.9502 16.5583 18.5976 16.2974L18.3943 15.0134ZM9.2999 14.45H14.6999V13.15H9.2999V14.45ZM20.0739 14.95C19.2789 14.95 18.8035 14.9486 18.3943 15.0134L18.5976 16.2974C18.8807 16.2526 19.2313 16.25 20.0739 16.25L20.0739 14.95ZM19.4499 12.9C19.4499 13.9556 19.4498 14.8313 19.4242 15.5777L20.7235 15.6223C20.75 14.8488 20.7499 13.9484 20.7499 12.9H19.4499ZM19.4242 15.5777C19.367 17.2475 19.1808 18.1213 18.7146 18.763L19.7663 19.5271C20.4832 18.5404 20.6657 17.308 20.7235 15.6223L19.4242 15.5777ZM15.3499 20.974C15.3499 20.1314 15.3525 19.7808 15.3973 19.4977L14.1133 19.2944C14.0485 19.7036 14.0499 20.179 14.0499 20.974L15.3499 20.974ZM11.9999 21.65C13.0483 21.65 13.9487 21.6501 14.7222 21.6236L14.6776 20.3243C13.9312 20.3499 13.0555 20.35 11.9999 20.35V21.65ZM14.7222 21.6236C16.4079 21.5658 17.6403 21.3833 18.627 20.6664L17.8629 19.6147C17.2212 20.0809 16.3474 20.2671 14.6776 20.3243L14.7222 21.6236ZM4.5499 12.9C4.5499 11.8444 4.54998 10.9687 4.57556 10.2223L3.27632 10.1777C3.24982 10.9512 3.2499 11.8516 3.2499 12.9H4.5499ZM4.57556 10.2223C4.63276 8.55251 4.81902 7.67866 5.28519 7.03703L4.23346 6.27291C3.51661 7.25956 3.33408 8.49195 3.27632 10.1777L4.57556 10.2223ZM3.92594 10.85H20.0739V9.55H3.92594V10.85ZM20.7499 12.9C20.7499 11.8516 20.75 10.9512 20.7235 10.1777L19.4242 10.2223C19.4498 10.9687 19.4499 11.8444 19.4499 12.9H20.7499ZM20.7235 10.1777C20.6657 8.49195 20.4832 7.25957 19.7663 6.27291L18.7146 7.03703C19.1808 7.67866 19.367 8.55251 19.4242 10.2223L20.7235 10.1777ZM15.3499 5.7V4.82604H14.0499V5.7H15.3499ZM15.3499 4.82604V3H14.0499V4.82604H15.3499ZM11.9999 5.45C13.0555 5.45 13.9312 5.45008 14.6776 5.47565L14.7222 4.17642C13.9487 4.14992 13.0483 4.15 11.9999 4.15V5.45ZM14.6776 5.47565C16.3474 5.53286 17.2212 5.71911 17.8629 6.18528L18.627 5.13356C17.6403 4.41671 16.408 4.23417 14.7222 4.17642L14.6776 5.47565ZM9.9499 5.7V4.82604H8.6499V5.7H9.9499ZM9.9499 4.82604V3H8.6499V4.82604H9.9499ZM11.9999 4.15C10.9515 4.15 10.0511 4.14992 9.27765 4.17642L9.32216 5.47565C10.0686 5.45008 10.9443 5.45 11.9999 5.45V4.15ZM9.27765 4.17642C7.59185 4.23417 6.35947 4.41671 5.37281 5.13356L6.13693 6.18528C6.77856 5.71911 7.65242 5.53286 9.32216 5.47565L9.27765 4.17642Z" fill="#2D264B"/>
</svg>
