<svg width="24" height="24" viewBox="0 0 24 24" fill="none" xmlns="http://www.w3.org/2000/svg">
<path d="M10.3754 17.3352L9.81246 17.0102L9.81246 17.0102L10.3754 17.3352ZM8.87929 19.9264L9.44221 20.2514L8.87929 19.9264ZM3.52552 16.8354L2.9626 16.5104H2.9626L3.52552 16.8354ZM5.0216 14.2442L5.58452 14.5692L5.0216 14.2442ZM7.27518 19.7891L6.66013 19.9993H6.66013L7.27518 19.7891ZM7.0675 19.1815L7.68255 18.9713L7.68255 18.9713L7.0675 19.1815ZM5.07653 18.032L4.95109 17.3943H4.95109L5.07653 18.032ZM4.44654 18.156L4.57198 18.7937H4.57198L4.44654 18.156ZM6.43124 17.9846L6.75624 17.4217H6.75624L6.43124 17.9846ZM3.05476 18.1649L2.52163 18.5368L3.05476 18.1649ZM10.8074 16.5694L10.2881 16.1785L10.2569 16.2199L10.2326 16.2658L10.8074 16.5694ZM13.7617 17.3352L14.3246 17.0102V17.0102L13.7617 17.3352ZM15.2578 19.9264L15.8207 19.6014L15.2578 19.9264ZM20.6116 16.8354L21.1745 16.5104L20.6116 16.8354ZM19.1155 14.2442L18.5526 14.5692H18.5526L19.1155 14.2442ZM16.8619 19.7891L17.477 19.9993L16.8619 19.7891ZM17.0696 19.1815L16.4545 18.9713V18.9713L17.0696 19.1815ZM19.0606 18.032L19.186 17.3943L19.0606 18.032ZM19.6906 18.156L19.5651 18.7937H19.5651L19.6906 18.156ZM21.0823 18.1649L21.6155 18.5368V18.5368L21.0823 18.1649ZM13.326 16.5624H12.676V16.7232L12.751 16.8654L13.326 16.5624ZM6.07814 12.835L5.49572 13.1236L6.07814 12.835ZM10.8608 16.4984L10.9866 15.8607L10.8608 16.4984ZM13.326 16.5326L13.2182 15.8916L13.326 16.5326ZM18.2449 12.936L17.6674 12.6377L18.2449 12.936ZM5.78345 13.0492L6.2719 13.478L5.78345 13.0492ZM6.02338 9.8137C6.02338 6.40958 8.78296 3.65 12.1871 3.65V2.35C8.06499 2.35 4.72338 5.69161 4.72338 9.8137H6.02338ZM12.1871 3.65C15.5912 3.65 18.3508 6.40958 18.3508 9.8137H19.6508C19.6508 5.69161 16.3092 2.35 12.1871 2.35V3.65ZM9.81246 17.0102L8.31638 19.6014L9.44221 20.2514L10.9383 17.6602L9.81246 17.0102ZM4.08844 17.1604L5.58452 14.5692L4.45868 13.9192L2.9626 16.5104L4.08844 17.1604ZM7.89024 19.5788L7.68255 18.9713L6.45244 19.3918L6.66013 19.9993L7.89024 19.5788ZM4.95109 17.3943L4.32109 17.5182L4.57198 18.7937L5.20198 18.6698L4.95109 17.3943ZM7.68255 18.9713C7.57026 18.6428 7.46748 18.3384 7.35102 18.1003C7.22668 17.8461 7.05272 17.5928 6.75624 17.4217L6.10624 18.5475C6.10673 18.5478 6.10659 18.5477 6.10681 18.5479C6.10716 18.5482 6.1101 18.5507 6.1156 18.5574C6.12768 18.572 6.15041 18.6044 6.18325 18.6715C6.2553 18.8188 6.32918 19.0312 6.45244 19.3918L7.68255 18.9713ZM5.20198 18.6698C5.57588 18.5963 5.79673 18.5541 5.96033 18.5428C6.03489 18.5377 6.07428 18.5412 6.093 18.5443C6.10153 18.5458 6.10519 18.547 6.10563 18.5472C6.1059 18.5473 6.10576 18.5472 6.10624 18.5475L6.75624 17.4217C6.45976 17.2505 6.15346 17.2265 5.87114 17.2459C5.60674 17.2641 5.29171 17.3273 4.95109 17.3943L5.20198 18.6698ZM2.9626 16.5104C2.76238 16.8572 2.57456 17.1793 2.46791 17.4445C2.36737 17.6944 2.23908 18.1317 2.52163 18.5368L3.5879 17.7931C3.70805 17.9653 3.60409 18.1034 3.674 17.9296C3.7378 17.771 3.86656 17.5447 4.08844 17.1604L2.9626 16.5104ZM4.3211 17.5182C3.88948 17.6031 3.63841 17.6507 3.47193 17.659C3.29115 17.668 3.46415 17.6157 3.5879 17.7931L2.52163 18.5368C2.80778 18.947 3.26687 18.9708 3.53648 18.9574C3.8204 18.9433 4.18402 18.87 4.57198 18.7937L4.3211 17.5182ZM8.31638 19.6014C8.0945 19.9857 7.96296 20.2104 7.85749 20.3449C7.74192 20.4924 7.8095 20.3333 8.01876 20.3512L7.90784 21.6465C8.39995 21.6886 8.71447 21.3589 8.88067 21.1469C9.05696 20.9219 9.24199 20.5982 9.44221 20.2514L8.31638 19.6014ZM6.66013 19.9993C6.78802 20.3735 6.9064 20.725 7.03614 20.9779C7.15934 21.2181 7.40948 21.6038 7.90784 21.6465L8.01876 20.3512C8.23429 20.3697 8.27546 20.5457 8.19286 20.3846C8.11679 20.2363 8.03253 19.9951 7.89024 19.5788L6.66013 19.9993ZM5.58452 14.5692C5.94865 13.9385 6.11494 13.6568 6.2719 13.478L5.29499 12.6203C5.03189 12.92 4.79133 13.343 4.45868 13.9192L5.58452 14.5692ZM10.9383 17.6602C11.1172 17.3503 11.2662 17.0924 11.3821 16.873L10.2326 16.2658C10.1307 16.4587 9.99586 16.6925 9.81246 17.0102L10.9383 17.6602ZM13.1988 17.6602L14.6949 20.2514L15.8207 19.6014L14.3246 17.0102L13.1988 17.6602ZM21.1745 16.5104L19.6784 13.9192L18.5526 14.5692L20.0487 17.1604L21.1745 16.5104ZM17.477 19.9993L17.6847 19.3918L16.4545 18.9713L16.2469 19.5788L17.477 19.9993ZM18.9351 18.6698L19.5651 18.7937L19.816 17.5182L19.186 17.3943L18.9351 18.6698ZM17.6847 19.3918C17.8079 19.0312 17.8818 18.8188 17.9539 18.6715C17.9867 18.6044 18.0094 18.572 18.0215 18.5574C18.027 18.5507 18.0299 18.5482 18.0303 18.5479C18.0305 18.5477 18.0304 18.5478 18.0309 18.5475L17.3809 17.4217C17.0844 17.5928 16.9104 17.8461 16.7861 18.1003C16.6696 18.3384 16.5668 18.6428 16.4545 18.9713L17.6847 19.3918ZM19.186 17.3943C18.8454 17.3273 18.5304 17.2641 18.266 17.2459C17.9836 17.2265 17.6773 17.2505 17.3809 17.4217L18.0309 18.5475C18.0313 18.5472 18.0312 18.5473 18.0315 18.5472C18.0319 18.547 18.0356 18.5458 18.0441 18.5443C18.0628 18.5412 18.1022 18.5377 18.1768 18.5428C18.3404 18.5541 18.5612 18.5963 18.9351 18.6698L19.186 17.3943ZM20.0487 17.1604C20.2705 17.5447 20.3993 17.771 20.4631 17.9296C20.533 18.1034 20.4291 17.9653 20.5492 17.7931L21.6155 18.5368C21.898 18.1317 21.7697 17.6944 21.6692 17.4445C21.5625 17.1793 21.3747 16.8572 21.1745 16.5104L20.0487 17.1604ZM19.5651 18.7937C19.9531 18.87 20.3167 18.9433 20.6006 18.9574C20.8702 18.9708 21.3293 18.947 21.6155 18.5368L20.5492 17.7931C20.673 17.6157 20.846 17.668 20.6652 17.659C20.4987 17.6507 20.2476 17.6031 19.816 17.5182L19.5651 18.7937ZM14.6949 20.2514C14.8951 20.5982 15.0801 20.9219 15.2564 21.1469C15.4226 21.3589 15.7372 21.6886 16.2293 21.6465L16.1183 20.3512C16.3276 20.3333 16.3952 20.4924 16.2796 20.3449C16.1741 20.2104 16.0426 19.9857 15.8207 19.6014L14.6949 20.2514ZM16.2469 19.5788C16.1046 19.9951 16.0203 20.2363 15.9442 20.3846C15.8616 20.5457 15.9028 20.3697 16.1183 20.3512L16.2293 21.6465C16.7276 21.6038 16.9778 21.2181 17.101 20.9779C17.2307 20.725 17.3491 20.3735 17.477 19.9993L16.2469 19.5788ZM14.3246 17.0102C14.1391 16.6888 14.0033 16.4533 13.9011 16.2594L12.751 16.8654C12.8676 17.0866 13.018 17.3469 13.1988 17.6602L14.3246 17.0102ZM6.66056 12.5464C6.25286 11.7236 6.02338 10.7964 6.02338 9.8137H4.72338C4.72338 11.001 5.0011 12.1254 5.49572 13.1236L6.66056 12.5464ZM12.1871 15.9774C11.7757 15.9774 11.3744 15.9372 10.9866 15.8607L10.735 17.1361C11.2052 17.2289 11.6908 17.2774 12.1871 17.2774V15.9774ZM10.9866 15.8607C9.08646 15.4858 7.49772 14.2358 6.66056 12.5464L5.49572 13.1236C6.50837 15.1672 8.42997 16.6814 10.735 17.1361L10.9866 15.8607ZM11.3267 16.9604L11.3801 16.8893L10.3415 16.1075L10.2881 16.1785L11.3267 16.9604ZM13.2182 15.8916C12.8833 15.948 12.5389 15.9774 12.1871 15.9774V17.2774C12.6115 17.2774 13.028 17.2419 13.4339 17.1736L13.2182 15.8916ZM13.976 16.5624V16.5326H12.676V16.5624H13.976ZM18.3508 9.8137C18.3508 10.8328 18.1039 11.7924 17.6674 12.6377L18.8224 13.2342C19.352 12.2088 19.6508 11.0452 19.6508 9.8137H18.3508ZM17.6674 12.6377C16.7932 14.3304 15.1584 15.5651 13.2182 15.8916L13.4339 17.1736C15.7877 16.7775 17.7652 15.2814 18.8224 13.2342L17.6674 12.6377ZM19.6784 13.9192C19.2941 13.2535 19.0314 12.7847 18.6912 12.4634L17.7986 13.4085C17.9657 13.5663 18.1213 13.8221 18.5526 14.5692L19.6784 13.9192ZM6.2719 13.478C6.2759 13.4734 6.29804 13.4515 6.36699 13.4173L5.7893 12.2527C5.63852 12.3275 5.45281 12.4405 5.29499 12.6203L6.2719 13.478Z" fill="#B3531B"/>
<path d="M16.4468 9.81325C16.4468 10.5166 16.2763 11.1801 15.9744 11.7647C15.3708 12.9334 14.242 13.7868 12.9001 14.0126C12.6686 14.0515 12.4308 14.0718 12.1882 14.0718C11.9046 14.0718 11.6275 14.0441 11.3593 13.9912C10.0452 13.7319 8.94823 12.8681 8.37016 11.7015C8.08819 11.1325 7.92969 10.4914 7.92969 9.81325C7.92969 7.46131 9.83631 5.55469 12.1882 5.55469C14.5402 5.55469 16.4468 7.46131 16.4468 9.81325Z" fill="#B3531B"/>
</svg>
