<svg width="32" height="32" viewBox="0 0 32 32" fill="none" xmlns="http://www.w3.org/2000/svg">
<rect x="2.28906" y="2.28564" width="27.4286" height="27.4286" rx="13.7143" fill="#43A8E1"/>
<g clip-path="url(#clip0_3215_34882)">
<path d="M17.8363 22.8509C16.3788 22.8251 15.2885 22.3595 14.3009 21.6719C11.7562 19.8985 10.0506 17.5237 9.31678 14.4952C9.07806 13.5107 9.06043 12.5154 9.39804 11.5347C9.72241 10.591 10.4833 10.072 11.3008 9.64739C11.8129 9.38066 12.4214 9.59329 12.781 10.0632C13.2119 10.6269 13.6334 11.1971 14.0458 11.7737C14.4413 12.3248 14.3469 12.9558 13.8115 13.3823C13.5507 13.5906 13.2862 13.7969 13.0078 13.98C12.0787 14.5896 11.8249 15.4678 11.9824 16.5102C12.0943 17.205 12.4232 17.8468 12.922 18.3439C13.4208 18.841 14.0641 19.168 14.7601 19.2782C15.3861 19.3701 15.9354 19.1939 16.4336 18.824C16.7271 18.6063 17.0175 18.3836 17.3154 18.1729C17.8968 17.7577 18.5707 17.8502 19.0047 18.4151C19.4305 18.9695 19.8477 19.5301 20.2562 20.0967C20.6121 20.588 20.6115 21.2372 20.1989 21.6531C19.4897 22.3595 18.6954 22.9201 17.8363 22.8509Z" fill="white"/>
<path d="M22.3288 15.5716C22.3338 16.5782 22.3357 16.5644 21.4105 16.4599C21.1188 16.4266 21.0703 16.3461 21.0993 16.0661C21.3632 13.4868 19.4403 10.9119 16.8534 10.3621C16.3659 10.2589 16.3653 10.2589 16.4257 9.78081C16.4371 9.6877 16.4465 9.59208 16.4641 9.50275C16.5271 9.16556 16.6166 9.10453 16.951 9.16178C19.6594 9.6248 21.9591 12.0638 22.2727 14.801C22.3075 15.0565 22.3262 15.3138 22.3288 15.5716Z" fill="white"/>
<path d="M18.8848 15.6502C18.8709 14.1511 17.8436 12.8765 16.3489 12.5318C16.126 12.4802 16.0157 12.4267 16.097 12.1776C16.1423 12.0411 16.1436 11.8907 16.1644 11.7461C16.223 11.3504 16.342 11.2579 16.7312 11.3686C18.459 11.8719 19.5549 12.9898 19.9921 14.7368C20.0765 15.0817 20.1094 15.4372 20.0897 15.7918C20.0702 16.1793 19.9555 16.2705 19.5776 16.2139C19.5146 16.2045 19.4516 16.1931 19.3886 16.1868C18.8892 16.1327 18.8892 16.1334 18.8848 15.6502Z" fill="white"/>
</g>
<defs>
<clipPath id="clip0_3215_34882">
<rect width="13.1868" height="13.7143" fill="white" transform="translate(9.14062 9.14282)"/>
</clipPath>
</defs>
</svg>
