<svg width="16" height="16" viewBox="0 0 16 16" fill="none" xmlns="http://www.w3.org/2000/svg">
<path d="M3.37405 13.3634L3.75611 12.8375L3.37405 13.3634ZM2.63661 12.626L3.16247 12.2439L2.63661 12.626ZM13.3634 12.626L12.8375 12.2439L13.3634 12.626ZM12.626 13.3634L12.2439 12.8375L12.626 13.3634ZM12.626 2.63661L12.2439 3.16247L12.626 2.63661ZM13.3634 3.37405L12.8375 3.75611L13.3634 3.37405ZM3.37405 2.63661L3.75611 3.16247L3.37405 2.63661ZM2.63661 3.37405L3.16247 3.75611L2.63661 3.37405ZM8.65 5.33333C8.65 4.97435 8.35899 4.68333 8 4.68333C7.64102 4.68333 7.35 4.97435 7.35 5.33333H8.65ZM11.1283 8.9909C11.381 8.73593 11.3792 8.32437 11.1242 8.07167C10.8693 7.81896 10.4577 7.8208 10.205 8.07577L11.1283 8.9909ZM9.73477 9.47358L9.2731 9.01602L9.73477 9.47358ZM6.26523 9.47358L5.80357 9.93115L5.80357 9.93115L6.26523 9.47358ZM5.795 8.07577C5.54229 7.8208 5.13074 7.81896 4.87577 8.07167C4.6208 8.32437 4.61896 8.73593 4.87167 8.9909L5.795 8.07577ZM8.16711 10.6561L8.24929 11.3008H8.2493L8.16711 10.6561ZM7.83289 10.6561L7.7507 11.3008H7.75071L7.83289 10.6561ZM8 13.35C6.73561 13.35 5.83953 13.3491 5.14819 13.2742C4.46901 13.2006 4.06495 13.0619 3.75611 12.8375L2.99199 13.8893C3.55937 14.3015 4.21837 14.4811 5.00816 14.5666C5.78578 14.6509 6.76457 14.65 8 14.65V13.35ZM1.35 8C1.35 9.23543 1.34911 10.2142 1.43336 10.9918C1.51893 11.7816 1.69852 12.4406 2.11075 13.008L3.16247 12.2439C2.93809 11.9351 2.79938 11.531 2.72579 10.8518C2.65089 10.1605 2.65 9.26439 2.65 8H1.35ZM3.75611 12.8375C3.52831 12.672 3.32798 12.4717 3.16247 12.2439L2.11075 13.008C2.35644 13.3462 2.65382 13.6436 2.99199 13.8893L3.75611 12.8375ZM13.35 8C13.35 9.26439 13.3491 10.1605 13.2742 10.8518C13.2006 11.531 13.0619 11.9351 12.8375 12.2439L13.8893 13.008C14.3015 12.4406 14.4811 11.7816 14.5666 10.9918C14.6509 10.2142 14.65 9.23543 14.65 8H13.35ZM8 14.65C9.23543 14.65 10.2142 14.6509 10.9918 14.5666C11.7816 14.4811 12.4406 14.3015 13.008 13.8893L12.2439 12.8375C11.9351 13.0619 11.531 13.2006 10.8518 13.2742C10.1605 13.3491 9.26439 13.35 8 13.35V14.65ZM12.8375 12.2439C12.672 12.4717 12.4717 12.672 12.2439 12.8375L13.008 13.8893C13.3462 13.6436 13.6436 13.3462 13.8893 13.008L12.8375 12.2439ZM8 2.65C9.26439 2.65 10.1605 2.65089 10.8518 2.72579C11.531 2.79938 11.9351 2.93809 12.2439 3.16247L13.008 2.11075C12.4406 1.69852 11.7816 1.51893 10.9918 1.43336C10.2142 1.34911 9.23543 1.35 8 1.35V2.65ZM14.65 8C14.65 6.76457 14.6509 5.78578 14.5666 5.00816C14.4811 4.21837 14.3015 3.55937 13.8893 2.99199L12.8375 3.75611C13.0619 4.06495 13.2006 4.46901 13.2742 5.14819C13.3491 5.83953 13.35 6.73561 13.35 8H14.65ZM12.2439 3.16247C12.4717 3.32798 12.672 3.52831 12.8375 3.75611L13.8893 2.99199C13.6436 2.65382 13.3462 2.35644 13.008 2.11075L12.2439 3.16247ZM8 1.35C6.76457 1.35 5.78578 1.34911 5.00816 1.43336C4.21837 1.51893 3.55937 1.69852 2.99199 2.11075L3.75611 3.16247C4.06495 2.93809 4.46901 2.79938 5.14819 2.72579C5.83953 2.65089 6.73561 2.65 8 2.65V1.35ZM2.65 8C2.65 6.73561 2.65089 5.83953 2.72579 5.14819C2.79938 4.46901 2.93809 4.06495 3.16247 3.75611L2.11075 2.99199C1.69852 3.55937 1.51893 4.21837 1.43336 5.00816C1.34911 5.78578 1.35 6.76457 1.35 8H2.65ZM2.99199 2.11075C2.65382 2.35644 2.35644 2.65382 2.11075 2.99199L3.16247 3.75611C3.32798 3.52831 3.52831 3.32798 3.75611 3.16247L2.99199 2.11075ZM10.205 8.07577L9.2731 9.01602L10.1964 9.93115L11.1283 8.9909L10.205 8.07577ZM6.7269 9.01602L5.795 8.07577L4.87167 8.9909L5.80357 9.93115L6.7269 9.01602ZM9.2731 9.01602C8.89076 9.40179 8.64197 9.65141 8.43508 9.81756C8.23845 9.97548 8.14366 10.0038 8.08493 10.0113L8.2493 11.3008C8.64346 11.2506 8.96092 11.0626 9.2491 10.8312C9.52702 10.608 9.83561 10.2952 10.1964 9.93115L9.2731 9.01602ZM5.80357 9.93115C6.16439 10.2952 6.47298 10.608 6.7509 10.8312C7.03908 11.0626 7.35654 11.2506 7.7507 11.3008L7.91507 10.0113C7.85634 10.0038 7.76155 9.97548 7.56492 9.81756C7.35803 9.65141 7.10924 9.40179 6.7269 9.01602L5.80357 9.93115ZM8.08493 10.0113C8.05673 10.0149 8.02836 10.0167 8 10.0167V11.3167C8.08327 11.3167 8.16653 11.3114 8.24929 11.3008L8.08493 10.0113ZM8 10.0167C7.97164 10.0167 7.94327 10.0149 7.91507 10.0113L7.75071 11.3008C7.83347 11.3114 7.91673 11.3167 8 11.3167V10.0167ZM7.35 5.33333V10.6667H8.65V5.33333H7.35Z" fill="#00060C"/>
</svg>
