<svg width="24" height="24" viewBox="0 0 24 24" fill="none" xmlns="http://www.w3.org/2000/svg">
<path d="M12 18.375C12.4142 18.375 12.75 18.0392 12.75 17.625C12.75 17.2108 12.4142 16.875 12 16.875V18.375ZM3 16.875C2.58579 16.875 2.25 17.2108 2.25 17.625C2.25 18.0392 2.58579 18.375 3 18.375L3 16.875ZM12 5.625C11.5858 5.625 11.25 5.96079 11.25 6.375C11.25 6.78921 11.5858 7.125 12 7.125V5.625ZM21 7.125C21.4142 7.125 21.75 6.78921 21.75 6.375C21.75 5.96079 21.4142 5.625 21 5.625V7.125ZM12 16.875L3 16.875L3 18.375L12 18.375V16.875ZM12 7.125L21 7.125V5.625L12 5.625V7.125ZM2.25 6.375C2.25 8.03185 3.59315 9.375 5.25 9.375V7.875C4.42157 7.875 3.75 7.20343 3.75 6.375H2.25ZM5.25 9.375C6.90685 9.375 8.25 8.03185 8.25 6.375H6.75C6.75 7.20343 6.07843 7.875 5.25 7.875V9.375ZM8.25 6.375C8.25 4.71815 6.90685 3.375 5.25 3.375V4.875C6.07843 4.875 6.75 5.54657 6.75 6.375H8.25ZM5.25 3.375C3.59315 3.375 2.25 4.71815 2.25 6.375H3.75C3.75 5.54657 4.42157 4.875 5.25 4.875V3.375ZM21.75 17.625C21.75 15.9681 20.4069 14.625 18.75 14.625V16.125C19.5784 16.125 20.25 16.7966 20.25 17.625H21.75ZM18.75 14.625C17.0931 14.625 15.75 15.9681 15.75 17.625H17.25C17.25 16.7966 17.9216 16.125 18.75 16.125V14.625ZM15.75 17.625C15.75 19.2819 17.0931 20.625 18.75 20.625V19.125C17.9216 19.125 17.25 18.4534 17.25 17.625H15.75ZM18.75 20.625C20.4069 20.625 21.75 19.2819 21.75 17.625H20.25C20.25 18.4534 19.5784 19.125 18.75 19.125V20.625Z" fill="#576370"/>
</svg>
