<svg width="33" height="39" viewBox="0 0 33 39" fill="none" xmlns="http://www.w3.org/2000/svg">
<path d="M24.7472 19.0257C24.7472 14.2556 24.7472 11.619 24.7472 3.00313C24.7472 1.89856 23.8517 1 22.7471 1H3C1.89543 1 1 1.89543 1 3V25.9854C1 27.09 1.89543 27.9854 3 27.9854H15.5721" stroke="#00060C" stroke-width="1.3" stroke-linecap="round"/>
<path fill-rule="evenodd" clip-rule="evenodd" d="M18.2997 22.2964C18.279 21.4726 19.2077 20.9788 19.8791 21.4565L30.2844 28.8608C31.0926 29.4359 30.6607 30.7099 29.6694 30.6749L24.2323 30.4832C23.875 30.4706 23.5382 30.6497 23.3488 30.953L20.4674 35.5678C19.942 36.4091 18.6443 36.0547 18.6195 35.0632L18.2997 22.2964Z" stroke="#E94335" stroke-width="1.3" stroke-linecap="round"/>
<path d="M6.39844 6.93815H16.1132" stroke="#00060C" stroke-width="1.3" stroke-linecap="round"/>
<path d="M6.39844 12.3327H16.1132" stroke="#00060C" stroke-width="1.3" stroke-linecap="round"/>
<path d="M6.39844 17.7311H16.1132" stroke="#00060C" stroke-width="1.3" stroke-linecap="round"/>
<path d="M19.3516 6.93815H19.4595" stroke="#00060C" stroke-width="1.3" stroke-linecap="round"/>
<path d="M19.3516 12.3327H19.4595" stroke="#00060C" stroke-width="1.3" stroke-linecap="round"/>
<path d="M19.3516 17.7311H19.4595" stroke="#00060C" stroke-width="1.3" stroke-linecap="round"/>
</svg>
