<svg width="40" height="38" viewBox="0 0 40 38" fill="none" xmlns="http://www.w3.org/2000/svg">
<path d="M31.1114 26.1858V23.2007C31.1148 21.6361 30.5129 20.1344 29.4383 19.0269C28.3638 17.9193 26.9049 17.2969 25.3836 17.2969H13.8763C12.3549 17.2969 10.8961 17.9193 9.82153 19.0269C8.74698 20.1344 8.14503 21.6361 8.14845 23.2007V26.1858" stroke="#00060C" stroke-width="1.3" stroke-linecap="round"/>
<circle cx="19.6259" cy="6.55556" r="5.55556" stroke="#00060C" stroke-width="1.3" stroke-linecap="round"/>
<path fill-rule="evenodd" clip-rule="evenodd" d="M20.3113 24.1369L21.7325 26.9909C22.0179 27.5534 22.5612 27.9432 23.1891 28.0362L26.363 28.4943C26.4967 28.5128 26.6083 28.6048 26.651 28.7319C26.6937 28.8589 26.6601 28.9989 26.5643 29.0933L24.2668 31.3131C23.8129 31.7568 23.609 32.3941 23.722 33.0161L24.2668 36.1403C24.29 36.2714 24.2367 36.4044 24.129 36.4838C24.0213 36.5633 23.8776 36.5758 23.7576 36.5161L20.9153 35.0363C20.352 34.7418 19.6785 34.7418 19.1152 35.0363L16.2611 36.5161C16.1411 36.5758 15.9974 36.5633 15.8897 36.4838C15.782 36.4044 15.7286 36.2714 15.7518 36.1403L16.2966 33.0161C16.4024 32.3924 16.1946 31.7567 15.74 31.3131L13.4425 29.0933C13.3471 29.0006 13.3123 28.8626 13.3522 28.7362C13.3922 28.6099 13.5003 28.5164 13.632 28.4943L16.8058 28.0597C17.4338 27.9667 17.977 27.5769 18.2625 27.0144L19.6836 24.1604C19.7408 24.0428 19.8588 23.9661 19.9903 23.9612C20.1219 23.9563 20.2454 24.0239 20.3113 24.1369V24.1369Z" stroke="#E94335" stroke-width="1.3"/>
<path fill-rule="evenodd" clip-rule="evenodd" d="M34.7665 28.5323L35.7139 30.4509C35.8999 30.8326 36.2642 31.0962 36.685 31.1536L38.8009 31.4615C38.8887 31.4763 38.9607 31.5391 38.9874 31.6241C39.014 31.7091 38.9908 31.8018 38.9272 31.8641L37.3956 33.3563C37.0925 33.6545 36.9539 34.0818 37.0245 34.5011L37.3877 36.6012C37.4031 36.6894 37.3676 36.7788 37.2958 36.8322C37.224 36.8856 37.1282 36.894 37.0482 36.8539L35.1533 35.8591C34.7778 35.6612 34.3288 35.6612 33.9533 35.8591L32.0584 36.8539C31.9784 36.894 31.8826 36.8856 31.8108 36.8322C31.739 36.7788 31.7034 36.6894 31.7189 36.6012L32.0821 34.5011C32.1554 34.0816 32.0165 33.653 31.711 33.3563L30.1793 31.8641C30.1155 31.8007 30.0931 31.7065 30.1215 31.6212C30.15 31.5358 30.2244 31.4739 30.3136 31.4615L32.4295 31.1693C32.8481 31.1068 33.2103 30.8448 33.4006 30.4667L34.3401 28.5481C34.3766 28.4648 34.4575 28.4098 34.5483 28.4064C34.6392 28.403 34.7239 28.452 34.7665 28.5323V28.5323Z" stroke="#E94335" stroke-width="1.3"/>
<path fill-rule="evenodd" clip-rule="evenodd" d="M5.65708 28.5323L6.60451 30.4509C6.79052 30.8326 7.15487 31.0962 7.57562 31.1536L9.69153 31.4615C9.77933 31.4763 9.85137 31.5391 9.87802 31.6241C9.90467 31.7091 9.88143 31.8018 9.81786 31.8641L8.28619 33.3563C7.98308 33.6545 7.84457 34.0818 7.91511 34.5011L8.27829 36.6012C8.29376 36.6894 8.25821 36.7788 8.18641 36.8322C8.1146 36.8856 8.0188 36.894 7.9388 36.8539L6.04395 35.8591C5.66841 35.6612 5.21942 35.6612 4.84388 35.8591L2.94902 36.8539C2.86902 36.894 2.77322 36.8856 2.70142 36.8322C2.62961 36.7788 2.59406 36.6894 2.60953 36.6012L2.97271 34.5011C3.04605 34.0816 2.90712 33.653 2.60164 33.3563L1.06996 31.8641C1.0061 31.8007 0.983697 31.7065 1.01216 31.6212C1.04063 31.5358 1.11503 31.4739 1.20418 31.4615L3.3201 31.1693C3.73874 31.1068 4.10089 30.8448 4.29121 30.4667L5.23074 28.5481C5.2672 28.4648 5.3481 28.4098 5.43895 28.4064C5.52981 28.403 5.61457 28.452 5.65708 28.5323V28.5323Z" stroke="#E94335" stroke-width="1.3"/>
</svg>
