<svg width="40" height="40" viewBox="0 0 40 40" fill="none" xmlns="http://www.w3.org/2000/svg">
<rect width="40" height="40" fill="#D8D8D8" fill-opacity="0.01"/>
<path d="M7.38595 28.5C6.08561 28.5 7.1351 28.5 4.53442 28.5C3.41068 28.5 2.5 27.5852 2.5 26.4569V8.54309C2.5 7.41483 3.41068 6.5 4.53442 6.5H35.4662C36.5893 6.5 37.5 7.41483 37.5 8.54309V26.4569C37.5 27.5852 36.5893 28.5 35.4662 28.5C32.763 28.5 33.7839 28.5 32.529 28.5" stroke="#00060C" stroke-width="1.3" stroke-linecap="round"/>
<path d="M29.5 28C29.5 33.2464 25.2464 37.5 20 37.5C14.7536 37.5 10.5 33.2464 10.5 28C10.5 22.7536 14.7536 18.5 20 18.5C25.2464 18.5 29.5 22.7536 29.5 28" stroke="#E94335" stroke-width="1.3" stroke-linecap="round"/>
<path d="M2.5 13.5H37.5" stroke="#00060C" stroke-width="1.3" stroke-linecap="round"/>
<path d="M16.5 28.8124L18.7828 31L24 26" stroke="#E94335" stroke-width="1.3" stroke-linecap="round" stroke-linejoin="round"/>
</svg>
