<svg width="40" height="40" viewBox="0 0 40 40" fill="none" xmlns="http://www.w3.org/2000/svg">
<path fill-rule="evenodd" clip-rule="evenodd" d="M10.2105 12.4669C10.1921 12.6246 10.1892 12.7877 10.2193 12.9526C10.3829 13.8644 11.2559 14.4714 12.169 14.3065C13.0827 14.1397 13.6861 13.2678 13.5222 12.3547C13.4598 12.0089 13.2935 11.7067 13.0619 11.4743C13.1629 11.1774 13.1991 10.8537 13.1391 10.5237C12.9527 9.4814 11.955 8.79285 10.912 8.97984C9.87085 9.16756 9.17852 10.1669 9.36682 11.2056C9.4662 11.7471 9.78367 12.1893 10.2105 12.4669Z" fill="white"/>
<path fill-rule="evenodd" clip-rule="evenodd" d="M11.7173 6.74291C12.1558 6.42893 12.2563 5.82203 11.946 5.38527C11.6308 4.94634 11.0255 4.84507 10.5883 5.15905C10.1513 5.46925 10.0477 6.07702 10.3609 6.5161C10.673 6.95257 11.2807 7.05384 11.7173 6.74291Z" fill="white"/>
<path fill-rule="evenodd" clip-rule="evenodd" d="M15.8045 10.192C15.1295 10.5833 14.9014 11.4491 15.2931 12.1262C15.6857 12.8005 16.5526 13.0274 17.2271 12.635C17.9034 12.2425 18.1323 11.3756 17.7385 10.701C17.3454 10.0278 16.4791 9.7997 15.8045 10.192Z" fill="white"/>
<path fill-rule="evenodd" clip-rule="evenodd" d="M17.0207 7.78746C17.989 7.22023 18.3182 5.97855 17.7542 5.0103C17.7466 4.99825 17.7363 4.98836 17.729 4.97601C17.8713 4.57878 17.8503 4.12749 17.6211 3.73433C17.2103 3.03038 16.3051 2.79006 15.6007 3.20037C15.1695 3.45173 14.9157 3.8895 14.8751 4.35067C13.9906 4.94173 13.7003 6.12079 14.2424 7.05286C14.8089 8.02226 16.0513 8.35106 17.0207 7.78746Z" fill="white"/>
<path fill-rule="evenodd" clip-rule="evenodd" d="M18.4521 30.4781L17.9578 30.0459C17.4612 29.6289 16.9988 29.242 16.5725 28.8758C16.2777 28.6256 16.0055 28.3854 15.7454 28.1536C14.9576 27.4515 14.3909 26.8867 13.963 26.3772C13.9341 26.3452 13.9078 26.3128 13.8827 26.2797C13.8532 26.2405 13.8243 26.2073 13.7993 26.1742C13.7169 26.0686 13.6385 25.9646 13.5625 25.8602C13.3872 25.615 13.2332 25.3691 13.1076 25.1263C12.8457 24.6199 12.6881 24.1208 12.622 23.5989C12.5098 22.9587 12.4466 21.9335 12.7837 20.7948C12.8733 20.4938 12.9923 20.1908 13.1338 19.8933C13.3246 19.4955 13.5594 19.1141 13.831 18.7561V18.7534L13.9195 18.6369C14.1811 18.2484 14.5387 17.8545 14.9619 17.491C15.2229 17.2672 15.5187 17.0538 15.8327 16.8552C16.3956 16.5128 16.956 16.2714 17.4452 16.0948C17.4428 15.0154 16.5666 14.1406 15.4849 14.1406C14.4039 14.1406 13.5257 15.0192 13.5257 16.0998C13.5257 16.1253 13.5306 16.1487 13.5333 16.1726C13.4903 16.1684 13.4459 16.1592 13.4012 16.1592C12.6133 16.1592 11.9708 16.7545 11.8843 17.5197C11.8739 17.5394 11.8616 17.5566 11.8529 17.5768C11.5705 17.196 11.1796 16.9003 10.7297 16.7244C9.59099 17.8767 8.56564 19.1251 7.7055 20.5207C7.65029 20.6103 7.59261 20.696 7.53739 20.7868C6.21056 23.0236 5.75986 25.4126 6.11845 27.9923C6.17308 28.3902 6.25096 28.7777 6.33929 29.1628C6.42516 29.594 6.57714 30.1918 6.83838 30.8706L6.94881 30.8688C10.2097 30.8062 12.2749 30.9251 14.0457 31.0257C14.4775 31.049 14.8883 31.073 15.2929 31.0926C15.835 31.1452 17.2158 31.3653 18.7855 32.3C19.5479 32.7905 20.3033 33.428 21.0495 34.2051C20.651 33.1313 19.8882 31.688 18.4521 30.4781Z" fill="white"/>
<path fill-rule="evenodd" clip-rule="evenodd" d="M26.691 28.4975C26.4726 28.3682 26.1998 28.1701 25.8829 27.8353C25.1868 27.1768 24.5209 26.2766 24.1328 25.0503L25.8644 23.3984L27.8622 23.44C27.8524 23.4622 27.8474 23.4855 27.8377 23.5089C27.7663 23.7271 27.5365 24.5107 27.5151 25.58C27.5163 25.9872 27.5446 26.3821 27.585 26.7366C27.5875 26.7648 27.59 26.7911 27.5923 26.8188C27.7101 27.6319 27.9744 28.5209 28.4986 29.4125C28.4986 29.4125 27.6598 29.1758 26.691 28.4975ZM34.0813 26.3394C34.1506 23.3692 32.9554 21.0286 31.2956 18.8807C30.0716 17.2961 28.676 15.9067 27.164 14.6492C25.6923 13.4246 24.1128 12.3276 22.4743 11.2982C22.0531 11.0357 21.6233 10.7868 21.1922 10.5391C19.7494 11.2097 18.7473 12.6673 18.7473 14.3626C18.7473 14.8312 18.8271 15.28 18.967 15.7007C18.9657 15.7031 18.9621 15.7044 18.9621 15.7044C19.3298 15.6467 19.7095 15.6064 20.0983 15.5867C20.9426 15.5713 22.4215 15.6976 23.9306 16.5261C25.5477 17.4526 27.1548 19.2486 27.6728 22.7193L25.6452 22.7817L23.9142 24.2982C23.8778 24.1209 23.8633 23.8793 23.8441 23.5525L23.8209 23.1435C23.7731 22.4194 23.6552 21.3493 23.1893 20.3953C22.9292 19.8594 22.5773 19.4068 22.1397 19.05C22.0279 18.9567 21.9629 18.9027 21.8888 18.8525C20.739 18.2908 19.6348 18.0652 18.7106 18.2282C18.3402 18.2931 17.9901 18.4219 17.672 18.6108C17.3763 18.7861 17.1016 19.0174 16.8576 19.2922C16.4161 19.793 16.1855 20.3143 16.107 20.5166L16.0619 20.7533C16.0408 20.8551 16.0238 20.9629 16.0078 21.077C16.0101 21.2561 16.021 21.4738 16.0408 21.6878C16.0556 21.8276 16.077 21.9643 16.1023 22.0999C16.1617 22.4064 16.2455 22.6873 16.3633 22.9619C16.8 23.98 17.6903 24.9071 19.2521 25.972C20.0718 26.5313 20.8556 27.1456 21.5797 27.7987C21.8869 28.0771 22.1934 28.3689 22.4878 28.6712C23.1845 29.3881 23.8011 30.1399 24.323 30.905C24.558 31.2515 24.7768 31.6028 24.97 31.95C25.8787 33.5835 26.3583 35.282 26.4035 37.0026C26.6379 36.9241 26.8721 36.8382 27.1013 36.7438C27.1891 36.7095 27.2767 36.6813 27.3637 36.6457C30.8839 35.1986 33.1135 32.6429 33.8612 28.8731C34.0389 27.9871 34.1284 27.0887 34.0813 26.3394Z" fill="white"/>
</svg>
