<svg width="24" height="25" viewBox="0 0 24 25" fill="none" xmlns="http://www.w3.org/2000/svg">
<path d="M6 12.0273C6 13.1319 5.10457 14.0273 4 14.0273C2.89543 14.0273 2 13.1319 2 12.0273C2 10.9228 2.89543 10.0273 4 10.0273C5.10457 10.0273 6 10.9228 6 12.0273Z" fill="#576370"/>
<path d="M14 12.0273C14 13.1319 13.1046 14.0273 12 14.0273C10.8954 14.0273 10 13.1319 10 12.0273C10 10.9228 10.8954 10.0273 12 10.0273C13.1046 10.0273 14 10.9228 14 12.0273Z" fill="#576370"/>
<path d="M22 12.0273C22 13.1319 21.1046 14.0273 20 14.0273C18.8954 14.0273 18 13.1319 18 12.0273C18 10.9228 18.8954 10.0273 20 10.0273C21.1046 10.0273 22 10.9228 22 12.0273Z" fill="#576370"/>
</svg>
