<svg width="375" height="229" viewBox="0 0 375 229" fill="none" xmlns="http://www.w3.org/2000/svg">
<mask id="mask0_1365_34602" style="mask-type:alpha" maskUnits="userSpaceOnUse" x="0" y="0" width="375" height="229">
<path d="M213.859 143.875C84.8332 113.966 11.9363 172.25 0 229V0H375C375 71.9368 361.074 178 213.859 143.875Z" fill="url(#paint0_linear_1365_34602)"/>
</mask>
<g mask="url(#mask0_1365_34602)">
<mask id="mask1_1365_34602" style="mask-type:alpha" maskUnits="userSpaceOnUse" x="0" y="0" width="375" height="226">
<rect width="375" height="226" fill="#E94335"/>
</mask>
<g mask="url(#mask1_1365_34602)">
<path d="M104.368 104.482C36.6092 126.734 25.1267 225.32 25.1267 225.32L22.9723 226H375V-0.652618H295.013C216.679 114.6 176.161 80.9045 104.368 104.482Z" fill="url(#paint1_linear_1365_34602)"/>
<path d="M58.7214 52.9571C131.521 45.4614 152.044 28.9211 188.336 -0.651657H0.00105286V100.719C10.6839 81.7771 30.2903 55.8847 58.7214 52.9571Z" fill="url(#paint2_linear_1365_34602)"/>
<path d="M22.975 226L25.1295 225.32C25.1295 225.32 36.612 126.734 104.371 104.482C176.164 80.9045 216.682 114.6 295.016 -0.652618H188.338C152.046 28.9201 131.523 45.4604 58.7232 52.9561C30.2921 55.8837 10.6858 81.7761 0.00292969 100.715V226H22.975Z" fill="url(#paint3_linear_1365_34602)"/>
</g>
</g>
<defs>
<linearGradient id="paint0_linear_1365_34602" x1="-59.7764" y1="-55.1241" x2="533.665" y2="-20.5158" gradientUnits="userSpaceOnUse">
<stop offset="0.0181949" stop-color="#E94335"/>
<stop offset="0.929265" stop-color="#436CD7"/>
</linearGradient>
<linearGradient id="paint1_linear_1365_34602" x1="430.504" y1="365.213" x2="-7.64665" y2="297.655" gradientUnits="userSpaceOnUse">
<stop stop-color="#990F04"/>
<stop offset="1" stop-color="#E34235"/>
</linearGradient>
<linearGradient id="paint2_linear_1365_34602" x1="218.031" y1="162.982" x2="-14.0577" y2="120.175" gradientUnits="userSpaceOnUse">
<stop stop-color="#990F04"/>
<stop offset="1" stop-color="#E34235"/>
</linearGradient>
<linearGradient id="paint3_linear_1365_34602" x1="341.53" y1="365.213" x2="-28.213" y2="317.436" gradientUnits="userSpaceOnUse">
<stop stop-color="#990F04"/>
<stop offset="1" stop-color="#E34235"/>
</linearGradient>
</defs>
</svg>
