<svg width="336" height="16" viewBox="0 0 336 16" fill="none" xmlns="http://www.w3.org/2000/svg">
<path fill-rule="evenodd" clip-rule="evenodd" d="M16 8C16 12.4183 12.4183 16 8 16C3.58172 16 0 12.4183 0 8C0 3.58172 3.58172 0 8 0C12.4183 0 16 3.58172 16 8ZM36 8C36 12.4183 32.4183 16 28 16C23.5817 16 20 12.4183 20 8C20 3.58172 23.5817 0 28 0C32.4183 0 36 3.58172 36 8ZM48 16C52.4183 16 56 12.4183 56 8C56 3.58172 52.4183 0 48 0C43.5817 0 40 3.58172 40 8C40 12.4183 43.5817 16 48 16ZM76 8C76 12.4183 72.4183 16 68 16C63.5817 16 60 12.4183 60 8C60 3.58172 63.5817 0 68 0C72.4183 0 76 3.58172 76 8ZM88 16C92.4183 16 96 12.4183 96 8C96 3.58172 92.4183 0 88 0C83.5817 0 80 3.58172 80 8C80 12.4183 83.5817 16 88 16ZM116 8C116 12.4183 112.418 16 108 16C103.582 16 100 12.4183 100 8C100 3.58172 103.582 0 108 0C112.418 0 116 3.58172 116 8ZM128 16C132.418 16 136 12.4183 136 8C136 3.58172 132.418 0 128 0C123.582 0 120 3.58172 120 8C120 12.4183 123.582 16 128 16ZM156 8C156 12.4183 152.418 16 148 16C143.582 16 140 12.4183 140 8C140 3.58172 143.582 0 148 0C152.418 0 156 3.58172 156 8ZM168 16C172.418 16 176 12.4183 176 8C176 3.58172 172.418 0 168 0C163.582 0 160 3.58172 160 8C160 12.4183 163.582 16 168 16ZM196 8C196 12.4183 192.418 16 188 16C183.582 16 180 12.4183 180 8C180 3.58172 183.582 0 188 0C192.418 0 196 3.58172 196 8ZM208 16C212.418 16 216 12.4183 216 8C216 3.58172 212.418 0 208 0C203.582 0 200 3.58172 200 8C200 12.4183 203.582 16 208 16ZM236 8C236 12.4183 232.418 16 228 16C223.582 16 220 12.4183 220 8C220 3.58172 223.582 0 228 0C232.418 0 236 3.58172 236 8ZM248 16C252.418 16 256 12.4183 256 8C256 3.58172 252.418 0 248 0C243.582 0 240 3.58172 240 8C240 12.4183 243.582 16 248 16ZM276 8C276 12.4183 272.418 16 268 16C263.582 16 260 12.4183 260 8C260 3.58172 263.582 0 268 0C272.418 0 276 3.58172 276 8ZM288 16C292.418 16 296 12.4183 296 8C296 3.58172 292.418 0 288 0C283.582 0 280 3.58172 280 8C280 12.4183 283.582 16 288 16ZM316 8C316 12.4183 312.418 16 308 16C303.582 16 300 12.4183 300 8C300 3.58172 303.582 0 308 0C312.418 0 316 3.58172 316 8ZM328 16C332.418 16 336 12.4183 336 8C336 3.58172 332.418 0 328 0C323.582 0 320 3.58172 320 8C320 12.4183 323.582 16 328 16Z" fill="white"/>
</svg>
