<svg width="33" height="31" viewBox="0 0 33 31" fill="none" xmlns="http://www.w3.org/2000/svg">
<path opacity="0.6" d="M15.7807 1.22958C15.9061 0.959252 16.2904 0.959248 16.4157 1.22958L20.3796 9.77662C20.6207 10.2964 21.1142 10.654 21.6832 10.7211L31.0719 11.8282C31.3691 11.8632 31.4881 12.2308 31.2679 12.4334L24.334 18.8109C23.91 19.2008 23.7201 19.7837 23.8329 20.3486L25.6746 29.5672C25.7331 29.8599 25.4219 30.0868 25.1612 29.9416L16.9008 25.3429C16.4018 25.0651 15.7946 25.0651 15.2956 25.3429L7.03524 29.9416C6.77448 30.0868 6.46331 29.8599 6.52178 29.5672L8.36351 20.3486C8.47636 19.7837 8.28644 19.2008 7.86246 18.8109L0.928551 12.4334C0.70832 12.2308 0.827342 11.8632 1.1245 11.8282L10.5132 10.7211C11.0822 10.654 11.5757 10.2964 11.8168 9.77662L15.7807 1.22958Z" stroke="#576370" stroke-width="1.3"/>
</svg>
