<svg width="22" height="24" viewBox="0 0 22 24" fill="none" xmlns="http://www.w3.org/2000/svg">
<path d="M4.93237 5.38691L4.77432 6.0174L4.93237 5.38691ZM8.30692 3.43861L7.68188 3.26023L8.30692 3.43861ZM2.23886 10.0522L2.70586 9.60009L2.23886 10.0522ZM17.0685 18.6141L16.9105 19.2446L17.0685 18.6141ZM19.762 13.9488L19.295 14.4009L19.762 13.9488ZM19.762 10.0522L19.295 9.60009L19.762 10.0522ZM17.0685 5.38691L16.9105 4.75642L17.0685 5.38691ZM13.6939 3.43861L14.319 3.26023L13.6939 3.43861ZM2.35627 11.7006C2.406 12.0561 2.73453 12.304 3.09006 12.2543C3.44558 12.2045 3.69347 11.876 3.64373 11.5205L2.35627 11.7006ZM15.5456 17.9838C15.1975 18.0716 14.9865 18.425 15.0743 18.7731C15.162 19.1212 15.5154 19.3322 15.8635 19.2444L15.5456 17.9838ZM8.56641 9.28053C8.29897 9.51999 8.27628 9.93092 8.51575 10.1984C8.75521 10.4658 9.16614 10.4885 9.43359 10.249L8.56641 9.28053ZM12.5666 13.7526C12.2991 13.9919 12.2762 14.4029 12.5156 14.6704C12.7549 14.9379 13.1659 14.9608 13.4334 14.7214L12.5666 13.7526ZM4.77432 6.0174C6.58088 6.47024 8.42086 5.40793 8.93197 3.61699L7.68188 3.26023C7.3633 4.37653 6.21644 5.03867 5.09041 4.75642L4.77432 6.0174ZM2.70586 9.60009C1.20062 8.04528 2.6752 5.49123 4.77432 6.0174L5.09041 4.75642C1.72266 3.91225 -0.64309 8.00985 1.77185 10.5043L2.70586 9.60009ZM19.295 14.4009C20.8002 15.9557 19.3257 18.5098 17.2265 17.9836L16.9105 19.2446C20.2782 20.0888 22.644 15.9912 20.229 13.4967L19.295 14.4009ZM19.295 9.60009C17.9996 10.9382 17.9996 13.0628 19.295 14.4009L20.229 13.4967C19.4216 12.6626 19.4216 11.3384 20.229 10.5043L19.295 9.60009ZM17.2265 6.0174C19.3257 5.49123 20.8002 8.04528 19.295 9.60009L20.229 10.5043C22.644 8.00985 20.2782 3.91225 16.9105 4.75642L17.2265 6.0174ZM13.0689 3.61699C13.58 5.40793 15.42 6.47024 17.2265 6.0174L16.9105 4.75642C15.7844 5.03867 14.6376 4.37653 14.319 3.26023L13.0689 3.61699ZM14.319 3.26023C13.3662 -0.0784099 8.63468 -0.0784088 7.68188 3.26023L8.93197 3.61699C9.52585 1.536 12.475 1.536 13.0689 3.61699L14.319 3.26023ZM14.6504 12.0005C14.6504 9.98466 13.0163 8.3505 11.0004 8.3505V9.6505C12.2983 9.6505 13.3504 10.7026 13.3504 12.0005H14.6504ZM3.64373 11.5205C3.54589 10.8211 3.23311 10.1447 2.70586 9.60009L1.77185 10.5043C2.101 10.8443 2.29524 11.2644 2.35627 11.7006L3.64373 11.5205ZM17.2265 17.9836C16.6563 17.8407 16.0811 17.8488 15.5456 17.9838L15.8635 19.2444C16.1961 19.1605 16.5535 19.1551 16.9105 19.2446L17.2265 17.9836ZM11.0004 8.3505C10.0658 8.3505 9.2118 8.70267 8.56641 9.28053L9.43359 10.249C9.84982 9.87636 10.398 9.6505 11.0004 9.6505V8.3505ZM13.4334 14.7214C14.1794 14.054 14.6504 13.0818 14.6504 12.0005H13.3504C13.3504 12.6966 13.0486 13.3213 12.5666 13.7526L13.4334 14.7214Z" fill="#00060C"/>
<path d="M2.70586 14.4004C2.95556 14.1425 2.94889 13.731 2.69097 13.4813C2.43305 13.2316 2.02155 13.2383 1.77185 13.4962L2.70586 14.4004ZM4.93237 18.6136L5.09041 19.2441L4.93237 18.6136ZM8.30692 20.5619L7.68188 20.7403L8.30692 20.5619ZM14.319 20.7403C14.4175 20.3951 14.2175 20.0354 13.8723 19.9369C13.5271 19.8383 13.1674 20.0383 13.0689 20.3835L14.319 20.7403ZM8.65043 12C8.65043 11.641 8.35942 11.35 8.00043 11.35C7.64145 11.35 7.35043 11.641 7.35043 12H8.65043ZM11.0004 15.65C11.3594 15.65 11.6504 15.359 11.6504 15C11.6504 14.641 11.3594 14.35 11.0004 14.35V15.65ZM4.77433 17.9831C2.6752 18.5093 1.20062 15.9552 2.70586 14.4004L1.77185 13.4962C-0.64309 15.9907 1.72266 20.0883 5.09041 19.2441L4.77433 17.9831ZM8.93197 20.3835C8.42086 18.5926 6.58088 17.5303 4.77433 17.9831L5.09041 19.2441C6.21644 18.9618 7.3633 19.624 7.68188 20.7403L8.93197 20.3835ZM13.0689 20.3835C12.475 22.4645 9.52585 22.4645 8.93197 20.3835L7.68188 20.7403C8.63468 24.0789 13.3662 24.0789 14.319 20.7403L13.0689 20.3835ZM7.35043 12C7.35043 14.0158 8.98459 15.65 11.0004 15.65V14.35C9.70256 14.35 8.65043 13.2979 8.65043 12H7.35043Z" fill="#E94335"/>
</svg>
