<svg width="24" height="25" viewBox="0 0 24 25" fill="none" xmlns="http://www.w3.org/2000/svg">
<path d="M22 12.0273C22 17.5502 17.5228 22.0273 12 22.0273C6.47715 22.0273 2 17.5502 2 12.0273C2 6.5045 6.47715 2.02734 12 2.02734C17.5228 2.02734 22 6.5045 22 12.0273Z" fill="#E94335"/>
<path d="M12 8.02735V11.439C12 12.2235 12 12.6157 11.8588 12.9713C11.7176 13.3268 11.4486 13.6122 10.9104 14.183L10 15.1487M22 12.0273C22 17.5502 17.5228 22.0273 12 22.0273C6.47715 22.0273 2 17.5502 2 12.0273C2 6.5045 6.47715 2.02734 12 2.02734C17.5228 2.02734 22 6.5045 22 12.0273Z" stroke="#E94335" stroke-width="1.3"/>
<path d="M22 12.0273C22 17.5502 17.5228 22.0273 12 22.0273" stroke="#00060C" stroke-width="3"/>
<path d="M12.75 8.02734C12.75 7.61313 12.4142 7.27734 12 7.27734C11.5858 7.27734 11.25 7.61313 11.25 8.02734H12.75ZM11.25 13.0273C11.25 13.4416 11.5858 13.7773 12 13.7773C12.4142 13.7773 12.75 13.4416 12.75 13.0273H11.25ZM11.25 8.02734V13.0273H12.75V8.02734H11.25Z" fill="white"/>
<path d="M12.5457 13.5418C12.8299 13.2405 12.8159 12.7658 12.5145 12.4816C12.2131 12.1975 11.7384 12.2115 11.4543 12.5128L12.5457 13.5418ZM9.4543 14.6342C9.17015 14.9356 9.18412 15.4102 9.4855 15.6944C9.78689 15.9785 10.2616 15.9645 10.5457 15.6632L9.4543 14.6342ZM10.5457 15.6632L12.5457 13.5418L11.4543 12.5128L9.4543 14.6342L10.5457 15.6632Z" fill="white"/>
</svg>
