<svg width="24" height="24" viewBox="0 0 24 24" fill="none" xmlns="http://www.w3.org/2000/svg">
<path d="M17.4827 16.4221C17.1898 16.1292 16.715 16.1292 16.4221 16.4221C16.1292 16.715 16.1292 17.1899 16.4221 17.4828L17.4827 16.4221ZM19.4696 20.5303C19.7625 20.8232 20.2374 20.8232 20.5303 20.5303C20.8232 20.2374 20.8232 19.7626 20.5303 19.4697L19.4696 20.5303ZM16.4221 17.4828L19.4696 20.5303L20.5303 19.4697L17.4827 16.4221L16.4221 17.4828ZM10.8571 16.9643C7.48426 16.9643 4.75 14.23 4.75 10.8571H3.25C3.25 15.0584 6.65583 18.4643 10.8571 18.4643V16.9643ZM16.9643 10.8571C16.9643 14.23 14.23 16.9643 10.8571 16.9643V18.4643C15.0584 18.4643 18.4643 15.0584 18.4643 10.8571H16.9643ZM10.8571 4.75C14.23 4.75 16.9643 7.48426 16.9643 10.8571H18.4643C18.4643 6.65583 15.0584 3.25 10.8571 3.25V4.75ZM10.8571 3.25C6.65583 3.25 3.25 6.65583 3.25 10.8571H4.75C4.75 7.48426 7.48426 4.75 10.8571 4.75V3.25Z" fill="#6E7C8A"/>
</svg>
