<svg width="24" height="24" viewBox="0 0 24 24" fill="none" xmlns="http://www.w3.org/2000/svg">
<path fill-rule="evenodd" clip-rule="evenodd" d="M14.6655 4.62836C15.082 4.21214 15.954 4 17.0217 4C18.0898 4 18.9614 4.21214 19.3784 4.62836C19.7949 5.04493 20.0067 6.02476 20.0067 6.98463C20.0067 7.94485 19.7949 8.92432 19.3784 9.34124C18.9614 9.75746 18.0898 9.9696 17.0217 9.9696C15.954 9.9696 15.082 9.75746 14.6655 9.34124C14.2492 8.92432 14.0371 7.94485 14.0371 6.98463C14.0371 6.02476 14.2492 5.04493 14.6655 4.62836Z" stroke="#46300D" stroke-width="1.5" stroke-linecap="round" stroke-linejoin="round"/>
<path fill-rule="evenodd" clip-rule="evenodd" d="M14.6655 14.6596C15.082 14.2434 15.954 14.0312 17.0217 14.0312C18.0898 14.0312 18.9614 14.2434 19.3784 14.6596C19.7949 15.0762 20.0067 16.056 20.0067 17.0159C20.0067 17.9761 19.7949 18.9556 19.3784 19.3725C18.9614 19.7887 18.0898 20.0009 17.0217 20.0009C15.954 20.0009 15.082 19.7887 14.6655 19.3725C14.2492 18.9556 14.0371 17.9761 14.0371 17.0159C14.0371 16.056 14.2492 15.0762 14.6655 14.6596Z" stroke="#46300D" stroke-width="1.5" stroke-linecap="round" stroke-linejoin="round"/>
<path fill-rule="evenodd" clip-rule="evenodd" d="M4.62836 9.42914C5.04493 9.01292 5.91694 8.80078 6.98463 8.80078C8.05266 8.80078 8.92432 9.01292 9.34124 9.42914C9.75781 9.84572 9.9696 10.8255 9.9696 11.7854C9.9696 12.7456 9.75781 13.7251 9.34124 14.142C8.92432 14.5582 8.05266 14.7704 6.98463 14.7704C5.91694 14.7704 5.04493 14.5582 4.62836 14.142C4.21214 13.7251 4 12.7456 4 11.7854C4 10.8255 4.21214 9.84572 4.62836 9.42914Z" stroke="#46300D" stroke-width="1.5" stroke-linecap="round" stroke-linejoin="round"/>
<path d="M14.599 8.46875L9.97852 11.2157" stroke="#46300D" stroke-width="1.5" stroke-linejoin="round"/>
<path d="M14.4305 14.8867L9.97852 12.2785" stroke="#46300D" stroke-width="1.5" stroke-linejoin="round"/>
</svg>
