<svg width="327" height="172" viewBox="0 0 327 172" fill="none" xmlns="http://www.w3.org/2000/svg">
<path d="M309.974 92.3063C309.936 92.3063 307.95 90.8489 307.663 91.1283C307.275 91.5063 306.788 91.7679 306.259 91.8834C305.912 91.9626 305.555 91.9856 305.202 91.9514H305.141C305.517 92.3405 305.924 92.6991 306.357 93.0237L306.855 93.1596C307.403 93.3177 307.984 93.3217 308.535 93.1712C309.085 93.0206 309.583 92.7214 309.974 92.3063Z" fill="white"/>
<path opacity="0.2" d="M309.974 92.3063C309.936 92.3063 307.95 90.8489 307.663 91.1283C307.275 91.5063 306.788 91.7679 306.259 91.8834C305.912 91.9626 305.555 91.9856 305.202 91.9514H305.141C305.517 92.3405 305.924 92.6991 306.357 93.0237L306.855 93.1596C307.403 93.3177 307.984 93.3217 308.535 93.1712C309.085 93.0206 309.583 92.7214 309.974 92.3063Z" fill="#28BE91"/>
<circle cx="164" cy="98" r="65" fill="white"/>
<path d="M139.841 101.391L135.232 97.5496L127.55 106.768L132.159 110.609L139.841 101.391ZM154 121L150.159 125.609L154.507 129.232L158.377 125.104L154 121ZM195.877 85.1036L199.981 80.7264L191.226 72.5191L187.123 76.8964L195.877 85.1036ZM132.159 110.609L150.159 125.609L157.841 116.391L139.841 101.391L132.159 110.609ZM158.377 125.104L195.877 85.1036L187.123 76.8964L149.623 116.896L158.377 125.104Z" fill="#28BE91"/>
<path d="M183.236 12C182.308 13.5825 181.886 15.4108 182.026 17.24C182.106 17.67 184.096 18.79 184.026 18.87C184.266 18.03 184.196 17.09 184.366 16.22C184.552 15.3236 184.83 14.4489 185.196 13.61C185.336 13.28 183.196 12.01 183.196 12H183.236Z" fill="white"/>
<path d="M66.6659 96.9999C66.7705 96.8788 66.5571 96.2847 66.6027 96.8131C66.6456 96.9163 66.679 96.9848 66.6659 96.9999Z" fill="white"/>
<path d="M62.0743 90.6144C62.1868 91.2116 62.4111 91.7822 62.7356 92.2961C63.5479 93.1303 64.4909 93.8131 65.2116 94.7532C65.4059 94.9872 65.5861 95.2223 65.7597 95.4649C66.2789 96.0486 66.7426 96.6794 67.1447 97.3492C66.6931 95.7056 66.0398 94.1243 65.1996 92.6414C64.4897 91.4594 63.1903 89.5831 61.7883 89.2172C61.7449 89.2062 62.0712 90.572 62.0743 90.6144Z" fill="white"/>
<path opacity="0.3" d="M62.0743 90.6144C62.1868 91.2116 62.4111 91.7822 62.7356 92.2961C63.5479 93.1303 64.4909 93.8131 65.2116 94.7532C65.4059 94.9872 65.5861 95.2223 65.7597 95.4649C66.2789 96.0486 66.7426 96.6794 67.1447 97.3492C66.6931 95.7056 66.0398 94.1243 65.1996 92.6414C64.4897 91.4594 63.1903 89.5831 61.7883 89.2172C61.7449 89.2062 62.0712 90.572 62.0743 90.6144Z" fill="#28BE91"/>
<path d="M66.2677 96.2214C66.2677 96.2214 66.4995 96.5803 66.6146 96.7988C66.5691 96.2704 66.7825 96.8646 66.6779 96.9856C66.6779 96.9856 66.6576 96.902 66.6146 96.7988L66.6417 97.0733C66.9208 99.4092 66.5563 101.777 65.5876 103.921C65.4244 104.308 65.8276 105.172 65.9476 105.554C66.0032 105.734 66.6433 107.027 66.5985 107.094C68.2818 104.214 68.1568 100.841 67.2638 97.7299C67.2329 97.5975 67.1879 97.466 67.1504 97.3412C66.7483 96.6714 66.2846 96.0406 65.7654 95.4569C65.9335 95.7211 66.1006 95.9713 66.2677 96.2214Z" fill="white"/>
<path d="M72.5029 68C71.3329 68.26 70.5929 69.45 70.0129 70.43C69.4329 71.41 68.7629 72.71 69.0829 73.9C69.1929 74.28 71.2729 76.1 71.6129 75.9C72.3929 75.47 72.7129 73.71 73.1429 72.9C73.6629 71.9 74.7029 70.96 74.8729 69.9C74.9229 69.56 72.8729 67.9 72.5029 68.02V68Z" fill="white"/>
<path d="M110.456 12.1275C107.53 11.1063 104.443 10.6225 101.344 10.6994C99.8991 10.6706 98.4573 10.8524 97.0644 11.2392C95.7346 11.6977 95.519 12.7172 95.3811 13.9914C95.3178 14.4666 95.2847 14.9454 95.2819 15.4249L95.501 15.1519C95.7354 14.9029 96.0008 14.685 96.2907 14.5035L96.2049 14.4347C96.4359 14.3015 96.6827 14.198 96.9395 14.1266C99.0818 13.5658 101.302 13.3635 103.511 13.5281C105.797 13.5901 108.07 13.8969 110.29 14.4433C110.29 14.4433 110.722 12.2123 110.456 12.1275Z" fill="white"/>
<path d="M109.207 25.8577L109.245 25.8109C109.231 25.8259 109.219 25.8415 109.207 25.8577Z" fill="white"/>
<path d="M110.13 25.4442C110.088 25.4634 110.048 25.4869 110.01 25.5143C109.945 25.5514 109.877 25.5827 109.807 25.6077C109.634 25.6938 109.453 25.7635 109.268 25.8161L109.23 25.8628C108.952 25.503 108.634 25.1752 108.284 24.8852C106.95 23.8682 105.545 22.9498 104.078 22.1376C102.645 21.2701 101.196 20.44 99.7306 19.6615C98.4152 18.9519 96.5389 18.382 95.6836 17.0672C95.3653 16.5691 95.1981 15.9895 95.2022 15.3985L95.4212 15.1255C95.6557 14.8765 95.9211 14.6586 96.211 14.4771C96.8333 15.0437 97.5497 15.4972 98.3281 15.8174C100.308 16.8336 102.251 17.9107 104.159 19.0486C105.92 19.942 107.559 21.0556 109.039 22.3627C109.437 22.7636 109.742 23.2479 109.931 23.7808C110.12 24.3137 110.188 24.8818 110.13 25.4442Z" fill="white"/>
<path opacity="0.3" d="M110.13 25.4442C110.088 25.4634 110.048 25.4869 110.01 25.5143C109.945 25.5514 109.877 25.5827 109.807 25.6077C109.634 25.6938 109.453 25.7635 109.268 25.8161L109.23 25.8628C108.952 25.503 108.634 25.1752 108.284 24.8852C106.95 23.8682 105.545 22.9498 104.078 22.1376C102.645 21.2701 101.196 20.44 99.7306 19.6615C98.4152 18.9519 96.5389 18.382 95.6836 17.0672C95.3653 16.5691 95.1981 15.9895 95.2022 15.3985L95.4212 15.1255C95.6557 14.8765 95.9211 14.6586 96.211 14.4771C96.8333 15.0437 97.5497 15.4972 98.3281 15.8174C100.308 16.8336 102.251 17.9107 104.159 19.0486C105.92 19.942 107.559 21.0556 109.039 22.3627C109.437 22.7636 109.742 23.2479 109.931 23.7808C110.12 24.3137 110.188 24.8818 110.13 25.4442Z" fill="#28BE91"/>
<path d="M107.197 29.0526C104.931 28.8633 102.679 28.5373 100.453 28.0766C98.1547 27.7449 95.7908 27.3991 93.4565 27.0642C92.2939 26.778 91.0915 26.6885 89.8993 26.7992L89.9461 26.8368C89.6707 26.919 89.4163 27.0595 89.2001 27.2489C88.9839 27.4383 88.8111 27.672 88.6934 27.9342C88.6308 28.0789 88.583 28.2295 88.5506 28.3838C88.4401 27.8323 88.4262 27.2658 88.5095 26.7095C88.6441 25.5353 88.6694 24.4015 89.9194 23.9944C91.1999 23.7593 92.517 23.8169 93.772 24.163C97.4151 24.7363 101.056 25.2862 104.694 25.8126C105.987 25.9912 107.994 26.5894 109.234 25.8277C109.247 25.8088 109.262 25.7905 109.277 25.7732C109.463 25.7206 109.644 25.6509 109.817 25.5647C109.887 25.5398 109.955 25.5085 110.02 25.4714C110.057 25.444 110.098 25.4205 110.14 25.4013C110.124 25.6449 110.1 25.8822 110.072 26.1414C110.084 26.9155 109.86 27.6749 109.428 28.3175C109.129 28.591 108.776 28.798 108.391 28.9247C108.007 29.0515 107.599 29.095 107.197 29.0526Z" fill="white"/>
<path d="M101.729 39.7442C98.8815 40.171 95.9723 39.8884 93.2598 38.9215C92.957 38.8195 93.4751 36.1451 93.5407 36.1593C95.2446 36.5345 96.9762 36.7708 98.7183 36.8657C99.5936 36.8975 100.47 36.8728 101.342 36.7919C101.793 36.7836 102.24 36.7107 102.67 36.5753C102.775 36.5306 102.874 36.4719 102.964 36.4009C103.038 36.4915 103.108 36.586 103.173 36.6839C103.251 36.8114 103.314 36.9478 103.359 37.0903C103.443 37.4012 103.499 37.5231 103.548 37.4467L103.656 37.8544C103.594 38.3401 103.37 38.7906 103.021 39.1334C102.671 39.4762 102.216 39.6913 101.729 39.7442Z" fill="white"/>
<path d="M103.662 37.847L103.553 37.4392C103.459 37.171 103.333 36.915 103.178 36.6764L102.976 36.3856C102.747 36.1127 102.482 35.8736 102.186 35.6753C101.427 35.2023 100.626 34.7996 99.7927 34.472L94.6224 32.143C92.9063 31.4723 91.2323 30.6983 89.6098 29.8251C89.3423 29.6821 89.1069 29.4858 88.9182 29.2483C88.7295 29.0108 88.5915 28.7372 88.5126 28.4443C88.545 28.29 88.5929 28.1394 88.6555 27.9948C88.7732 27.7326 88.946 27.4988 89.1621 27.3094C89.3783 27.12 89.6328 26.9795 89.9082 26.8973C90.7544 27.3439 91.6311 27.7305 92.5316 28.0541L96.9154 30.0211C98.4042 30.6904 99.904 31.33 101.376 32.0367C101.916 32.2225 102.41 32.5217 102.824 32.9143C103.239 33.307 103.565 33.7839 103.78 34.3129C104.012 35.4832 103.976 36.6908 103.676 37.8454L103.662 37.847Z" fill="white"/>
<path opacity="0.3" d="M103.662 37.847L103.553 37.4392C103.459 37.171 103.333 36.915 103.178 36.6764L102.976 36.3856C102.747 36.1127 102.482 35.8736 102.186 35.6753C101.427 35.2023 100.626 34.7996 99.7927 34.472L94.6224 32.143C92.9063 31.4723 91.2323 30.6983 89.6098 29.8251C89.3423 29.6821 89.1069 29.4858 88.9182 29.2483C88.7295 29.0108 88.5915 28.7372 88.5126 28.4443C88.545 28.29 88.5929 28.1394 88.6555 27.9948C88.7732 27.7326 88.946 27.4988 89.1621 27.3094C89.3783 27.12 89.6328 26.9795 89.9082 26.8973C90.7544 27.3439 91.6311 27.7305 92.5316 28.0541L96.9154 30.0211C98.4042 30.6904 99.904 31.33 101.376 32.0367C101.916 32.2225 102.41 32.5217 102.824 32.9143C103.239 33.307 103.565 33.7839 103.78 34.3129C104.012 35.4832 103.976 36.6908 103.676 37.8454L103.662 37.847Z" fill="#28BE91"/>
<path d="M109.793 35.674C109.681 35.6381 109.568 35.6081 109.453 35.584L109.793 35.674Z" fill="white"/>
<path d="M110.193 35.8738C110.068 35.7914 109.934 35.7243 109.793 35.6738C110.063 35.763 110.321 35.8839 110.563 36.0338C110.573 36.1238 110.453 36.0638 110.193 35.8738Z" fill="white"/>
<path d="M292.477 96.1412C292.463 96.5934 292.35 97.0369 292.144 97.4401C291.933 97.9007 291.601 98.2934 291.389 98.7465C291.798 99.2909 292.338 99.7222 292.96 100C293.208 99.9183 293.43 99.7716 293.603 99.5751C293.776 99.3785 293.893 99.1394 293.942 98.8824C294.068 98.3222 294.018 97.7365 293.798 97.206C293.73 96.9794 293.36 96.7529 293.179 96.617C292.934 96.4708 292.697 96.312 292.469 96.1412H292.477Z" fill="white"/>
<path d="M237.457 70.1051C236.802 70.5133 236.291 71.1149 235.992 71.8268C235.546 72.4771 235.285 73.2368 235.237 74.0243C235.686 74.6029 236.266 75.0662 236.929 75.376C237.38 74.7814 237.739 74.122 237.994 73.4202C238.456 72.8075 238.828 72.1309 239.096 71.4115C238.677 70.8369 238.111 70.3857 237.457 70.1051Z" fill="white"/>
<path d="M276.944 72.0977C276.947 72.1227 276.947 72.1481 276.944 72.1732C276.948 72.1482 276.948 72.1227 276.944 72.0977Z" fill="white"/>
<path d="M276.174 71.7357L276.521 71.7885C276.06 71.6149 275.479 71.6149 276.174 71.7357Z" fill="white"/>
<path d="M243.59 53.7262C243.854 53.6733 244.126 53.6204 244.39 53.5525C244.126 53.6053 243.854 53.6506 243.582 53.6884L243.59 53.7262Z" fill="white"/>
<path d="M244.594 57.1089L244.866 57.1769C244.76 57.0939 244.647 57.0334 244.594 57.1089Z" fill="white"/>
<path d="M241.225 52.5106V52.5635L241.859 52.4729C241.648 52.4955 241.437 52.5031 241.225 52.5106Z" fill="white"/>
<path d="M243.635 52.0717C243.065 52.269 242.475 52.4032 241.876 52.4719L241.242 52.5625C241.262 52.9798 241.32 53.3943 241.415 53.801C242.145 53.8168 242.874 53.7789 243.598 53.6877C243.569 53.1489 243.582 52.6086 243.635 52.0717Z" fill="white"/>
<path d="M243.635 52.0565C243.787 50.7105 244.039 49.3777 244.39 48.0694C245.079 45.2592 246.181 42.5667 247.66 40.08C249.064 37.7164 250.877 35.0357 253.421 33.7972C254.005 33.5094 254.633 33.323 255.279 33.246C255.623 33.2122 255.97 33.2122 256.314 33.246H256.457C256.213 32.9406 255.943 32.6576 255.649 32.4002C255.001 32.1465 254.313 32.011 253.618 32C250.446 32 248.173 34.643 246.482 37.0141C244.675 39.5624 243.29 42.385 242.381 45.3735C241.929 46.8545 241.598 48.3698 241.392 49.9044C241.259 50.7534 241.206 51.613 241.233 52.4719C241.445 52.4719 241.656 52.4719 241.868 52.4719C242.464 52.3677 243.054 52.229 243.635 52.0565Z" fill="white"/>
<path d="M241.225 52.5635C240.474 52.6567 239.716 52.687 238.96 52.6541C237.905 52.6342 236.861 52.4377 235.871 52.0726C235.316 51.9359 234.773 51.754 234.248 51.5289C236.291 52.8337 238.626 53.6121 241.044 53.7944H241.414C241.314 53.3906 241.251 52.9786 241.225 52.5635Z" fill="white"/>
<path opacity="0.2" d="M241.225 52.5635C240.474 52.6567 239.716 52.687 238.96 52.6541C237.905 52.6342 236.861 52.4377 235.871 52.0726C235.316 51.9359 234.773 51.754 234.248 51.5289C236.291 52.8337 238.626 53.6121 241.044 53.7944H241.414C241.314 53.3906 241.251 52.9786 241.225 52.5635Z" fill="black"/>
<path d="M243.582 53.6882C242.858 53.7794 242.129 53.8172 241.399 53.8014C241.399 53.8543 241.399 53.8996 241.437 53.9525C242.159 53.9301 242.879 53.8544 243.589 53.7259L243.582 53.6882Z" fill="white"/>
<path d="M256.645 33.2761C256.58 33.2254 256.522 33.1671 256.471 33.1024C257.226 33.4195 257.445 33.5177 257.03 33.3969C256.903 33.362 256.775 33.3343 256.645 33.3138C256.788 33.4452 256.922 33.5865 257.045 33.7367C257.254 34.0261 257.415 34.3474 257.521 34.6882C257.733 35.3718 257.792 36.0936 257.695 36.8026C257.362 39.6117 255.535 42.1867 253.874 44.354C252.135 46.7577 249.954 48.8079 247.447 50.3951C246.305 51.0824 245.086 51.6324 243.815 52.0338L243.619 52.1093C243.578 52.6472 243.578 53.1874 243.619 53.7253C243.891 53.7253 244.163 53.6422 244.427 53.5894C244.691 53.5365 245.061 53.4308 245.371 53.3326C245.061 53.4308 244.744 53.5138 244.427 53.5894C249.509 52.6228 253.783 48.9377 256.773 44.7467C258.442 42.4208 260.662 39.2643 259.975 36.2287C259.809 35.6101 259.51 35.035 259.099 34.5434C258.688 34.0518 258.176 33.6555 257.596 33.3818C256.983 33.0201 256.341 32.707 255.678 32.4454C255.965 32.6914 256.231 32.9618 256.471 33.2534L256.645 33.2761Z" fill="white"/>
<path opacity="0.2" d="M256.645 33.2761C256.58 33.2254 256.522 33.1671 256.471 33.1024C257.226 33.4195 257.445 33.5177 257.03 33.3969C256.903 33.362 256.775 33.3343 256.645 33.3138C256.788 33.4452 256.922 33.5865 257.045 33.7367C257.254 34.0261 257.415 34.3474 257.521 34.6882C257.733 35.3718 257.792 36.0936 257.695 36.8026C257.362 39.6117 255.535 42.1867 253.874 44.354C252.135 46.7577 249.954 48.8079 247.447 50.3951C246.305 51.0824 245.086 51.6324 243.815 52.0338L243.619 52.1093C243.578 52.6472 243.578 53.1874 243.619 53.7253C243.891 53.7253 244.163 53.6422 244.427 53.5894C244.691 53.5365 245.061 53.4308 245.371 53.3326C245.061 53.4308 244.744 53.5138 244.427 53.5894C249.509 52.6228 253.783 48.9377 256.773 44.7467C258.442 42.4208 260.662 39.2643 259.975 36.2287C259.809 35.6101 259.51 35.035 259.099 34.5434C258.688 34.0518 258.176 33.6555 257.596 33.3818C256.983 33.0201 256.341 32.707 255.678 32.4454C255.965 32.6914 256.231 32.9618 256.471 33.2534L256.645 33.2761Z" fill="#28BE91"/>
<path d="M234.898 51.5503C233.81 50.7635 232.882 49.7768 232.164 48.643C231.429 47.4989 230.945 46.212 230.744 44.8673C230.744 44.6709 230.072 44.4217 229.914 44.3387C229.755 44.2556 229 43.9687 229 43.9762C229.127 45.3031 229.54 46.5868 230.21 47.7391C230.88 48.8914 231.791 49.885 232.881 50.6517C233.312 50.9688 233.757 51.2784 234.226 51.5578C234.751 51.7829 235.294 51.9647 235.849 52.1015C235.511 51.9559 235.192 51.7709 234.898 51.5503Z" fill="white"/>
<path d="M241.859 52.4719C242.459 52.4032 243.049 52.269 243.619 52.0717C243.041 52.2388 242.453 52.3724 241.859 52.4719Z" fill="white"/>
<path d="M257.039 33.3594C257.454 33.4802 257.265 33.3594 256.48 33.0649C256.526 33.1424 256.582 33.2135 256.646 33.2763C256.778 33.2965 256.91 33.3242 257.039 33.3594Z" fill="white"/>
<path d="M243.635 52.0572L243.832 51.9817L243.635 52.0572Z" fill="white"/>
<path d="M276.453 71.3047C276.272 70.6141 276.272 69.8885 276.453 69.1979C276.848 67.7974 277.414 66.4507 278.137 65.1881C278.848 63.8353 279.388 62.3997 279.746 60.914C280.182 59.1031 279.929 57.1948 279.036 55.56C278.18 54.7121 277.177 54.0264 276.076 53.5363C276.244 53.7199 276.4 53.9141 276.544 54.1177C278.507 56.9419 277.344 60.6195 276.008 63.4286C275.041 65.475 272.625 69.0468 274.671 71.0857C275.307 71.3952 275.992 71.592 276.695 71.6672C276.594 71.5614 276.512 71.4387 276.453 71.3047Z" fill="white"/>
<path d="M295.309 70.8602C295.324 70.8797 295.342 70.8974 295.361 70.9131H295.429C295.822 70.966 295.075 70.6035 295.309 70.8602Z" fill="white"/>
<path d="M298.555 72.7546C298.351 72.5583 298.147 72.3695 297.928 72.1958C295.822 70.4268 293.193 69.3976 290.445 69.2659C287.424 69.2659 284.585 70.3533 281.708 71.1311C280.11 71.6275 278.442 71.8571 276.769 71.8107C276.84 71.8978 276.899 71.9944 276.943 72.0977C276.947 72.1227 276.947 72.1482 276.943 72.1732C276.947 72.1481 276.947 72.1227 276.943 72.0977C276.897 72.0204 276.836 71.9531 276.763 71.9C276.69 71.8468 276.608 71.8087 276.52 71.7881L276.173 71.7352C275.478 71.6068 276.06 71.6068 276.52 71.7881H276.694H276.769C276.769 71.7352 276.701 71.6899 276.671 71.6446C275.968 71.5694 275.283 71.3726 274.647 71.0631C274.773 71.1905 274.909 71.3068 275.055 71.4105C276.291 72.3544 277.766 72.9326 279.314 73.0794C281.019 73.0859 282.715 72.8313 284.343 72.3242C287.53 71.4483 290.777 70.1343 294.16 70.6176C294.538 70.678 294.991 70.8743 295.369 70.9046C295.349 70.8889 295.331 70.8712 295.316 70.8517C295.082 70.5647 295.829 70.9272 295.436 70.9121H295.369C295.475 71.006 295.589 71.0918 295.708 71.1689C296.751 71.5086 297.718 72.0471 298.555 72.7546Z" fill="white"/>
<path opacity="0.2" d="M298.555 72.7546C298.351 72.5583 298.147 72.3695 297.928 72.1958C295.822 70.4268 293.193 69.3976 290.445 69.2659C287.424 69.2659 284.585 70.3533 281.708 71.1311C280.11 71.6275 278.442 71.8571 276.769 71.8107C276.84 71.8978 276.899 71.9944 276.943 72.0977C276.947 72.1227 276.947 72.1482 276.943 72.1732C276.947 72.1481 276.947 72.1227 276.943 72.0977C276.897 72.0204 276.836 71.9531 276.763 71.9C276.69 71.8468 276.608 71.8087 276.52 71.7881L276.173 71.7352C275.478 71.6068 276.06 71.6068 276.52 71.7881H276.694H276.769C276.769 71.7352 276.701 71.6899 276.671 71.6446C275.968 71.5694 275.283 71.3726 274.647 71.0631C274.773 71.1905 274.909 71.3068 275.055 71.4105C276.291 72.3544 277.766 72.9326 279.314 73.0794C281.019 73.0859 282.715 72.8313 284.343 72.3242C287.53 71.4483 290.777 70.1343 294.16 70.6176C294.538 70.678 294.991 70.8743 295.369 70.9046C295.349 70.8889 295.331 70.8712 295.316 70.8517C295.082 70.5647 295.829 70.9272 295.436 70.9121H295.369C295.475 71.006 295.589 71.0918 295.708 71.1689C296.751 71.5086 297.718 72.0471 298.555 72.7546Z" fill="#28BE91"/>
<path d="M276.521 71.7879C276.609 71.8086 276.691 71.8466 276.764 71.8998C276.837 71.953 276.898 72.0203 276.944 72.0976C276.9 71.9943 276.841 71.8977 276.77 71.8106H276.695L276.521 71.7879Z" fill="white"/>
<path d="M305.028 91.9513C305.149 92.0796 305.262 92.208 305.375 92.3515C304.258 91.8607 303.963 91.6945 304.484 91.8455C304.607 91.8848 304.734 91.9126 304.862 91.9286H305.028C304.647 91.5544 304.314 91.1332 304.039 90.6751C303.683 89.9754 303.415 89.2349 303.238 88.4701C302.483 85.2985 302.483 81.991 301.728 78.8118C301.239 76.5331 300.138 74.4311 298.541 72.7329C297.699 72.0353 296.73 71.5071 295.687 71.1773L295.755 71.2378C296.312 71.7267 296.806 72.2821 297.228 72.8915C298.066 74.1289 298.686 75.5003 299.062 76.9466C300.022 80.4127 299.818 84.0902 300.754 87.5186C301.063 88.9149 301.809 90.1765 302.884 91.1206C303.917 91.9384 305.088 92.5649 306.342 92.9707C305.909 92.6461 305.502 92.2875 305.126 91.8984L305.028 91.9513Z" fill="white"/>
<path d="M304.483 91.8447C303.962 91.6937 304.257 91.8447 305.374 92.3506C305.261 92.2072 305.148 92.0788 305.027 91.9504H304.861C304.732 91.927 304.606 91.8916 304.483 91.8447Z" fill="white"/>
<path d="M244.866 57.1768L244.594 57.1088C244.647 57.0333 244.76 57.1088 244.866 57.1768L245.024 57.2145C244.926 57.056 244.745 56.9276 244.632 56.7766C243.987 55.8995 243.628 54.8446 243.605 53.756C242.894 53.8845 242.175 53.9602 241.453 53.9825C241.54 54.3091 241.661 54.6256 241.815 54.9265C242.363 55.8856 243.183 56.6608 244.171 57.1541C244.471 57.2602 244.779 57.341 245.092 57.3958C245.023 57.3167 244.947 57.2434 244.866 57.1768Z" fill="white"/>
<path d="M279.013 55.5606C278.627 54.9082 278.114 54.3406 277.503 53.8917C275.471 52.3805 273.026 51.5244 270.495 51.4375C267.543 51.4734 264.607 51.8844 261.758 52.6608C258.514 53.469 255.346 54.5554 252.289 55.9079C250.736 56.6778 249.068 57.188 247.35 57.4182C247.056 57.4371 246.761 57.4371 246.467 57.4182C246.015 57.4498 245.561 57.4244 245.115 57.3427C245.115 57.388 245.115 57.3427 245.07 57.3427C244.756 57.288 244.448 57.2071 244.148 57.1011C244.345 57.2143 244.549 57.3201 244.753 57.4258C245.993 58.1444 247.379 58.5753 248.808 58.6869C252.221 58.8001 255.438 56.6782 258.541 55.5379C261.987 54.2697 265.559 53.3785 269.196 52.8798C270.636 52.6459 272.098 52.5775 273.554 52.6759C274.227 52.725 274.893 52.8465 275.54 53.0384L275.404 52.9327L275.653 53.046C275.97 53.1894 275.978 53.197 275.653 53.0837L275.54 53.046L275.728 53.2045L276.046 53.5217C277.15 54.0155 278.156 54.7064 279.013 55.5606Z" fill="white"/>
<path opacity="0.2" d="M279.013 55.5606C278.627 54.9082 278.114 54.3406 277.503 53.8917C275.471 52.3805 273.026 51.5244 270.495 51.4375C267.543 51.4734 264.607 51.8844 261.758 52.6608C258.514 53.469 255.346 54.5554 252.289 55.9079C250.736 56.6778 249.068 57.188 247.35 57.4182C247.056 57.4371 246.761 57.4371 246.467 57.4182C246.015 57.4498 245.561 57.4244 245.115 57.3427C245.115 57.388 245.115 57.3427 245.07 57.3427C244.756 57.288 244.448 57.2071 244.148 57.1011C244.345 57.2143 244.549 57.3201 244.753 57.4258C245.993 58.1444 247.379 58.5753 248.808 58.6869C252.221 58.8001 255.438 56.6782 258.541 55.5379C261.987 54.2697 265.559 53.3785 269.196 52.8798C270.636 52.6459 272.098 52.5775 273.554 52.6759C274.227 52.725 274.893 52.8465 275.54 53.0384L275.404 52.9327L275.653 53.046C275.97 53.1894 275.978 53.197 275.653 53.0837L275.54 53.046L275.728 53.2045L276.046 53.5217C277.15 54.0155 278.156 54.7064 279.013 55.5606Z" fill="#28BE91"/>
<path d="M245.076 57.3652H245.144L245.046 57.2067L244.887 57.1689C244.955 57.2298 245.018 57.2954 245.076 57.3652Z" fill="white"/>
<path d="M245.146 57.3724H245.1C245.146 57.4031 245.146 57.4184 245.146 57.3724Z" fill="white"/>
<path d="M275.683 53.1062C275.985 53.2195 275.977 53.2119 275.683 53.0684L275.434 52.9552L275.57 53.0609L275.683 53.1062Z" fill="white"/>
<path d="M246.474 57.4487C246.201 57.4423 245.929 57.417 245.659 57.3732C245.583 57.3732 245.289 57.2826 245.024 57.2146L245.123 57.3732C245.568 57.4549 246.022 57.4803 246.474 57.4487Z" fill="white"/>
</svg>
