<svg width="17" height="15" viewBox="0 0 17 15" fill="none" xmlns="http://www.w3.org/2000/svg">
<g clip-path="url(#clip0_918_37732)">
<path d="M0 7.76834L3.29193 10.6539V4.88281L0 7.76834Z" fill="url(#paint0_linear_918_37732)"/>
<path d="M4.17328 15.0007L8.31817 13.5926L3.32031 10.707L4.17328 15.0007Z" fill="url(#paint1_linear_918_37732)"/>
<path d="M12.5277 15.0007L13.3807 10.707L8.38281 13.5926L12.5277 15.0007Z" fill="url(#paint2_linear_918_37732)"/>
<path d="M16.706 7.76834L13.4141 4.88281V10.6539L16.706 7.76834Z" fill="url(#paint3_linear_918_37732)"/>
<path d="M12.5277 0.535156L8.38281 1.94326L13.3807 4.82879L12.5277 0.535156Z" fill="url(#paint4_linear_918_37732)"/>
<path d="M4.17328 0.535156L3.32031 4.82888L8.31817 1.94335L4.17328 0.535156Z" fill="url(#paint5_linear_918_37732)"/>
<path d="M0 7.76953L3.29201 10.6551V7.76953H0Z" fill="url(#paint6_linear_918_37732)"/>
<path d="M4.17188 14.9993L8.31677 13.5912L5.81784 12.1484L4.17188 14.9993Z" fill="url(#paint7_linear_918_37732)"/>
<path d="M12.5288 15.0007L13.3817 10.707L10.8828 12.1498L12.5288 15.0007Z" fill="url(#paint8_linear_918_37732)"/>
<path d="M16.7061 7.76834L13.4141 4.88281V7.76834H16.7061Z" fill="url(#paint9_linear_918_37732)"/>
<path d="M12.5277 0.535156L8.38281 1.94326L10.8817 3.38603L12.5277 0.535156Z" fill="url(#paint10_linear_918_37732)"/>
<path d="M4.17328 0.535156L3.32031 4.82879L5.81924 3.38603L4.17328 0.535156Z" fill="url(#paint11_linear_918_37732)"/>
<path d="M8.35477 13.7486C11.6573 13.7486 14.3345 11.0714 14.3345 7.76884C14.3345 4.4663 11.6573 1.78906 8.35477 1.78906C5.05223 1.78906 2.375 4.4663 2.375 7.76884C2.375 11.0714 5.05223 13.7486 8.35477 13.7486Z" fill="url(#paint12_linear_918_37732)"/>
<path d="M8.3469 12.5219C10.972 12.5219 13.1001 10.3939 13.1001 7.76878C13.1001 5.14368 10.972 3.01562 8.3469 3.01562C5.72181 3.01562 3.59375 5.14368 3.59375 7.76878C3.59375 10.3939 5.72181 12.5219 8.3469 12.5219Z" fill="url(#paint13_linear_918_37732)"/>
<path d="M8.34883 11.6C10.4659 11.6 12.182 9.88382 12.182 7.7668C12.182 5.64978 10.4659 3.93359 8.34883 3.93359C6.23181 3.93359 4.51562 5.64978 4.51562 7.7668C4.51562 9.88382 6.23181 11.6 8.34883 11.6Z" fill="url(#paint14_linear_918_37732)"/>
<g filter="url(#filter0_d_918_37732)">
<path d="M7.10156 9.05932H7.96998V6.73453H7.21698V6.12995C7.6567 6.0476 7.9425 5.93761 8.22821 5.76172H8.9483V9.05932H9.68476V9.85082H7.10156V9.05932Z" fill="#E5920E"/>
</g>
</g>
<defs>
<filter id="filter0_d_918_37732" x="6.10156" y="5.76172" width="4.58301" height="6.08984" filterUnits="userSpaceOnUse" color-interpolation-filters="sRGB">
<feFlood flood-opacity="0" result="BackgroundImageFix"/>
<feColorMatrix in="SourceAlpha" type="matrix" values="0 0 0 0 0 0 0 0 0 0 0 0 0 0 0 0 0 0 127 0" result="hardAlpha"/>
<feOffset dy="1"/>
<feGaussianBlur stdDeviation="0.5"/>
<feComposite in2="hardAlpha" operator="out"/>
<feColorMatrix type="matrix" values="0 0 0 0 0 0 0 0 0 0 0 0 0 0 0 0 0 0 0.25 0"/>
<feBlend mode="normal" in2="BackgroundImageFix" result="effect1_dropShadow_918_37732"/>
<feBlend mode="normal" in="SourceGraphic" in2="effect1_dropShadow_918_37732" result="shape"/>
</filter>
<linearGradient id="paint0_linear_918_37732" x1="1.91486" y1="8.56401" x2="3.40921" y2="4.9677" gradientUnits="userSpaceOnUse">
<stop offset="0.2852" stop-color="#EFA716"/>
<stop offset="0.8758" stop-color="#FFD757"/>
</linearGradient>
<linearGradient id="paint1_linear_918_37732" x1="5.30837" y1="13.1032" x2="3.47316" y2="10.7667" gradientUnits="userSpaceOnUse">
<stop stop-color="#EFA716"/>
<stop offset="1" stop-color="#FFD757"/>
</linearGradient>
<linearGradient id="paint2_linear_918_37732" x1="10.0283" y1="14.5259" x2="11.679" y2="13.5826" gradientUnits="userSpaceOnUse">
<stop stop-color="#FFD757"/>
<stop offset="1" stop-color="#EFA716"/>
</linearGradient>
<linearGradient id="paint3_linear_918_37732" x1="14.9199" y1="7.90221" x2="14.772" y2="9.56568" gradientUnits="userSpaceOnUse">
<stop stop-color="#EFA716"/>
<stop offset="1" stop-color="#FFD757"/>
</linearGradient>
<linearGradient id="paint4_linear_918_37732" x1="11.1118" y1="5.12835" x2="10.6073" y2="1.30757" gradientUnits="userSpaceOnUse">
<stop offset="0.1242" stop-color="#FFD757"/>
<stop offset="0.7148" stop-color="#EFA716"/>
</linearGradient>
<linearGradient id="paint5_linear_918_37732" x1="3.32035" y1="2.68203" x2="8.31819" y2="2.68203" gradientUnits="userSpaceOnUse">
<stop offset="0.2852" stop-color="#EFA716"/>
<stop offset="0.8758" stop-color="#FFD757"/>
</linearGradient>
<linearGradient id="paint6_linear_918_37732" x1="1.08341e-05" y1="9.21228" x2="3.29197" y2="9.21228" gradientUnits="userSpaceOnUse">
<stop stop-color="#FEF7A5"/>
<stop offset="1" stop-color="#F1CD59"/>
</linearGradient>
<linearGradient id="paint7_linear_918_37732" x1="4.17188" y1="13.5739" x2="8.31677" y2="13.5739" gradientUnits="userSpaceOnUse">
<stop stop-color="#FEF7A5"/>
<stop offset="1" stop-color="#F1CD59"/>
</linearGradient>
<linearGradient id="paint8_linear_918_37732" x1="10.8828" y1="12.8539" x2="13.3817" y2="12.8539" gradientUnits="userSpaceOnUse">
<stop stop-color="#FEF7A5"/>
<stop offset="1" stop-color="#F1CD59"/>
</linearGradient>
<linearGradient id="paint9_linear_918_37732" x1="12.7819" y1="5.9517" x2="16.6578" y2="8.24408" gradientUnits="userSpaceOnUse">
<stop offset="0.2895" stop-color="#F1CD59"/>
<stop offset="1" stop-color="#FEF7A5"/>
</linearGradient>
<linearGradient id="paint10_linear_918_37732" x1="8.79946" y1="2.99469" x2="13.3433" y2="1.19405" gradientUnits="userSpaceOnUse">
<stop offset="0.2261" stop-color="#F1CD59"/>
<stop offset="1" stop-color="#FEF7A5"/>
</linearGradient>
<linearGradient id="paint11_linear_918_37732" x1="5.36922" y1="1.16927" x2="3.83046" y2="4.43417" gradientUnits="userSpaceOnUse">
<stop stop-color="#FEF7A5"/>
<stop offset="1" stop-color="#F1CD59"/>
</linearGradient>
<linearGradient id="paint12_linear_918_37732" x1="8.35477" y1="13.7486" x2="8.35477" y2="1.78909" gradientUnits="userSpaceOnUse">
<stop stop-color="#FFA517"/>
<stop offset="1" stop-color="#FFCE42"/>
</linearGradient>
<linearGradient id="paint13_linear_918_37732" x1="8.3469" y1="12.5219" x2="8.3469" y2="3.01564" gradientUnits="userSpaceOnUse">
<stop offset="0.008" stop-color="#F8C200"/>
<stop offset="1" stop-color="#F8D926"/>
</linearGradient>
<linearGradient id="paint14_linear_918_37732" x1="8.34883" y1="11.6" x2="8.34883" y2="3.93363" gradientUnits="userSpaceOnUse">
<stop stop-color="#FEDB33"/>
<stop offset="1" stop-color="#FFF83D"/>
</linearGradient>
<clipPath id="clip0_918_37732">
<rect width="16.7035" height="15" fill="white"/>
</clipPath>
</defs>
</svg>
