<svg width="24" height="24" viewBox="0 0 24 24" fill="none" xmlns="http://www.w3.org/2000/svg">
<path d="M12.75 8.95C12.75 8.53579 12.4142 8.2 12 8.2C11.5858 8.2 11.25 8.53579 11.25 8.95H12.75ZM9.8043 14.3106C9.52015 14.612 9.53412 15.0866 9.8355 15.3708C10.1369 15.6549 10.6116 15.641 10.8957 15.3396L9.8043 14.3106ZM11.4552 13.6528L10.9095 13.1383L11.4552 13.6528ZM11.25 8.95V12.2808H12.75V8.95H11.25ZM10.8957 15.3396L12.0009 14.1673L10.9095 13.1383L9.8043 14.3106L10.8957 15.3396ZM19.5 12.25C19.5 16.3921 16.1421 19.75 12 19.75V21.25C16.9706 21.25 21 17.2206 21 12.25H19.5ZM12 19.75C7.85786 19.75 4.5 16.3921 4.5 12.25H3C3 17.2206 7.02944 21.25 12 21.25V19.75ZM4.5 12.25C4.5 8.10786 7.85786 4.75 12 4.75V3.25C7.02944 3.25 3 7.27944 3 12.25H4.5ZM12 4.75C16.1421 4.75 19.5 8.10786 19.5 12.25H21C21 7.27944 16.9706 3.25 12 3.25V4.75ZM11.25 12.2808C11.25 12.5996 11.1282 12.9064 10.9095 13.1383L12.0009 14.1673C12.482 13.657 12.75 12.9822 12.75 12.2808H11.25Z" fill="#2D264B"/>
</svg>
