<svg width="24" height="25" viewBox="0 0 24 25" fill="none" xmlns="http://www.w3.org/2000/svg">
<path d="M1 12.0266C1 11.1867 1 10.4613 1.01215 9.82656C1.04457 8.13342 1.16345 7.08533 1.59946 6.22961C2.12677 5.19472 2.96816 4.35333 4.00305 3.82603C5.17957 3.22656 6.71971 3.22656 9.8 3.22656H14.2C17.2803 3.22656 18.8204 3.22656 19.9969 3.82603C21.0318 4.35333 21.8732 5.19472 22.4005 6.22961C22.8365 7.08533 22.9554 8.13342 22.9878 9.82656C23 10.4613 23 11.1867 23 12.0266C23 15.1069 23 16.647 22.4005 17.8235C21.8732 18.8584 21.0318 19.6998 19.9969 20.2271C18.8204 20.8266 17.2803 20.8266 14.2 20.8266H9.8C6.71971 20.8266 5.17957 20.8266 4.00305 20.2271C2.96816 19.6998 2.12677 18.8584 1.59946 17.8235C1 16.647 1 15.1069 1 12.0266Z" fill="#E94335"/>
<path d="M15.3 17.5266H10.9M7.6 17.5266H5.4M1.01215 9.82656C1 10.4613 1 11.1867 1 12.0266C1 15.1069 1 16.647 1.59946 17.8235C2.12677 18.8584 2.96816 19.6998 4.00305 20.2271C5.17957 20.8266 6.71971 20.8266 9.8 20.8266H14.2C17.2803 20.8266 18.8204 20.8266 19.9969 20.2271C21.0318 19.6998 21.8732 18.8584 22.4005 17.8235C23 16.647 23 15.1069 23 12.0266C23 11.1867 23 10.4613 22.9878 9.82656M1.01215 9.82656C1.04457 8.13342 1.16345 7.08533 1.59946 6.22961C2.12677 5.19472 2.96816 4.35333 4.00305 3.82603C5.17957 3.22656 6.71971 3.22656 9.8 3.22656H14.2C17.2803 3.22656 18.8204 3.22656 19.9969 3.82603C21.0318 4.35333 21.8732 5.19472 22.4005 6.22961C22.8365 7.08533 22.9554 8.13342 22.9878 9.82656M1.01215 9.82656H22.9878" stroke="#E94335" stroke-width="1.3"/>
<path d="M1.01172 9.82617H22.9874" stroke="white" stroke-width="1.3"/>
<path d="M15.2994 17.5254H10.8994M7.59941 17.5254H5.39941" stroke="white" stroke-width="1.3" stroke-linecap="round"/>
<mask id="mask0_368_21201" style="mask-type:alpha" maskUnits="userSpaceOnUse" x="0" y="2" width="24" height="20">
<path d="M1 12.0273C1 11.1684 1 10.4265 1.01215 9.77734C1.04457 8.04572 1.16345 6.97382 1.59946 6.09865C2.12677 5.04024 2.96816 4.17972 4.00305 3.64043C5.17957 3.02734 6.71971 3.02734 9.8 3.02734H14.2C17.2803 3.02734 18.8204 3.02734 19.9969 3.64043C21.0318 4.17972 21.8732 5.04024 22.4005 6.09865C22.8365 6.97382 22.9554 8.04572 22.9878 9.77734C23 10.4265 23 11.1684 23 12.0273C23 15.1776 23 16.7528 22.4005 17.956C21.8732 19.0145 21.0318 19.875 19.9969 20.4143C18.8204 21.0273 17.2803 21.0273 14.2 21.0273H9.8C6.71971 21.0273 5.17957 21.0273 4.00305 20.4143C2.96816 19.875 2.12677 19.0145 1.59946 17.956C1 16.7528 1 15.1776 1 12.0273Z" fill="#E94335"/>
<path d="M15.3 17.6523H10.9M7.6 17.6523H5.4M1.01215 9.77734C1 10.4265 1 11.1684 1 12.0273C1 15.1776 1 16.7528 1.59946 17.956C2.12677 19.0145 2.96816 19.875 4.00305 20.4143C5.17957 21.0273 6.71971 21.0273 9.8 21.0273H14.2C17.2803 21.0273 18.8204 21.0273 19.9969 20.4143C21.0318 19.875 21.8732 19.0145 22.4005 17.956C23 16.7528 23 15.1776 23 12.0273C23 11.1684 23 10.4265 22.9878 9.77734M1.01215 9.77734C1.04457 8.04572 1.16345 6.97382 1.59946 6.09865C2.12677 5.04024 2.96816 4.17972 4.00305 3.64043C5.17957 3.02734 6.71971 3.02734 9.8 3.02734H14.2C17.2803 3.02734 18.8204 3.02734 19.9969 3.64043C21.0318 4.17972 21.8732 5.04024 22.4005 6.09865C22.8365 6.97382 22.9554 8.04572 22.9878 9.77734M1.01215 9.77734H22.9878" stroke="#E94335" stroke-width="1.3"/>
</mask>
<g mask="url(#mask0_368_21201)">
<rect y="9.02734" width="24" height="3" fill="#00060C"/>
</g>
</svg>
