<svg width="24" height="25" viewBox="0 0 24 25" fill="none" xmlns="http://www.w3.org/2000/svg">
<g clip-path="url(#clip0_368_23024)">
<path d="M9 12.3773C8.64102 12.3773 8.35 12.6684 8.35 13.0273C8.35 13.3863 8.64102 13.6773 9 13.6773V12.3773ZM15 13.6773C15.359 13.6773 15.65 13.3863 15.65 13.0273C15.65 12.6684 15.359 12.3773 15 12.3773V13.6773ZM11.35 16.0273C11.35 16.3863 11.641 16.6773 12 16.6773C12.359 16.6773 12.65 16.3863 12.65 16.0273H11.35ZM12.65 10.0273C12.65 9.66836 12.359 9.37734 12 9.37734C11.641 9.37734 11.35 9.66836 11.35 10.0273H12.65ZM5.06107 21.0724L5.44313 20.5466L5.06107 21.0724ZM3.95491 19.9663L4.48078 19.5842L3.95491 19.9663ZM20.0451 19.9663L19.5192 19.5842L20.0451 19.9663ZM18.9389 21.0724L18.5569 20.5466L18.9389 21.0724ZM18.9389 4.98226L18.5569 5.50812L18.9389 4.98226ZM20.0451 6.08842L19.5192 6.47048L20.0451 6.08842ZM5.06107 4.98226L5.44313 5.50812L5.06107 4.98226ZM3.95491 6.08842L4.48078 6.47048L3.95491 6.08842ZM15.5451 1.27206L15.3443 1.89025V1.89025L15.5451 1.27206ZM18.7553 4.48226L18.1371 4.68312V4.68312L18.7553 4.48226ZM8.45497 1.27206L8.65583 1.89025V1.89025L8.45497 1.27206ZM5.24477 4.48226L5.86296 4.68312L5.24477 4.48226ZM9 13.6773H15V12.3773H9V13.6773ZM12.65 16.0273V10.0273H11.35V16.0273H12.65ZM12 21.3773C10.1107 21.3773 8.74586 21.3765 7.68727 21.2618C6.64085 21.1484 5.97103 20.9301 5.44313 20.5466L4.67901 21.5983C5.46545 22.1697 6.39022 22.4288 7.54725 22.5542C8.69211 22.6782 10.1396 22.6773 12 22.6773V21.3773ZM2.35 13.0273C2.35 14.8877 2.34911 16.3352 2.47315 17.4801C2.5985 18.6371 2.85767 19.5619 3.42905 20.3483L4.48078 19.5842C4.09724 19.0563 3.87896 18.3865 3.76558 17.3401C3.65089 16.2815 3.65 14.9167 3.65 13.0273H2.35ZM5.44313 20.5466C5.07384 20.2783 4.74908 19.9535 4.48078 19.5842L3.42905 20.3483C3.77754 20.828 4.19936 21.2498 4.67901 21.5983L5.44313 20.5466ZM20.35 13.0273C20.35 14.9167 20.3491 16.2815 20.2344 17.3401C20.121 18.3865 19.9028 19.0563 19.5192 19.5842L20.5709 20.3483C21.1423 19.5619 21.4015 18.6371 21.5269 17.4801C21.6509 16.3352 21.65 14.8877 21.65 13.0273H20.35ZM12 22.6773C13.8604 22.6773 15.3079 22.6782 16.4528 22.5542C17.6098 22.4288 18.5346 22.1697 19.321 21.5983L18.5569 20.5466C18.029 20.9301 17.3591 21.1484 16.3127 21.2618C15.2541 21.3765 13.8893 21.3773 12 21.3773V22.6773ZM19.5192 19.5842C19.2509 19.9535 18.9262 20.2783 18.5569 20.5466L19.321 21.5983C19.8006 21.2498 20.2225 20.828 20.5709 20.3483L19.5192 19.5842ZM21.65 13.0273C21.65 11.167 21.6509 9.71945 21.5269 8.57459C21.4015 7.41756 21.1423 6.49279 20.5709 5.70636L19.5192 6.47048C19.9028 6.99837 20.121 7.6682 20.2344 8.71462C20.3491 9.7732 20.35 11.138 20.35 13.0273H21.65ZM18.5569 5.50812C18.9262 5.77643 19.2509 6.10119 19.5192 6.47048L20.5709 5.70636C20.2225 5.2267 19.8006 4.80489 19.321 4.4564L18.5569 5.50812ZM3.65 13.0273C3.65 11.138 3.65089 9.7732 3.76558 8.71462C3.87896 7.6682 4.09724 6.99837 4.48078 6.47048L3.42905 5.70636C2.85767 6.49279 2.5985 7.41756 2.47315 8.57459C2.34911 9.71945 2.35 11.167 2.35 13.0273H3.65ZM4.67901 4.4564C4.19936 4.80489 3.77754 5.2267 3.42905 5.70636L4.48078 6.47048C4.74908 6.10119 5.07384 5.77643 5.44313 5.50812L4.67901 4.4564ZM12.0001 1.67734C13.9119 1.67734 14.7137 1.68536 15.3443 1.89025L15.746 0.653874C14.8702 0.369324 13.8107 0.377344 12.0001 0.377344V1.67734ZM15.3443 1.89025C16.6686 2.32054 17.7069 3.35881 18.1371 4.68312L19.3735 4.2814C18.8146 2.56132 17.4661 1.21276 15.746 0.653874L15.3443 1.89025ZM12.0001 0.377344C10.1894 0.377344 9.12986 0.369325 8.25411 0.653874L8.65583 1.89025C9.2864 1.68536 10.0882 1.67734 12.0001 1.67734V0.377344ZM8.25411 0.653874C6.53403 1.21276 5.18547 2.56132 4.62658 4.2814L5.86296 4.68312C6.29325 3.35881 7.33152 2.32054 8.65583 1.89025L8.25411 0.653874ZM5.76924 5.05434C5.79507 4.91845 5.82606 4.79668 5.86296 4.68312L4.62658 4.2814C4.57107 4.45226 4.52709 4.62757 4.49211 4.81155L5.76924 5.05434ZM12 3.37734C10.1717 3.37734 8.74268 3.37653 7.60848 3.494C6.46422 3.61252 5.54435 3.85719 4.76125 4.39813L5.50011 5.46775C6.028 5.1031 6.70077 4.89497 7.74241 4.78709C8.79412 4.67816 10.1443 4.67734 12 4.67734V3.37734ZM4.76125 4.39813C4.73362 4.41722 4.70621 4.43664 4.67901 4.4564L5.44313 5.50812C5.46199 5.49442 5.48098 5.48096 5.50011 5.46775L4.76125 4.39813ZM19.508 4.81165C19.473 4.62763 19.429 4.45229 19.3735 4.2814L18.1371 4.68312C18.1741 4.7967 18.205 4.91849 18.2309 5.05441L19.508 4.81165ZM12 4.67734C13.8558 4.67734 15.206 4.67816 16.2577 4.7871C17.2993 4.89499 17.9721 5.10314 18.5 5.46782L19.2389 4.39824C18.4558 3.85724 17.5359 3.61254 16.3916 3.49401C15.2574 3.37653 13.8284 3.37734 12 3.37734V4.67734ZM18.5 5.46782C18.5191 5.48101 18.538 5.49444 18.5569 5.50812L19.321 4.4564C19.2938 4.43668 19.2665 4.41729 19.2389 4.39824L18.5 5.46782Z" fill="#576370"/>
</g>
<defs>
<clipPath id="clip0_368_23024">
<rect width="24" height="24" fill="white" transform="translate(0 0.0273438)"/>
</clipPath>
</defs>
</svg>
