<svg width="24" height="25" viewBox="0 0 24 25" fill="none" xmlns="http://www.w3.org/2000/svg">
<path d="M15.5902 1.27206C14.8371 1.02734 13.9064 1.02734 12.0451 1.02734C10.1839 1.02734 9.25322 1.02734 8.50005 1.27206C6.97786 1.76665 5.78445 2.96007 5.28986 4.48226C5.24365 4.62447 5.20617 4.77301 5.17576 4.93294C6.48676 4.02734 8.36105 4.02734 12.0451 4.02734C15.7292 4.02734 17.6035 4.02734 18.9145 4.93303C18.8841 4.77306 18.8466 4.62449 18.8004 4.48226C18.3058 2.96007 17.1124 1.76665 15.5902 1.27206Z" fill="#00060C"/>
<path d="M20.0902 6.08842C19.7818 5.66394 19.4085 5.29066 18.984 4.98226C18.961 4.96556 18.9379 4.94915 18.9145 4.93303M4 6.08842C4.3084 5.66394 4.68169 5.29066 5.10616 4.98226C5.12919 4.96553 5.15238 4.94909 5.17576 4.93294M5.17576 4.93294C5.20617 4.77301 5.24365 4.62447 5.28986 4.48226C5.78445 2.96007 6.97786 1.76665 8.50005 1.27206C9.25322 1.02734 10.1839 1.02734 12.0451 1.02734C13.9064 1.02734 14.8371 1.02734 15.5902 1.27206C17.1124 1.76665 18.3058 2.96007 18.8004 4.48226C18.8466 4.62449 18.8841 4.77306 18.9145 4.93303M5.17576 4.93294C6.48676 4.02734 8.36105 4.02734 12.0451 4.02734C15.7292 4.02734 17.6035 4.02734 18.9145 4.93303" stroke="#00060C" stroke-width="1.3"/>
<path d="M3 13.0273C3 9.27761 3 7.40275 3.95491 6.08842C4.26331 5.66394 4.6366 5.29066 5.06107 4.98226C5.0841 4.96553 5.1073 4.94909 5.13068 4.93294C6.44167 4.02734 8.31596 4.02734 12 4.02734C15.6842 4.02734 17.5584 4.02734 18.8694 4.93303C18.8928 4.94915 18.9159 4.96556 18.9389 4.98226C19.3634 5.29066 19.7367 5.66394 20.0451 6.08842C21 7.40275 21 9.27761 21 13.0273C21 16.7771 21 18.6519 20.0451 19.9663C19.7367 20.3907 19.3634 20.764 18.9389 21.0724C17.6246 22.0273 15.7497 22.0273 12 22.0273C8.25027 22.0273 6.3754 22.0273 5.06107 21.0724C4.6366 20.764 4.26331 20.3907 3.95491 19.9663C3 18.6519 3 16.7771 3 13.0273Z" fill="#E94335"/>
<path d="M5.06107 21.0724L5.44313 20.5466L5.06107 21.0724ZM3.95491 19.9663L4.48078 19.5842L3.95491 19.9663ZM20.0451 19.9663L19.5192 19.5842L20.0451 19.9663ZM18.9389 21.0724L18.5569 20.5466L18.9389 21.0724ZM18.9389 4.98226L18.5569 5.50812L18.9389 4.98226ZM20.0451 6.08842L19.5192 6.47048L20.0451 6.08842ZM5.06107 4.98226L5.44313 5.50812L5.06107 4.98226ZM3.95491 6.08842L4.48078 6.47048L3.95491 6.08842ZM12 21.3773C10.1107 21.3773 8.74586 21.3765 7.68727 21.2618C6.64085 21.1484 5.97103 20.9301 5.44313 20.5466L4.67901 21.5983C5.46545 22.1697 6.39022 22.4288 7.54725 22.5542C8.69211 22.6782 10.1396 22.6773 12 22.6773V21.3773ZM2.35 13.0273C2.35 14.8877 2.34911 16.3352 2.47315 17.4801C2.5985 18.6371 2.85767 19.5619 3.42905 20.3483L4.48078 19.5842C4.09724 19.0563 3.87896 18.3865 3.76558 17.3401C3.65089 16.2815 3.65 14.9167 3.65 13.0273H2.35ZM5.44313 20.5466C5.07384 20.2783 4.74908 19.9535 4.48078 19.5842L3.42905 20.3483C3.77754 20.828 4.19936 21.2498 4.67901 21.5983L5.44313 20.5466ZM20.35 13.0273C20.35 14.9167 20.3491 16.2815 20.2344 17.3401C20.121 18.3865 19.9028 19.0563 19.5192 19.5842L20.5709 20.3483C21.1423 19.5619 21.4015 18.6371 21.5269 17.4801C21.6509 16.3352 21.65 14.8877 21.65 13.0273H20.35ZM12 22.6773C13.8604 22.6773 15.3079 22.6782 16.4528 22.5542C17.6098 22.4288 18.5346 22.1697 19.321 21.5983L18.5569 20.5466C18.029 20.9301 17.3591 21.1484 16.3127 21.2618C15.2541 21.3765 13.8893 21.3773 12 21.3773V22.6773ZM19.5192 19.5842C19.2509 19.9535 18.9262 20.2783 18.5569 20.5466L19.321 21.5983C19.8006 21.2498 20.2225 20.828 20.5709 20.3483L19.5192 19.5842ZM21.65 13.0273C21.65 11.167 21.6509 9.71945 21.5269 8.57459C21.4015 7.41756 21.1423 6.49279 20.5709 5.70636L19.5192 6.47048C19.9028 6.99837 20.121 7.6682 20.2344 8.71462C20.3491 9.7732 20.35 11.138 20.35 13.0273H21.65ZM18.5569 5.50812C18.9262 5.77643 19.2509 6.10119 19.5192 6.47048L20.5709 5.70636C20.2225 5.2267 19.8006 4.80489 19.321 4.4564L18.5569 5.50812ZM3.65 13.0273C3.65 11.138 3.65089 9.7732 3.76558 8.71462C3.87896 7.6682 4.09724 6.99837 4.48078 6.47048L3.42905 5.70636C2.85767 6.49279 2.5985 7.41756 2.47315 8.57459C2.34911 9.71945 2.35 11.167 2.35 13.0273H3.65ZM4.67901 4.4564C4.19936 4.80489 3.77754 5.2267 3.42905 5.70636L4.48078 6.47048C4.74908 6.10119 5.07384 5.77643 5.44313 5.50812L4.67901 4.4564ZM5.76924 5.05434C5.79507 4.91845 5.82606 4.79668 5.86296 4.68312L4.62658 4.2814C4.57107 4.45226 4.52709 4.62757 4.49211 4.81155L5.76924 5.05434ZM12 3.37734C10.1717 3.37734 8.74268 3.37653 7.60848 3.494C6.46422 3.61252 5.54435 3.85719 4.76125 4.39813L5.50011 5.46775C6.028 5.1031 6.70077 4.89497 7.74241 4.78709C8.79412 4.67816 10.1443 4.67734 12 4.67734V3.37734ZM4.76125 4.39813C4.73362 4.41722 4.70621 4.43664 4.67901 4.4564L5.44313 5.50812C5.46199 5.49442 5.48098 5.48096 5.50011 5.46775L4.76125 4.39813ZM19.508 4.81165C19.473 4.62763 19.429 4.45229 19.3735 4.2814L18.1371 4.68312C18.1741 4.7967 18.205 4.91849 18.2309 5.05441L19.508 4.81165ZM12 4.67734C13.8558 4.67734 15.206 4.67816 16.2577 4.7871C17.2993 4.89499 17.9721 5.10314 18.5 5.46782L19.2389 4.39824C18.4558 3.85724 17.5359 3.61254 16.3916 3.49401C15.2574 3.37653 13.8284 3.37734 12 3.37734V4.67734ZM18.5 5.46782C18.5191 5.48101 18.538 5.49444 18.5569 5.50812L19.321 4.4564C19.2938 4.43668 19.2665 4.41729 19.2389 4.39824L18.5 5.46782Z" fill="#E94335"/>
<path d="M9 12.3773C8.64101 12.3773 8.35 12.6684 8.35 13.0273C8.35 13.3863 8.64101 13.6773 9 13.6773V12.3773ZM15 13.6773C15.359 13.6773 15.65 13.3863 15.65 13.0273C15.65 12.6684 15.359 12.3773 15 12.3773V13.6773ZM11.35 16.0273C11.35 16.3863 11.641 16.6773 12 16.6773C12.359 16.6773 12.65 16.3863 12.65 16.0273H11.35ZM12.65 10.0273C12.65 9.66836 12.359 9.37734 12 9.37734C11.641 9.37734 11.35 9.66836 11.35 10.0273H12.65ZM9 13.6773H12V12.3773H9V13.6773ZM12 13.6773H15V12.3773H12V13.6773ZM12.65 16.0273V13.0273H11.35V16.0273H12.65ZM12.65 13.0273V10.0273H11.35V13.0273H12.65Z" fill="white"/>
</svg>
