<svg width="32" height="33" viewBox="0 0 32 33" fill="none" xmlns="http://www.w3.org/2000/svg">
<path d="M11.3359 22.8462H7.33594V31.5129H11.3359V22.8462Z" fill="white"/>
<path d="M25.7222 19.5127H20.5V31.5127H25.7222V19.5127Z" fill="white"/>
<path d="M11.4364 21.7051H12.1007C12.8424 21.7051 13.4437 21.1038 13.4437 20.3621V14.5688C13.4437 13.508 12.4811 12.6479 11.2937 12.6479H6.99373C5.80633 12.6479 4.84375 13.508 4.84375 14.5688V20.3228C4.84375 21.0862 5.46261 21.7051 6.22602 21.7051H6.89028" stroke="#E94335" stroke-width="1.3"/>
<path d="M8.99219 11.1938C10.0968 11.1938 10.9922 10.2984 10.9922 9.19385C10.9922 8.08928 10.0968 7.19385 8.99219 7.19385C7.88762 7.19385 6.99219 8.08928 6.99219 9.19385C6.99219 10.2984 7.88762 11.1938 8.99219 11.1938Z" stroke="#E94335" stroke-width="1.3"/>
<path d="M11.4368 14.5405V31.5128H6.89062V14.5405" stroke="#E94335" stroke-width="1.3"/>
<path d="M9.17188 31.5125V23.6792" stroke="#E94335" stroke-width="1.3"/>
<path d="M26.078 19.3241H26.8919C27.8007 19.3241 28.5375 18.5873 28.5375 17.6785V10.1489C28.5375 8.78493 27.358 7.6792 25.9031 7.6792H20.6344C19.1794 7.6792 18 8.78493 18 10.1489V17.6304C18 18.5658 18.7583 19.3241 19.6937 19.3241H20.5076" stroke="#00060C" stroke-width="1.3"/>
<path d="M23.3073 5.99984C24.7801 5.99984 25.974 4.80593 25.974 3.33317C25.974 1.86041 24.7801 0.666504 23.3073 0.666504C21.8345 0.666504 20.6406 1.86041 20.6406 3.33317C20.6406 4.80593 21.8345 5.99984 23.3073 5.99984Z" stroke="#00060C" stroke-width="1.3"/>
<path d="M26.0782 9.97119V31.5129H20.5078V9.97119" stroke="#00060C" stroke-width="1.3"/>
<path d="M23.2969 31.5133V21.0688" stroke="#00060C" stroke-width="1.3"/>
</svg>
