<svg width="16" height="16" viewBox="0 0 16 16" fill="none" xmlns="http://www.w3.org/2000/svg">
<g clip-path="url(#clip0_3243_39031)">
<mask id="path-1-inside-1_3243_39031" fill="white">
<path d="M0.5 8.00002C0.5 7.42737 0.5 6.93279 0.508286 6.50002C0.530387 5.3456 0.611446 4.63099 0.908727 4.04754C1.26825 3.34193 1.84193 2.76825 2.54754 2.40873C3.34971 2 4.39982 2 6.50002 2H9.50003C11.6002 2 12.6503 2 13.4525 2.40873C14.1581 2.76825 14.7318 3.34193 15.0913 4.04754C15.3886 4.63099 15.4697 5.3456 15.4918 6.50002C15.5001 6.93279 15.5001 7.42737 15.5001 8.00002C15.5001 10.1002 15.5001 11.1503 15.0913 11.9525C14.7318 12.6581 14.1581 13.2318 13.4525 13.5913C12.6503 14 11.6002 14 9.50003 14H6.50002C4.39982 14 3.34971 14 2.54754 13.5913C1.84193 13.2318 1.26825 12.6581 0.908727 11.9525C0.5 11.1503 0.5 10.1002 0.5 8.00002Z"/>
</mask>
<path d="M0.5 8.00002C0.5 7.42737 0.5 6.93279 0.508286 6.50002C0.530387 5.3456 0.611446 4.63099 0.908727 4.04754C1.26825 3.34193 1.84193 2.76825 2.54754 2.40873C3.34971 2 4.39982 2 6.50002 2H9.50003C11.6002 2 12.6503 2 13.4525 2.40873C14.1581 2.76825 14.7318 3.34193 15.0913 4.04754C15.3886 4.63099 15.4697 5.3456 15.4918 6.50002C15.5001 6.93279 15.5001 7.42737 15.5001 8.00002C15.5001 10.1002 15.5001 11.1503 15.0913 11.9525C14.7318 12.6581 14.1581 13.2318 13.4525 13.5913C12.6503 14 11.6002 14 9.50003 14H6.50002C4.39982 14 3.34971 14 2.54754 13.5913C1.84193 13.2318 1.26825 12.6581 0.908727 11.9525C0.5 11.1503 0.5 10.1002 0.5 8.00002Z" fill="#576370"/>
<path d="M10.25 12.4C10.609 12.4 10.9 12.109 10.9 11.75C10.9 11.391 10.609 11.1 10.25 11.1V12.4ZM7.25002 11.1C6.89104 11.1 6.60002 11.391 6.60002 11.75C6.60002 12.109 6.89104 12.4 7.25002 12.4V11.1ZM5.00002 12.4C5.359 12.4 5.65002 12.109 5.65002 11.75C5.65002 11.391 5.359 11.1 5.00002 11.1V12.4ZM3.50001 11.1C3.14103 11.1 2.85001 11.391 2.85001 11.75C2.85001 12.109 3.14103 12.4 3.50001 12.4V11.1ZM0.508286 5.85002C0.1493 5.85002 -0.141714 6.14103 -0.141714 6.50002C-0.141714 6.859 0.1493 7.15001 0.508286 7.15001V5.85002ZM15.4918 7.15001C15.8508 7.15001 16.1418 6.859 16.1418 6.50002C16.1418 6.14103 15.8508 5.85002 15.4918 5.85002V7.15001ZM10.25 11.1H7.25002V12.4H10.25V11.1ZM5.00002 11.1H3.50001V12.4H5.00002V11.1ZM15.4918 5.85002H0.508286V7.15001H15.4918V5.85002ZM2.54754 13.5913L3.13773 12.433L2.54754 13.5913ZM0.908727 11.9525L2.06704 11.3623L0.908727 11.9525ZM15.0913 11.9525L13.933 11.3623L15.0913 11.9525ZM13.4525 13.5913L12.8623 12.433L13.4525 13.5913ZM13.4525 2.40873L12.8623 3.56704L13.4525 2.40873ZM15.0913 4.04754L16.2496 3.45735L15.0913 4.04754ZM2.54754 2.40873L3.13773 3.56704L2.54754 2.40873ZM0.908727 4.04754L-0.249581 3.45735L0.908727 4.04754ZM0.508286 6.50002L-0.791476 6.47513L0.508286 6.50002ZM15.4918 6.50002L16.7915 6.47513L15.4918 6.50002ZM6.50002 3.3H9.50003V0.7H6.50002V3.3ZM9.50003 12.7H6.50002V15.3H9.50003V12.7ZM6.50002 12.7C5.42847 12.7 4.70299 12.699 4.14288 12.6533C3.59795 12.6087 3.32501 12.5284 3.13773 12.433L1.95736 14.7496C2.57225 15.0629 3.22544 15.187 3.93116 15.2446C4.6217 15.3011 5.47137 15.3 6.50002 15.3V12.7ZM-0.8 8.00002C-0.8 9.02867 -0.801011 9.87834 -0.744592 10.5689C-0.686932 11.2746 -0.562886 11.9278 -0.249581 12.5427L2.06704 11.3623C1.97161 11.175 1.8913 10.9021 1.84677 10.3572C1.80101 9.79705 1.8 9.07157 1.8 8.00002H-0.8ZM3.13773 12.433C2.67673 12.1981 2.30193 11.8233 2.06704 11.3623L-0.249581 12.5427C0.23458 13.4929 1.00713 14.2655 1.95736 14.7496L3.13773 12.433ZM14.2001 8.00002C14.2001 9.07157 14.199 9.79705 14.1533 10.3572C14.1088 10.9021 14.0284 11.175 13.933 11.3623L16.2496 12.5427C16.5629 11.9278 16.687 11.2746 16.7446 10.5689C16.8011 9.87834 16.8001 9.02867 16.8001 8.00002H14.2001ZM9.50003 15.3C10.5287 15.3 11.3784 15.3011 12.0689 15.2446C12.7746 15.187 13.4278 15.0629 14.0427 14.7496L12.8623 12.433C12.675 12.5284 12.4021 12.6087 11.8572 12.6533C11.2971 12.699 10.5716 12.7 9.50003 12.7V15.3ZM13.933 11.3623C13.6981 11.8233 13.3233 12.1981 12.8623 12.433L14.0427 14.7496C14.9929 14.2655 15.7655 13.4929 16.2496 12.5427L13.933 11.3623ZM9.50003 3.3C10.5716 3.3 11.2971 3.30101 11.8572 3.34677C12.4021 3.3913 12.675 3.47161 12.8623 3.56704L14.0427 1.25042C13.4278 0.937114 12.7746 0.813068 12.0689 0.755408C11.3784 0.698989 10.5287 0.7 9.50003 0.7V3.3ZM12.8623 3.56704C13.3233 3.80193 13.6981 4.17673 13.933 4.63773L16.2496 3.45735C15.7655 2.50713 14.9929 1.73458 14.0427 1.25042L12.8623 3.56704ZM6.50002 0.7C5.47137 0.7 4.6217 0.698989 3.93116 0.755408C3.22544 0.813068 2.57225 0.937114 1.95736 1.25042L3.13773 3.56704C3.32501 3.47161 3.59795 3.3913 4.14288 3.34677C4.70299 3.30101 5.42847 3.3 6.50002 3.3V0.7ZM1.95736 1.25042C1.00713 1.73458 0.23458 2.50713 -0.249581 3.45735L2.06704 4.63773C2.30193 4.17673 2.67673 3.80193 3.13773 3.56704L1.95736 1.25042ZM1.8 8.00002C1.8 7.42361 1.80005 6.94265 1.80805 6.5249L-0.791476 6.47513C-0.800049 6.92293 -0.8 7.43112 -0.8 8.00002H1.8ZM1.80805 6.5249C1.83025 5.36536 1.91951 4.92726 2.06704 4.63773L-0.249581 3.45735C-0.696622 4.33472 -0.769472 5.32583 -0.791476 6.47513L1.80805 6.5249ZM16.8001 8.00002C16.8001 7.43112 16.8001 6.92293 16.7915 6.47513L14.192 6.5249C14.2 6.94265 14.2001 7.42361 14.2001 8.00002H16.8001ZM16.7915 6.47513C16.7695 5.32583 16.6967 4.33472 16.2496 3.45735L13.933 4.63773C14.0805 4.92726 14.1698 5.36536 14.192 6.5249L16.7915 6.47513Z" fill="#576370" mask="url(#path-1-inside-1_3243_39031)"/>
<path d="M10.3919 11.9C10.7509 11.9 11.0419 11.609 11.0419 11.25C11.0419 10.891 10.7509 10.6 10.3919 10.6V11.9ZM7.19168 10.6C6.8327 10.6 6.54168 10.891 6.54168 11.25C6.54168 11.609 6.8327 11.9 7.19168 11.9V10.6ZM4.79151 11.9C5.15049 11.9 5.44151 11.609 5.44151 11.25C5.44151 10.891 5.15049 10.6 4.79151 10.6V11.9ZM3.19139 10.6C2.83241 10.6 2.54139 10.891 2.54139 11.25C2.54139 11.609 2.83241 11.9 3.19139 11.9V10.6ZM15.9835 6.65C16.3425 6.65 16.6335 6.35899 16.6335 6C16.6335 5.64101 16.3425 5.35 15.9835 5.35V6.65ZM0 5.35C-0.358985 5.35 -0.65 5.64101 -0.65 6C-0.65 6.35899 -0.358985 6.65 0 6.65V5.35ZM10.3919 10.6H7.19168V11.9H10.3919V10.6ZM4.79151 10.6H3.19139V11.9H4.79151V10.6ZM15.9835 5.35H0V6.65H15.9835V5.35Z" fill="#F4F6F8"/>
</g>
<defs>
<clipPath id="clip0_3243_39031">
<rect width="16" height="16" fill="white"/>
</clipPath>
</defs>
</svg>
