<svg width="219" height="140" viewBox="0 0 219 140" fill="none" xmlns="http://www.w3.org/2000/svg">
<mask id="mask0_3243_40549" style="mask-type:alpha" maskUnits="userSpaceOnUse" x="0" y="0" width="219" height="140">
<rect width="219" height="140" fill="#C4C4C4"/>
</mask>
<g mask="url(#mask0_3243_40549)">
</g>
<path d="M35.8852 100.313C33.8819 100.314 31.898 99.9189 30.0469 99.1504C28.1959 98.3818 26.5139 97.2548 25.0974 95.8337C23.6808 94.4126 22.5574 92.7253 21.7913 90.8683C21.0253 89.0113 20.6316 87.021 20.6328 85.0113V47.7652C20.6378 43.7102 22.245 39.8225 25.1023 36.9543C27.9596 34.0861 31.8338 32.4713 35.8758 32.4639H101.387C105.429 32.4713 109.304 34.0861 112.161 36.9543C115.018 39.8225 116.625 43.7102 116.63 47.7652V85.0113C116.628 89.067 115.021 92.9561 112.164 95.8249C109.306 98.6936 105.43 100.308 101.387 100.313H35.8852Z" fill="#F4F6F8"/>
<path d="M101.399 32.6326C105.398 32.6376 109.232 34.2335 112.06 37.0704C114.888 39.9072 116.479 43.7534 116.483 47.7653V85.0208C116.479 89.0327 114.888 92.8788 112.06 95.7157C109.232 98.5525 105.398 100.148 101.399 100.153H35.8877C33.9061 100.153 31.9438 99.7617 30.1131 99.0006C28.2824 98.2395 26.6191 97.124 25.2182 95.7178C23.8174 94.3117 22.7065 92.6423 21.949 90.8053C21.1915 88.9682 20.8022 86.9994 20.8035 85.0114V47.7653C20.8084 43.7534 22.3992 39.9072 25.227 37.0704C28.0548 34.2335 31.8887 32.6376 35.8877 32.6326H101.399ZM101.399 32.3047H35.8877C31.8004 32.3047 27.8805 33.9336 24.9904 36.833C22.1002 39.7324 20.4766 43.6649 20.4766 47.7653V85.0114C20.4753 87.0425 20.8731 89.0539 21.647 90.9308C22.4209 92.8076 23.5559 94.5131 24.9871 95.9498C26.4183 97.3864 28.1176 98.526 29.988 99.3036C31.8584 100.081 33.8631 100.481 35.8877 100.481H101.399C105.487 100.481 109.406 98.8525 112.297 95.9531C115.187 93.0536 116.81 89.1212 116.81 85.0208V47.7653C116.81 43.6649 115.187 39.7324 112.297 36.833C109.406 33.9336 105.487 32.3047 101.399 32.3047Z" fill="#4C5864"/>
<path d="M101.399 32.6326C105.398 32.6376 109.232 34.2335 112.06 37.0704C114.888 39.9072 116.479 43.7534 116.483 47.7653V85.0208C116.479 89.0327 114.888 92.8788 112.06 95.7157C109.232 98.5525 105.398 100.148 101.399 100.153H35.8877C33.9061 100.153 31.9438 99.7617 30.1131 99.0006C28.2824 98.2395 26.6191 97.124 25.2182 95.7178C23.8174 94.3117 22.7065 92.6423 21.949 90.8053C21.1915 88.9682 20.8022 86.9994 20.8035 85.0114V47.7653C20.8084 43.7534 22.3992 39.9072 25.227 37.0704C28.0548 34.2335 31.8887 32.6376 35.8877 32.6326H101.399ZM101.399 32.3047H35.8877C31.8004 32.3047 27.8805 33.9336 24.9904 36.833C22.1002 39.7324 20.4766 43.6649 20.4766 47.7653V85.0114C20.4753 87.0425 20.8731 89.0539 21.647 90.9308C22.4209 92.8076 23.5559 94.5131 24.9871 95.9498C26.4183 97.3864 28.1176 98.526 29.988 99.3036C31.8584 100.081 33.8631 100.481 35.8877 100.481H101.399C105.487 100.481 109.406 98.8525 112.297 95.9531C115.187 93.0536 116.81 89.1212 116.81 85.0208V47.7653C116.81 43.6649 115.187 39.7324 112.297 36.833C109.406 33.9336 105.487 32.3047 101.399 32.3047Z" fill="#4C5864"/>
<path d="M117.018 127.58C115.015 127.581 113.031 127.186 111.18 126.418C109.329 125.649 107.647 124.522 106.23 123.101C104.814 121.68 103.69 119.993 102.924 118.136C102.158 116.279 101.764 114.289 101.766 112.279V75.0328C101.771 70.9778 103.378 67.0901 106.235 64.2219C109.092 61.3537 112.967 59.7389 117.009 59.7314H182.52C186.562 59.7389 190.436 61.3537 193.294 64.2219C196.151 67.0901 197.758 70.9778 197.763 75.0328V112.335C197.758 116.389 196.151 120.276 193.293 123.143C190.436 126.009 186.561 127.622 182.52 127.627L117.018 127.58Z" fill="#F4F6F8"/>
<mask id="path-6-inside-1_3243_40549" fill="white">
<path d="M182.524 59.8621C186.523 59.8671 190.357 61.463 193.185 64.2999C196.013 67.1367 197.603 70.9829 197.608 74.9948V112.335C197.603 116.346 196.013 120.193 193.185 123.03C190.357 125.866 186.523 127.462 182.524 127.467H117.013C113.012 127.462 109.177 125.865 106.349 123.026C103.521 120.187 101.931 116.339 101.928 112.325V75.0323C101.926 73.0426 102.314 71.0719 103.071 69.2327C103.828 67.3935 104.938 65.7218 106.339 64.3131C107.74 62.9044 109.403 61.7863 111.234 61.0226C113.066 60.2589 115.029 59.8646 117.013 59.8621H182.524ZM182.524 59.5342H117.013C112.925 59.5342 109.006 61.1631 106.115 64.0625C103.225 66.9619 101.602 70.8944 101.602 74.9948V112.241C101.6 114.272 101.998 116.283 102.772 118.16C103.546 120.037 104.681 121.743 106.112 123.179C107.543 124.616 109.243 125.756 111.113 126.533C112.983 127.311 114.988 127.711 117.013 127.711H182.524C186.611 127.711 190.531 126.082 193.422 123.183C196.312 120.283 197.935 116.351 197.935 112.25V75.0323C197.935 70.9319 196.312 66.9994 193.422 64.1C190.531 61.2005 186.611 59.5717 182.524 59.5717V59.5342Z"/>
</mask>
<path d="M182.524 59.8621C186.523 59.8671 190.357 61.463 193.185 64.2999C196.013 67.1367 197.603 70.9829 197.608 74.9948V112.335C197.603 116.346 196.013 120.193 193.185 123.03C190.357 125.866 186.523 127.462 182.524 127.467H117.013C113.012 127.462 109.177 125.865 106.349 123.026C103.521 120.187 101.931 116.339 101.928 112.325V75.0323C101.926 73.0426 102.314 71.0719 103.071 69.2327C103.828 67.3935 104.938 65.7218 106.339 64.3131C107.74 62.9044 109.403 61.7863 111.234 61.0226C113.066 60.2589 115.029 59.8646 117.013 59.8621H182.524ZM182.524 59.5342H117.013C112.925 59.5342 109.006 61.1631 106.115 64.0625C103.225 66.9619 101.602 70.8944 101.602 74.9948V112.241C101.6 114.272 101.998 116.283 102.772 118.16C103.546 120.037 104.681 121.743 106.112 123.179C107.543 124.616 109.243 125.756 111.113 126.533C112.983 127.311 114.988 127.711 117.013 127.711H182.524C186.611 127.711 190.531 126.082 193.422 123.183C196.312 120.283 197.935 116.351 197.935 112.25V75.0323C197.935 70.9319 196.312 66.9994 193.422 64.1C190.531 61.2005 186.611 59.5717 182.524 59.5717V59.5342Z" fill="#4C5864"/>
<path d="M182.524 59.8621L182.525 58.8621H182.524V59.8621ZM197.608 74.9948H198.608V74.9936L197.608 74.9948ZM197.608 112.335L198.608 112.336V112.335H197.608ZM182.524 127.467V128.467H182.525L182.524 127.467ZM117.013 127.467L117.011 128.467H117.013V127.467ZM101.928 112.325H100.928L100.928 112.326L101.928 112.325ZM101.928 75.0323H102.928L102.928 75.0311L101.928 75.0323ZM117.013 59.8621V58.8621L117.011 58.8621L117.013 59.8621ZM182.524 59.5342H183.524V58.5342H182.524V59.5342ZM117.013 59.5342V60.5342V59.5342ZM101.602 112.241L102.602 112.241V112.241H101.602ZM117.013 127.711V126.711V127.711ZM182.524 127.711V128.711V127.711ZM197.935 75.0323H198.935H197.935ZM182.524 59.5717H181.524V60.5717H182.524V59.5717ZM182.523 60.8621C186.256 60.8668 189.836 62.3566 192.477 65.0059L193.893 63.5939C190.878 60.5695 186.79 58.8674 182.525 58.8621L182.523 60.8621ZM192.477 65.0059C195.118 67.6552 196.604 71.2479 196.608 74.996L198.608 74.9936C198.603 70.7179 196.908 66.6182 193.893 63.5939L192.477 65.0059ZM196.608 74.9948V112.335H198.608V74.9948H196.608ZM196.608 112.333C196.604 116.082 195.118 119.674 192.477 122.324L193.893 123.735C196.908 120.711 198.603 116.611 198.608 112.336L196.608 112.333ZM192.477 122.324C189.836 124.973 186.256 126.463 182.523 126.467L182.525 128.467C186.79 128.462 190.878 126.76 193.893 123.735L192.477 122.324ZM182.524 126.467H117.013V128.467H182.524V126.467ZM117.014 126.467C113.279 126.463 109.698 124.972 107.057 122.32L105.64 123.732C108.655 126.759 112.745 128.462 117.011 128.467L117.014 126.467ZM107.057 122.32C104.416 119.669 102.931 116.074 102.928 112.325L100.928 112.326C100.931 116.603 102.625 120.705 105.64 123.732L107.057 122.32ZM102.928 112.325V75.0323H100.928V112.325H102.928ZM102.928 75.0311C102.926 73.1722 103.289 71.3312 103.996 69.6132L102.146 68.8522C101.34 70.8125 100.926 72.9129 100.928 75.0335L102.928 75.0311ZM103.996 69.6132C104.703 67.8951 105.74 66.3338 107.048 65.0182L105.63 63.608C104.136 65.1098 102.953 66.8918 102.146 68.8522L103.996 69.6132ZM107.048 65.0182C108.356 63.7027 109.909 62.6587 111.619 61.9456L110.85 60.0997C108.897 60.914 107.123 62.1062 105.63 63.608L107.048 65.0182ZM111.619 61.9456C113.329 61.2326 115.162 60.8644 117.014 60.8621L117.011 58.8621C114.896 58.8648 112.803 59.2853 110.85 60.0997L111.619 61.9456ZM117.013 60.8621H182.524V58.8621H117.013V60.8621ZM182.524 58.5342H117.013V60.5342H182.524V58.5342ZM117.013 58.5342C112.659 58.5342 108.485 60.2692 105.407 63.3565L106.824 64.7685C109.526 62.0569 113.192 60.5342 117.013 60.5342V58.5342ZM105.407 63.3565C102.33 66.4437 100.602 70.6302 100.602 74.9948H102.602C102.602 71.1586 104.121 67.4801 106.824 64.7685L105.407 63.3565ZM100.602 74.9948V112.241H102.602V74.9948H100.602ZM100.602 112.24C100.6 114.402 101.024 116.543 101.848 118.541L103.696 117.779C102.972 116.023 102.6 114.142 102.602 112.241L100.602 112.24ZM101.848 118.541C102.671 120.54 103.88 122.355 105.404 123.885L106.821 122.473C105.482 121.13 104.42 119.535 103.696 117.779L101.848 118.541ZM105.404 123.885C106.928 125.415 108.737 126.628 110.729 127.457L111.497 125.61C109.748 124.883 108.159 123.817 106.821 122.473L105.404 123.885ZM110.729 127.457C112.721 128.285 114.856 128.711 117.013 128.711V126.711C115.12 126.711 113.246 126.337 111.497 125.61L110.729 127.457ZM117.013 128.711H182.524V126.711H117.013V128.711ZM182.524 128.711C186.878 128.711 191.052 126.976 194.13 123.889L192.713 122.477C190.01 125.188 186.345 126.711 182.524 126.711V128.711ZM194.13 123.889C197.207 120.801 198.935 116.615 198.935 112.25H196.935C196.935 116.086 195.416 119.765 192.713 122.477L194.13 123.889ZM198.935 112.25V75.0323H196.935V112.25H198.935ZM198.935 75.0323C198.935 70.6677 197.207 66.4812 194.13 63.394L192.713 64.8059C195.416 67.5176 196.935 71.1961 196.935 75.0323H198.935ZM194.13 63.394C191.052 60.3067 186.878 58.5717 182.524 58.5717V60.5717C186.345 60.5717 190.01 62.0944 192.713 64.8059L194.13 63.394ZM183.524 59.5717V59.5342H181.524V59.5717H183.524Z" fill="black" mask="url(#path-6-inside-1_3243_40549)"/>
<mask id="mask1_3243_40549" style="mask-type:alpha" maskUnits="userSpaceOnUse" x="101" y="36" width="97" height="92">
<path d="M117.018 127.58C115.015 127.581 113.031 127.186 111.18 126.418C109.329 125.649 107.647 124.522 106.23 123.101C104.814 121.68 103.69 119.993 102.924 118.136C102.158 116.279 101.764 114.288 101.766 112.279V51.373C101.771 47.3189 103.378 43.4322 106.236 40.5654C109.093 37.6987 112.967 36.086 117.009 36.0811H182.52C186.561 36.086 190.436 37.6987 193.293 40.5654C196.151 43.4322 197.758 47.3189 197.763 51.373V112.279C197.758 116.333 196.151 120.219 193.293 123.086C190.436 125.953 186.561 127.566 182.52 127.571L117.018 127.58Z" fill="white"/>
</mask>
<g mask="url(#mask1_3243_40549)">
<path d="M144.094 73.4591C145.119 74.9747 145.672 76.7621 145.682 78.5939C145.682 78.8844 145.682 79.0905 145.682 79.2498C145.687 79.2713 145.687 79.2939 145.682 79.3154C145.971 80.2524 146.223 81.2456 146.522 82.2108C146.561 82.3113 146.592 82.4147 146.616 82.52L146.83 82.8573L147.914 84.7313C147.82 84.5533 148.409 85.4434 148.67 85.7808L149.091 86.015C149.784 86.1082 150.464 86.2811 151.117 86.5304L151.407 86.5866H151.641L151.725 86.2774C152.248 84.2722 152.948 82.3513 153.527 80.3742C154.228 77.9942 154.461 75.6892 155.89 73.5434L156.199 73.1218H156.021L150.772 57.708L144.663 61.456L144.85 73.2342L144.094 73.4591Z" fill="white"/>
<path d="M144.098 73.4594C145.259 75.151 145.827 77.181 145.714 79.2314C145.714 79.2314 146.714 82.5953 146.648 82.4735C147.096 83.2043 147.517 83.9446 147.946 84.6754L147.788 84.7598V84.7129C147.788 84.7129 147.722 84.7129 147.862 84.6098C148.002 84.5068 147.928 84.6098 147.965 84.6098L148.143 84.8535C148.264 85.0502 148.6 85.4906 148.722 85.678C148.591 85.5843 149.123 85.8935 149.114 85.8842L149.002 86.0435C148.985 86.0259 148.974 86.0036 148.97 85.9796C148.966 85.9555 148.969 85.9308 148.979 85.9086C148.989 85.8864 149.005 85.8677 149.026 85.855C149.047 85.8423 149.071 85.8361 149.095 85.8373C149.88 85.9404 150.683 86.2965 151.412 86.437H151.626L151.514 86.512C152.103 84.2163 152.934 81.9675 153.551 79.6812C154.167 77.3949 154.569 74.9212 156.054 72.9909L156.175 73.2439H155.886V73.1315L150.674 57.7083L150.842 57.7739L144.724 61.522V61.4376L144.827 73.2158C144.827 73.2158 144.08 73.4407 144.07 73.4501L144.098 73.4594ZM144.098 73.4594L144.836 73.2252L144.565 61.447V61.4002H144.621L150.711 57.6521L150.842 57.5771V57.7177L156.166 73.1034L156.016 72.9909H156.465C155.677 73.9971 155.082 75.1408 154.709 76.3642C153.775 79.8405 152.682 83.2699 151.673 86.6713H151.356L151.057 86.615C150.424 86.3956 149.778 86.2141 149.123 86.0716C148.983 86.0716 149.207 86.0716 149.123 85.9216L149.011 86.0809L148.591 85.8467C148.348 85.5562 148.04 85.069 147.816 84.7691C147.816 84.7691 147.816 84.7691 147.89 84.7691C147.965 84.7691 147.956 84.666 147.965 84.6567C147.974 84.6473 147.797 84.741 147.797 84.741C147.367 84.0102 146.947 83.2605 146.517 82.5391C146.517 82.5391 145.583 79.2502 145.583 79.2314C145.739 77.1841 145.21 75.1431 144.08 73.4313L144.098 73.4594Z" fill="#000A0E"/>
<path d="M151.646 60.3138L150.87 58.0088L149.936 58.2149L144.641 61.4476L144.725 66.8541C149.395 65.1394 151.067 62.0098 151.646 60.3138Z" fill="#000A0E" stroke="#000A0E" stroke-width="0.35" stroke-miterlimit="10"/>
<path d="M157.265 73.1035L151.904 75.3898L150.241 83.1482L147.617 75.343L144.553 73.2815C142.685 73.8531 128.208 75.4554 126.424 78.7537C116.486 97.1471 152.642 158.568 152.642 158.568C152.642 158.568 153.94 158.399 163.392 155.382C163.392 155.382 181.334 100.155 178.635 77.1045C178.364 74.7526 160.721 73.1597 157.265 73.1035Z" fill="#ED3B33"/>
<path d="M170.835 91.3008C170.62 94.5897 172.815 107.727 174.16 115.878C176.757 104.269 178.83 92.219 178.914 83.0176C175.767 85.0977 171.012 88.649 170.835 91.3008Z" fill="#CC332C"/>
<path d="M155.726 71.2109L151.906 75.4275L155.297 79.7377L157.781 73.0287L155.726 71.2109Z" fill="#CC332C"/>
<path d="M151.906 75.4271L155.297 79.7373L157.781 73.0283" fill="#CC332C"/>
<path d="M151.906 75.4278C153.13 76.7959 154.279 78.2389 155.418 79.6444H155.157C155.549 78.52 155.997 77.4143 156.408 76.2992C156.819 75.1842 157.296 74.0879 157.781 73.001C157.081 75.2779 156.287 77.5267 155.446 79.7568L155.343 80.0192C154.167 78.5012 153.008 76.9739 151.906 75.3903V75.4278Z" fill="#CC332C"/>
<path d="M144.554 72.1191L147.618 75.3799L145.563 79.6433L143.219 73.5621L144.554 72.1191Z" fill="#CC332C"/>
<path d="M147.618 75.3803L145.563 79.6437L143.219 73.5625" fill="#CC332C"/>
<path d="M147.618 75.3799C146.983 76.9541 146.282 78.5002 145.554 80.065L145.414 79.737C144.62 77.7131 143.873 75.6798 143.219 73.5996C143.686 74.5835 144.106 75.5861 144.526 76.5887C144.947 77.5913 145.339 78.6032 145.703 79.6246H145.423C146.114 78.2097 146.833 76.8136 147.618 75.4268V75.3799Z" fill="#CC332C"/>
<mask id="path-20-inside-2_3243_40549" fill="white">
<path d="M150.242 83.1855C151.055 107.969 152.11 132.95 157.78 157.209C151.765 133.053 150.588 108.016 150.242 83.1855Z"/>
</mask>
<path d="M150.242 83.1855C151.055 107.969 152.11 132.95 157.78 157.209C151.765 133.053 150.588 108.016 150.242 83.1855Z" fill="#CC332C"/>
<path d="M150.242 83.1855L151.242 83.1528L149.242 83.1995L150.242 83.1855ZM157.78 157.209L156.809 157.451L158.753 156.982L157.78 157.209ZM149.243 83.2183C150.055 107.995 151.111 133.069 156.806 157.437L158.753 156.982C153.109 132.831 152.054 107.944 151.242 83.1528L149.243 83.2183ZM158.75 156.968C152.765 132.93 151.588 107.991 151.242 83.1716L149.242 83.1995C149.588 108.042 150.765 133.176 156.809 157.451L158.75 156.968Z" fill="#CC332C" mask="url(#path-20-inside-2_3243_40549)"/>
<path d="M194.756 113.638C191.954 105.561 187.443 96.6502 185.547 91.656C182.614 83.9163 180.447 76.3172 177.524 76.3922C173.339 76.4859 167.25 81.8643 167.483 88.4421C167.903 102.216 186.854 134.299 188.9 135.096C204.171 141.027 194.756 113.638 194.756 113.638Z" fill="#ED3B33"/>
<path d="M144.155 46.8676C142.211 48.9117 140.822 51.4216 140.12 54.1576C139.083 58.5146 138.962 63.2653 141.549 64.3428C143.641 65.2142 150.179 62.2439 151.477 60.22C152.205 59.1923 152.86 58.1153 153.439 56.9967C153.738 56.3033 154.98 50.3814 154.289 48.4043C153.598 46.4273 152.215 45.3309 149.441 45.0124C146.667 44.6938 144.155 46.8676 144.155 46.8676Z" fill="white"/>
<path d="M144.154 46.8677C142.437 48.7475 141.161 50.9885 140.418 53.4268C139.746 56.4252 138.419 61.9817 141.352 64.0525C143.762 65.1862 149.88 62.1784 151.477 60.2107C149.889 62.394 143.799 65.5517 141.203 64.3148C138.886 62.8062 139.204 59.5174 139.428 57.1186C139.756 53.2348 141.428 49.5885 144.154 46.8115V46.8677Z" fill="#000A0E"/>
<path d="M151.507 56.1062C151.507 56.1062 152.936 54.1572 152.441 53.3608C151.946 52.5643 151.339 51.0745 151.657 50.4748C151.903 49.9088 152.1 49.3226 152.245 48.7226C151.627 47.9527 150.809 47.3699 149.88 47.039C148.952 46.7081 147.95 46.6422 146.987 46.8486C143.466 47.467 142.139 47.9543 140.608 45.5836C139.076 43.213 140.86 40.6924 142.896 41.5732C145.567 42.7351 147.398 41.1328 150.368 41.4701C153.338 41.8075 156.355 42.8569 155.972 47.5888C157.98 50.8309 156.906 55.0099 154.926 56.4248C153.777 56.4827 152.626 56.3754 151.507 56.1062Z" fill="#000A0E" stroke="#000A0E" stroke-width="0.35" stroke-miterlimit="10"/>
<path d="M144.187 51.7773C144.187 51.7773 141.292 54.5884 141.189 54.9257C140.9 55.7503 142.609 56.2281 142.609 56.2281" stroke="#000A0E" stroke-width="0.35" stroke-miterlimit="10"/>
<path d="M145.257 58.252C145.257 58.252 143.389 59.798 141.633 59.0203" stroke="#000A0E" stroke-width="0.35" stroke-miterlimit="10"/>
<path d="M154.607 59.6679C155.598 58.6136 155.677 57.074 154.783 56.2291C153.89 55.3843 152.363 55.5541 151.372 56.6085C150.381 57.6629 150.302 59.2025 151.196 60.0473C152.089 60.8921 153.616 60.7223 154.607 59.6679Z" fill="white"/>
<path d="M151.562 60.276C154.038 61.4472 156.784 57.4649 154.234 55.9095C153.961 55.6653 153.617 55.5144 153.253 55.4785C153.63 55.4567 154.004 55.5586 154.318 55.769C157.335 57.3056 154.243 61.9532 151.562 60.276Z" fill="#000A0E"/>
<path d="M142.466 51.8431C142.827 51.8431 143.12 51.5494 143.12 51.1872C143.12 50.8249 142.827 50.5312 142.466 50.5312C142.105 50.5312 141.812 50.8249 141.812 51.1872C141.812 51.5494 142.105 51.8431 142.466 51.8431Z" fill="#000A0E"/>
<path d="M146.716 53.3986C147.129 53.3986 147.463 53.063 147.463 52.649C147.463 52.235 147.129 51.8994 146.716 51.8994C146.303 51.8994 145.969 52.235 145.969 52.649C145.969 53.063 146.303 53.3986 146.716 53.3986Z" fill="#000A0E"/>
<path d="M164.915 91.3005C162.169 90.4572 161.954 100.033 161.627 100.202C160.609 96.0418 157.63 95.9575 158.825 100.952C158.984 101.57 161.805 111.868 162.954 113.732C165.102 120.423 179.093 135.134 181.073 137.045L191.189 134.946C191.189 134.946 170.79 113.142 169.893 112.252C166.288 108.11 170.23 99.9679 169.893 94.9736C169.725 92.4343 169.025 85.6785 166.69 89.5577C166.036 89.3422 164.56 90.907 164.915 91.3005Z" fill="white"/>
<path d="M164.918 91.3006C162.639 90.8884 162.34 96.1262 162.041 97.691L161.901 98.9654C161.885 99.4318 161.787 99.8918 161.612 100.324C161.425 99.4069 161.032 98.5448 160.463 97.8035C159.79 96.9414 158.884 97.0164 158.688 98.1876C158.436 99.9679 159.146 101.711 159.622 103.444C160.099 105.178 160.631 106.911 161.173 108.635C162.34 112.751 164.211 116.631 166.702 120.104C170.849 125.998 176.528 131.995 181.058 136.895L191.173 134.797L191.089 135.059C189.791 133.457 169.327 112.233 169.074 111.146C166.646 105.337 170.746 99.2371 169.728 93.2683C169.551 91.6286 168.888 86.0721 166.721 89.5859C166.039 89.5109 165.46 90.1575 165.077 90.6635C164.965 90.8509 164.815 91.0945 164.937 91.3006H164.918ZM164.918 91.3006C164.787 91.0945 164.918 90.8509 165.058 90.6635C165.441 90.1387 165.992 89.4828 166.711 89.5578C168.813 85.9784 169.644 91.5911 169.803 93.259C170.905 99.1809 166.833 105.318 169.233 111.062C169.822 112.505 189.996 133.26 191.491 135.059L191.22 135.115L181.095 137.205H181.02L180.964 137.148C179.208 135.396 177.537 133.569 175.874 131.733C171.092 126.11 165.749 120.638 162.845 113.761C161.35 110.584 160.463 106.911 159.435 103.454C158.987 101.73 158.259 99.9773 158.501 98.1221C158.726 96.8665 159.772 96.7072 160.519 97.691C161.074 98.4165 161.457 99.2592 161.64 100.155H161.574C162.088 98.2813 162.125 90.8321 164.881 91.2913L164.918 91.3006Z" fill="#000A0E"/>
<path d="M164.918 91.2998C165.348 93.4081 164.685 95.7974 163.984 97.812L164.498 94.5512C164.744 93.4845 164.875 92.3945 164.89 91.2998H164.918Z" fill="#000A0E"/>
<path d="M166.624 89.5195C169.79 94.0359 163.626 98.8896 164.849 103.622C164.457 102.432 164.457 101.147 164.849 99.9578C165.587 96.5846 168.716 92.9302 166.624 89.5195Z" fill="#000A0E"/>
<path d="M133.207 106.432C132.142 89.8285 133.851 84.6094 133.851 84.6094L125.445 94.7665C129.873 119.925 152.644 158.605 152.644 158.605C152.644 158.605 134.104 120.516 133.207 106.432Z" fill="#CC332C"/>
<path d="M106.774 113.011C110.51 105.309 115.628 97.4847 118.43 92.2281C120.466 88.4238 125.248 77.5826 128.144 77.9855C132.291 78.5571 137.689 84.6008 136.746 91.1037C134.757 104.737 109.604 141.205 107.483 141.758C91.6332 145.909 106.774 113.011 106.774 113.011Z" fill="#ED3B33"/>
<path d="M145.481 50.9988L145.451 51.1254L145.581 51.1221L145.578 51.0221L145.581 51.1221L145.581 51.1221L145.581 51.122L145.583 51.122L145.589 51.1218L145.613 51.1212L145.706 51.119C145.785 51.1171 145.9 51.1145 146.038 51.1117C146.315 51.106 146.688 51.0992 147.072 51.0952C147.457 51.0911 147.852 51.0896 148.173 51.0944C148.334 51.0968 148.476 51.1008 148.588 51.1067C148.694 51.1123 148.767 51.1194 148.806 51.1269C149.276 51.3465 149.72 51.6176 150.131 51.9352L150.277 51.8034C149.991 51.3403 149.612 50.9412 149.166 50.6308L149.166 50.6307L149.161 50.6279C148.984 50.5177 148.675 50.4418 148.331 50.3866C147.982 50.3306 147.578 50.2934 147.196 50.2687C146.813 50.244 146.451 50.2317 146.185 50.2255C146.051 50.2224 145.942 50.2209 145.866 50.2201L145.778 50.2194L145.754 50.2193L145.748 50.2193L145.747 50.2193L145.746 50.2193L145.746 50.2193L145.746 50.3193L145.746 50.2193L145.667 50.2193L145.649 50.2961L145.481 50.9988Z" fill="black" stroke="black" stroke-width="0.2"/>
<path d="M144.04 50.4059L144.138 50.5025L144.199 50.3796C144.298 50.1827 144.37 49.9737 144.415 49.7579L144.425 49.706L144.388 49.668C143.878 49.1413 143.29 48.6954 142.646 48.3456L142.637 48.3407L142.627 48.3377C142.525 48.3072 142.402 48.3362 142.293 48.3752C142.179 48.4163 142.058 48.4781 141.948 48.5407C141.837 48.6036 141.736 48.6689 141.662 48.7183C141.625 48.743 141.595 48.7639 141.574 48.7786L141.55 48.7959L141.543 48.8006L141.542 48.8018L141.541 48.8022L141.541 48.8023L141.541 48.8023L141.6 48.8831L141.541 48.8023L141.616 48.9818C141.871 48.9401 142.132 48.945 142.385 48.9963C142.97 49.425 143.523 49.8961 144.04 50.4059Z" fill="black" stroke="black" stroke-width="0.2"/>
</g>
<path d="M93.5781 12C91.5568 11.9971 89.5633 12.4722 87.7593 13.3868C85.5949 14.4703 83.7745 16.1377 82.5024 18.2017C81.2304 20.2657 80.557 22.6446 80.558 25.0713C80.5505 27.0996 81.0244 29.1006 81.9404 30.9088L79.9883 36.7557C79.8961 37.0261 79.8813 37.3169 79.9456 37.5953C80.0099 37.8736 80.1508 38.1283 80.3522 38.3303C80.5536 38.5323 80.8074 38.6737 81.0849 38.7382C81.3623 38.8027 81.6522 38.7879 81.9217 38.6954L87.7499 36.7464C89.554 37.6609 91.5475 38.136 93.5688 38.1331C95.9845 38.1249 98.3507 37.4455 100.405 36.1703C102.459 34.8951 104.121 33.0739 105.207 30.9088C106.115 29.0983 106.586 27.0983 106.58 25.0713V24.3029C106.403 21.0991 105.056 18.0731 102.795 15.8033C100.534 13.5336 97.5187 12.1795 94.3253 12H93.5781Z" fill="#3062CC"/>
<path d="M86.3984 21.998H100.194" stroke="white" stroke-linecap="round" stroke-linejoin="round"/>
<path d="M86.3984 26.6641H94.7765" stroke="white" stroke-linecap="round" stroke-linejoin="round"/>
<path d="M116.591 49.3115C117.939 49.3104 119.268 49.6316 120.467 50.2485C121.907 50.9727 123.119 52.0817 123.97 53.4531C124.743 54.7103 125.184 56.145 125.249 57.6209C125.314 59.0969 125.003 60.5651 124.343 61.8862L125.642 65.7748C125.702 65.9549 125.711 66.1483 125.667 66.3333C125.624 66.5182 125.53 66.6873 125.396 66.8217C125.262 66.956 125.094 67.0502 124.909 67.0937C124.725 67.1372 124.532 67.1282 124.353 67.0678L120.467 65.7748C119.268 66.3917 117.939 66.7129 116.591 66.7118C115.45 66.713 114.319 66.4881 113.265 66.0499C112.21 65.6117 111.252 64.9689 110.446 64.1583C109.64 63.3478 109.001 62.3855 108.567 61.3266C108.132 60.2678 107.91 59.1333 107.914 57.9882V57.4822C108.043 55.3623 108.94 53.3628 110.436 51.8602C111.929 50.3519 113.925 49.4509 116.04 49.3303L116.591 49.3115Z" fill="#634CE1"/>
<path d="M121.248 59.5059C121.955 59.5059 122.528 58.9312 122.528 58.2222C122.528 57.5132 121.955 56.9385 121.248 56.9385C120.542 56.9385 119.969 57.5132 119.969 58.2222C119.969 58.9312 120.542 59.5059 121.248 59.5059Z" fill="white" stroke="white" stroke-width="0.35" stroke-miterlimit="10"/>
<path d="M116.6 59.5059C117.307 59.5059 117.88 58.9312 117.88 58.2222C117.88 57.5132 117.307 56.9385 116.6 56.9385C115.893 56.9385 115.32 57.5132 115.32 58.2222C115.32 58.9312 115.893 59.5059 116.6 59.5059Z" fill="white" stroke="white" stroke-width="0.35" stroke-miterlimit="10"/>
<path d="M111.951 59.5059C112.658 59.5059 113.231 58.9312 113.231 58.2222C113.231 57.5132 112.658 56.9385 111.951 56.9385C111.245 56.9385 110.672 57.5132 110.672 58.2222C110.672 58.9312 111.245 59.5059 111.951 59.5059Z" fill="white" stroke="white" stroke-width="0.35" stroke-miterlimit="10"/>
<mask id="mask2_3243_40549" style="mask-type:alpha" maskUnits="userSpaceOnUse" x="20" y="32" width="97" height="69">
<path d="M35.8852 100.313C33.8819 100.314 31.898 99.9189 30.0469 99.1504C28.1959 98.3818 26.5139 97.2548 25.0974 95.8337C23.6808 94.4126 22.5574 92.7253 21.7913 90.8683C21.0253 89.0113 20.6316 87.021 20.6328 85.0113V47.7652C20.6378 43.7102 22.245 39.8225 25.1023 36.9543C27.9596 34.0861 31.8338 32.4713 35.8758 32.4639H101.387C105.429 32.4713 109.304 34.0861 112.161 36.9543C115.018 39.8225 116.625 43.7102 116.63 47.7652V85.0113C116.628 89.067 115.021 92.9561 112.164 95.8249C109.306 98.6936 105.43 100.308 101.387 100.313H35.8852Z" fill="#F4F6F8"/>
</mask>
<g mask="url(#mask2_3243_40549)">
<path d="M63.9047 38.489C64.3185 39.1737 64.5817 39.9393 64.6767 40.7343C64.7718 41.5294 64.6964 42.3356 64.4557 43.0991C63.5964 45.5634 64.1475 49.6581 65.259 51.1667C66.3705 52.6753 72.0212 61.8111 68.2105 68.4077C64.3997 75.0042 50.5577 73.4488 45.1404 72.0995C39.7231 70.7502 35.2212 65.5404 35.8003 60.3588C36.4448 54.8773 40.8346 51.0637 42.8147 47.8216C46.2239 42.1996 48.671 38.1798 53.4624 37.627" fill="#1C100D"/>
<path d="M61.2278 55.224C61.9706 55.224 62.5728 54.6199 62.5728 53.8747C62.5728 53.1295 61.9706 52.5254 61.2278 52.5254C60.485 52.5254 59.8828 53.1295 59.8828 53.8747C59.8828 54.6199 60.485 55.224 61.2278 55.224Z" fill="#ED3B33"/>
<path d="M49.4835 53.4062L48.232 61.5114C48.232 61.5114 47.0738 62.0455 45.3179 62.8888C41.2549 64.8565 45.4953 67.8643 51.7439 68.8294C54.1536 69.2042 61.7845 68.7357 58.394 65.25C56.4326 63.2355 54.8915 61.8862 54.8915 61.8862L55.5079 56.2641L49.4835 53.4062Z" fill="white"/>
<path d="M55.0434 61.9326L55.4824 56.6479L49.5234 54.877C49.5234 54.877 50.8311 61.0612 55.0434 61.9326Z" fill="#1C100D"/>
<path d="M67.2819 78.1148C67.0671 73.7389 61.9248 67.4856 57.5013 64.3313C56.9201 65.0991 56.1488 65.7011 55.264 66.0775C54.3793 66.4539 53.4118 66.5916 52.4576 66.477C51.1812 66.2901 49.9563 65.8438 48.8578 65.1655C47.7593 64.4872 46.8103 63.5912 46.069 62.5322C37.5975 63.7832 31.8979 69.6648 28.5915 72.3822C24.1362 76.0459 37.5975 104.623 37.5975 104.623L57.4452 104.997C57.4452 104.997 67.5621 84.4396 67.2819 78.1148Z" fill="#ED3B33"/>
<path d="M62.2433 41.9096C62.2433 41.9096 63.607 48.4687 61.1318 54.3812C58.6567 60.2937 53.0993 60.0032 50.9978 57.6045C48.8963 55.2058 47.5887 49.6587 47.7755 47.2412C48.031 45.3667 48.9557 43.6489 50.3779 42.4065C51.8001 41.1641 53.6233 40.4815 55.5091 40.4854C60.5341 40.4854 62.2433 41.9096 62.2433 41.9096Z" fill="white"/>
<path d="M58.7031 46.4717C58.7031 46.4717 61.1503 45.6003 62.6914 46.528" stroke="#1C100D" stroke-miterlimit="10" stroke-linecap="round"/>
<path d="M55.6523 45.8072C55.3877 45.0973 54.8931 44.4971 54.2478 44.1029C53.6025 43.7087 52.8439 43.5433 52.0938 43.6333" stroke="#1C100D" stroke-miterlimit="10" stroke-linecap="round"/>
<path d="M47.7305 48.187L49.7947 44.3921C49.7947 44.3921 58.2848 44.6545 62.3011 42.4057C66.3173 40.1568 64.1037 36.0996 58.1634 36.0996C47.7118 36.0996 45.3675 38.3484 45.6103 46.4535C45.6103 46.4535 47.3476 45.5165 47.7118 45.8164C48.0761 46.1162 47.7305 48.187 47.7305 48.187Z" fill="#1C100D"/>
<path d="M56.638 53.5374L53.2101 51.8789C53.0086 52.4426 53.0254 53.0616 53.2572 53.6134C53.489 54.1652 53.9189 54.6096 54.4617 54.8586C56.2177 55.655 56.638 53.5374 56.638 53.5374Z" stroke="#1C100D" stroke-width="0.35" stroke-miterlimit="10"/>
<path d="M53.2926 46.959C53.7001 46.959 54.0304 46.6276 54.0304 46.2188C54.0304 45.8099 53.7001 45.4785 53.2926 45.4785C52.885 45.4785 52.5547 45.8099 52.5547 46.2188C52.5547 46.6276 52.885 46.959 53.2926 46.959Z" fill="#000A0E"/>
<path d="M60.0972 50.1357C60.5048 50.1357 60.8351 49.8043 60.8351 49.3955C60.8351 48.9867 60.5048 48.6553 60.0972 48.6553C59.6897 48.6553 59.3594 48.9867 59.3594 49.3955C59.3594 49.8043 59.6897 50.1357 60.0972 50.1357Z" fill="#000A0E"/>
<path d="M57.8071 48.4121C57.8071 48.4121 57.6297 50.8015 56.9385 51.3918C56.5182 51.7385 55.4628 51.0545 55.1172 50.9233" stroke="#000A0E" stroke-width="0.35" stroke-miterlimit="10" stroke-linecap="round"/>
<path d="M50.0204 48.2622C50.0475 46.7773 49.0493 45.5547 47.7909 45.5316C46.5325 45.5084 45.4903 46.6935 45.4632 48.1784C45.4361 49.6634 46.4342 50.8859 47.6927 50.9091C48.9511 50.9322 49.9933 49.7472 50.0204 48.2622Z" fill="white"/>
<path d="M47.2989 45.5449C44.5996 46.3695 45.2815 51.3169 48.2329 50.7172C48.6118 50.7118 48.9788 50.5836 49.279 50.3518C49.0109 50.6352 48.6557 50.82 48.2703 50.8765C44.9172 51.8135 44.0766 46.1259 47.2615 45.5449H47.2989Z" fill="#000A0E"/>
<path d="M47.3762 53.2279C48.119 53.2279 48.7212 52.6238 48.7212 51.8786C48.7212 51.1334 48.119 50.5293 47.3762 50.5293C46.6334 50.5293 46.0312 51.1334 46.0312 51.8786C46.0312 52.6238 46.6334 53.2279 47.3762 53.2279Z" fill="#ED3B33"/>
<path d="M60.3749 80.0176C60.571 86.7078 57.4141 104.998 57.4141 104.998C57.4141 104.998 61.6825 95.8061 64.4005 87.8416C63.1022 85.4053 61.4023 82.2008 60.3749 80.0176Z" fill="#CC332C"/>
<path d="M30.4844 80.5413C30.9981 83.3523 31.7826 86.4444 32.6326 89.471L37.835 76.2217L30.4844 80.5413Z" fill="#1C100D"/>
<path d="M62.598 72.6337C62.598 72.6337 65.388 69.7066 69.3976 82.238C71.8261 89.8278 78.8031 108.399 78.8031 108.399C78.8031 108.399 78.2987 112.269 73.2644 113.197C68.2301 114.124 67.2961 111.632 67.2961 111.632C67.2961 111.632 61.2904 89.6685 59.357 86.4921C57.4236 83.3156 56.4429 72.718 62.598 72.6337Z" fill="#ED3B33"/>
<path d="M38.8927 71.1622C38.8927 71.1622 39.4344 75.9503 34.2226 81.9565C29.0108 87.9627 16.7473 103.508 16.7473 103.508C16.7473 103.508 13.1887 105.082 9.79824 101.231C6.40779 97.3796 8.0423 95.2901 8.0423 95.2901C8.0423 95.2901 23.877 78.734 25.5955 75.4264C30.3579 70.0933 35.689 65.8774 38.9113 71.1247" fill="#ED3B33"/>
<path d="M73.9339 99.948C78.0623 87.2796 81.1819 73.515 81.1819 73.515C81.1798 72.0144 81.2734 70.5153 81.4621 69.0267C81.7516 67.3588 82.5829 61.8399 83.1807 62.0085C83.7784 62.1772 83.8345 62.7675 83.9372 63.2829C84.0399 63.7982 83.8531 67.4619 84.0213 67.6399C84.1332 67.8237 84.3049 67.9631 84.5073 68.0348C84.7097 68.1065 84.9306 68.106 85.1327 68.0335C85.8071 67.7212 86.4357 67.3177 87.0008 66.8341C88.682 65.2787 92.6515 60.3594 93.3146 60.2282C93.9778 60.097 94.1179 60.2282 94.1646 60.2282C94.2216 60.3671 94.2378 60.5193 94.2113 60.6671C94.1848 60.8148 94.1167 60.9519 94.0152 61.0621C93.7163 61.4838 90.7928 65.3724 90.6434 65.5504C90.494 65.7285 88.6166 68.071 88.6539 68.1647C88.6913 68.2584 88.7567 68.3989 89.205 67.996C89.6533 67.5931 93.3987 63.7701 93.3987 63.7701C93.3987 63.7701 95.8552 61.6337 96.042 61.5307C96.16 61.4942 96.285 61.4862 96.4068 61.5074C96.5285 61.5285 96.6435 61.5783 96.7425 61.6525C96.7698 61.8416 96.7573 62.0343 96.7058 62.2183C96.6543 62.4023 96.565 62.5734 96.4436 62.7206C96.1167 63.1704 91.4279 68.5489 91.2972 68.6894C91.1664 68.83 91.4186 68.8393 91.5307 68.7644C91.6428 68.6894 96.4156 65.4005 96.6771 65.2318C97.0989 64.9058 97.6206 64.7369 98.1528 64.754C98.8907 64.754 97.6952 66.197 97.6952 66.197L92.446 70.5072C92.446 70.5072 92.3713 70.6571 92.6422 70.5072C92.913 70.3573 97.6952 68.4177 97.9567 68.4364C98.0821 68.4338 98.2063 68.4604 98.3198 68.5141C98.4332 68.5677 98.5327 68.647 98.6105 68.7456C98.8347 69.2797 98.5171 69.4671 96.8172 70.1792C95.3376 70.8576 93.8997 71.6242 92.5114 72.4749C92.0572 72.6727 91.6353 72.9381 91.2598 73.262C90.1671 74.8174 86.5898 77.01 86.459 77.1412C86.3283 77.2724 83.657 96.1531 82.0225 100.932C81.3873 102.965 73.2988 101.897 73.9339 99.948Z" fill="white"/>
<path d="M74.1133 99.7064C75.0927 96.1463 78.5066 83.399 81.1289 73.5142C81.1548 70.5208 81.5055 67.5391 82.175 64.6219C82.4739 63.3757 82.8381 60.7053 83.8469 62.5605C84.0861 63.7946 84.1521 65.0562 84.043 66.3086V67.0582C84.043 67.2924 83.9963 67.5922 84.1831 67.6953C85.7896 69.5037 91.2162 61.6142 92.7666 60.4898C92.902 60.3417 93.0688 60.2261 93.2548 60.1515C93.4407 60.0769 93.641 60.0452 93.8408 60.0587C94.8682 60.0587 94.121 61.2674 93.7567 61.6704L91.9634 64.0691C91.1135 65.231 90.0954 66.4678 89.2361 67.611C89.0866 67.8078 88.9372 68.0139 88.8158 68.2013C88.8158 68.117 88.7317 68.2013 88.8158 68.1357C91.0574 66.1493 93.0095 63.7318 95.4846 61.7922C95.6714 61.661 95.9236 61.3518 96.1758 61.3705C97.4927 61.3237 96.7549 62.7292 96.2599 63.2445C95.5407 64.0785 92.1409 68.0045 91.4964 68.7354L91.3937 68.8572C91.3937 68.8572 91.3937 68.7916 91.3937 68.7448C91.3937 68.7448 91.5711 68.6417 91.6272 68.6136L92.2249 68.2013L94.6253 66.5615C95.7648 65.9244 96.7736 64.6875 98.1652 64.6875C98.8097 64.6875 98.4548 65.4746 98.2493 65.7464C98.1104 65.9623 97.9575 66.1689 97.7916 66.3648L92.5425 70.6563C92.5425 70.6563 92.4958 70.5626 92.4771 70.5626C92.6452 70.5064 92.9815 70.3471 93.1589 70.2815C93.682 70.066 95.0737 69.5038 95.6154 69.2976L97.2779 68.6605C97.4935 68.575 97.7151 68.5061 97.9411 68.4543C98.3614 68.4543 98.8751 68.7448 98.7537 69.2226C98.4641 69.8598 97.773 69.9348 97.2406 70.2252C95.6266 70.9253 94.0658 71.7427 92.5705 72.6709C91.7984 73.0229 91.1271 73.5643 90.6184 74.245C89.3448 75.3848 87.9761 76.413 86.5275 77.3184C86.35 78.1336 86.2286 79.005 86.0885 79.8483C84.9396 86.6322 84.0056 93.463 82.3524 100.144L82.175 100.762C82.1297 100.977 82.0371 101.179 81.9041 101.353C80.8113 102.749 73.6288 102.13 73.9557 100.022L74.1133 99.7064ZM73.9398 99.9771C73.6223 102.132 80.8674 102.599 81.8574 101.25C82.0644 100.875 81.9374 100.567 82.0213 100.147C83.6651 93.4757 84.8463 86.5386 85.9577 79.7546C86.0978 78.902 86.2192 78.0586 86.3967 77.1966C87.8385 76.2486 89.2118 75.1996 90.5064 74.0576C91.0258 73.363 91.7095 72.8091 92.4958 72.446C93.4298 71.8556 94.5413 71.2466 95.5874 70.7125C96.4373 70.1596 98.0251 69.8879 98.5855 69.1102C98.6416 68.7541 98.2773 68.5855 97.9691 68.5855C97.8664 68.5855 97.4834 68.7448 97.3713 68.7822L95.7275 69.4194C94.9522 69.7193 93.6073 70.2627 92.8601 70.5813C92.7523 70.6427 92.6357 70.687 92.5145 70.7125C92.3837 70.7125 92.281 70.5532 92.393 70.4408L97.6329 66.1305C97.8197 65.8775 98.2773 65.3247 98.2867 64.9874C98.3334 64.8843 98.0345 64.8937 97.8196 64.9218C97.5944 64.9518 97.3762 65.0216 97.1752 65.1279C95.7928 66.0087 93.7847 67.4517 92.393 68.3887C92.1689 68.5199 91.6272 69.0071 91.3937 68.9884C91.3524 68.9973 91.3095 68.9932 91.2707 68.9768C91.2318 68.9604 91.1989 68.9324 91.1765 68.8966C91.1541 68.8608 91.1432 68.8189 91.1453 68.7767C91.1474 68.7344 91.1623 68.6939 91.1882 68.6605C91.926 67.789 95.2511 63.9754 96.045 63.0384C96.3754 62.7318 96.5844 62.3159 96.6335 61.8672C96.7269 61.8016 96.4 61.7079 96.2318 61.7172C96.0637 61.7266 95.9049 61.9327 95.7275 62.0639C93.4672 63.8723 91.3937 66.1586 89.3108 68.1732C89.1334 68.3512 88.6944 68.6698 88.5449 68.2669C88.3955 67.864 88.8905 67.7047 89.0306 67.4704C89.9179 66.3367 90.8986 65.0811 91.7672 63.9286L93.5699 61.5579C93.9342 61.0988 94.6814 60.1243 93.4952 60.3586C91.6272 61.0238 85.7989 70.4595 83.9216 67.6766C83.7628 66.3273 83.9683 64.7156 83.8655 63.3663C83.7721 62.8978 83.7067 62.345 83.2584 62.1576C83.0903 62.0077 82.9875 62.345 82.8941 62.5418C82.801 62.7706 82.723 63.0054 82.6606 63.2445C81.7737 66.61 81.3183 70.1628 81.2622 73.6435C79.1607 82.545 76.7577 91.2892 73.937 99.9846L73.9398 99.9771Z" fill="#000A0E"/>
<path d="M83.5938 74.3666C84.2357 73.6999 84.7125 72.891 84.9854 72.0054C85.1933 71.0958 85.1933 70.1508 84.9854 69.2412" fill="white"/>
<path d="M83.5938 74.3666C84.1582 73.6508 84.5719 72.8274 84.8095 71.9463C85.0471 71.0652 85.1038 70.1449 84.9761 69.2412C85.3206 70.1317 85.3723 71.1094 85.1236 72.0316C84.8749 72.9537 84.3389 73.7719 83.5938 74.3666Z" fill="#000A0E"/>
<path d="M87.0859 68.4268C88.425 69.621 89.611 70.9775 90.6165 72.4653C89.2799 71.2685 88.0942 69.9123 87.0859 68.4268Z" fill="#000A0E"/>
</g>
<path opacity="0.6" fill-rule="evenodd" clip-rule="evenodd" d="M116.532 105.522C118.448 105.522 120.285 106.285 121.641 107.643C122.996 109.001 123.759 110.844 123.762 112.766C123.759 114.688 122.997 116.531 121.642 117.891C120.286 119.251 118.449 120.015 116.532 120.018C114.617 120.015 112.78 119.25 111.427 117.89C110.073 116.531 109.312 114.687 109.313 112.766C109.313 110.845 110.073 109.002 111.427 107.644C112.781 106.286 114.618 105.522 116.532 105.522Z" fill="#000A0E"/>
<path d="M116.566 109.749C116.358 109.749 116.158 109.832 116.011 109.98C115.864 110.127 115.781 110.327 115.781 110.536V112.635C115.781 112.844 115.864 113.044 116.011 113.192C116.158 113.339 116.358 113.422 116.566 113.422C116.774 113.422 116.973 113.339 117.121 113.192C117.268 113.044 117.35 112.844 117.35 112.635V110.536C117.35 110.433 117.33 110.33 117.291 110.235C117.251 110.139 117.193 110.053 117.121 109.98C117.048 109.906 116.961 109.849 116.866 109.809C116.771 109.769 116.669 109.749 116.566 109.749Z" fill="white"/>
<path d="M118.058 112.11H118.394V112.635C118.449 112.907 118.443 113.188 118.377 113.458C118.31 113.728 118.185 113.979 118.01 114.194C117.834 114.409 117.614 114.582 117.364 114.701C117.114 114.82 116.84 114.882 116.563 114.882C116.286 114.882 116.013 114.82 115.763 114.701C115.513 114.582 115.292 114.409 115.117 114.194C114.942 113.979 114.816 113.728 114.75 113.458C114.683 113.188 114.678 112.907 114.733 112.635V112.11H115.05" stroke="white" stroke-width="0.35" stroke-linecap="round" stroke-linejoin="round"/>
<path d="M116.562 114.472V115.521" stroke="white" stroke-width="0.35" stroke-linecap="round" stroke-linejoin="round"/>
<path d="M115.516 115.521H117.608" stroke="white" stroke-width="0.35" stroke-linecap="round" stroke-linejoin="round"/>
<path opacity="0.6" fill-rule="evenodd" clip-rule="evenodd" d="M135.8 105.522C136.748 105.522 137.687 105.71 138.562 106.074C139.438 106.438 140.234 106.971 140.905 107.644C141.575 108.316 142.107 109.115 142.47 109.994C142.833 110.872 143.019 111.814 143.019 112.766C143.019 114.687 142.259 116.531 140.905 117.89C139.552 119.25 137.715 120.015 135.8 120.018C133.883 120.015 132.046 119.251 130.69 117.891C129.335 116.531 128.573 114.688 128.57 112.766C128.573 110.844 129.336 109.001 130.691 107.643C132.046 106.285 133.884 105.522 135.8 105.522Z" fill="#000A0E"/>
<path d="M137.914 113.524L138.829 114.161V111.481L137.914 112.119V113.524Z" fill="white" stroke="white" stroke-width="0.35" stroke-linecap="round" stroke-linejoin="round"/>
<path d="M136.309 110.732H133.386C133.277 110.731 133.169 110.752 133.069 110.793C132.968 110.833 132.876 110.894 132.799 110.971C132.721 111.047 132.66 111.139 132.618 111.239C132.576 111.34 132.555 111.448 132.555 111.557V114.096C132.555 114.317 132.642 114.53 132.798 114.686C132.954 114.842 133.166 114.93 133.386 114.93H136.309C136.418 114.93 136.526 114.909 136.626 114.867C136.726 114.825 136.817 114.763 136.894 114.685C136.97 114.608 137.031 114.516 137.071 114.415C137.112 114.314 137.133 114.205 137.131 114.096V111.557C137.133 111.448 137.112 111.341 137.071 111.24C137.03 111.139 136.97 111.048 136.893 110.971C136.817 110.894 136.726 110.834 136.625 110.793C136.525 110.752 136.418 110.731 136.309 110.732Z" fill="white"/>
<path opacity="0.6" fill-rule="evenodd" clip-rule="evenodd" d="M35.3996 78.2559C37.3153 78.2559 39.1526 79.0187 40.5081 80.3767C41.8636 81.7348 42.6264 83.5771 42.6288 85.4989C42.6264 87.4216 41.8639 89.2649 40.5087 90.6244C39.1535 91.984 37.3162 92.7489 35.3996 92.7514C33.4839 92.7489 31.6475 91.9837 30.2938 90.6239C28.9401 89.264 28.1797 87.4208 28.1797 85.4989C28.1797 83.5779 28.9404 81.7356 30.2944 80.3773C31.6483 79.019 33.4848 78.2559 35.3996 78.2559Z" fill="#000A0E"/>
<path d="M35.433 82.4825C35.2249 82.4825 35.0254 82.5654 34.8782 82.713C34.7311 82.8606 34.6484 83.0608 34.6484 83.2696V85.3685C34.6484 85.5772 34.7311 85.7774 34.8782 85.925C35.0254 86.0726 35.2249 86.1555 35.433 86.1555C35.6411 86.1555 35.8406 86.0726 35.9878 85.925C36.1349 85.7774 36.2176 85.5772 36.2176 85.3685V83.2883C36.2214 83.183 36.2038 83.0781 36.166 82.9798C36.1281 82.8816 36.0708 82.7921 35.9974 82.7167C35.9241 82.6414 35.8362 82.5817 35.7392 82.5415C35.6421 82.5012 35.538 82.4811 35.433 82.4825Z" fill="white"/>
<path d="M36.925 84.8438H37.2612V85.3685C37.3163 85.6406 37.3104 85.9217 37.2439 86.1913C37.1775 86.4609 37.0521 86.7123 36.8769 86.9274C36.7017 87.1424 36.481 87.3157 36.2309 87.4347C35.9808 87.5537 35.7074 87.6154 35.4305 87.6154C35.1537 87.6154 34.8803 87.5537 34.6302 87.4347C34.38 87.3157 34.1594 87.1424 33.9842 86.9274C33.809 86.7123 33.6836 86.4609 33.6171 86.1913C33.5507 85.9217 33.5448 85.6406 33.5999 85.3685V84.8438H33.9174" stroke="white" stroke-width="0.35" stroke-linecap="round" stroke-linejoin="round"/>
<path d="M35.4297 87.2051V88.2545" stroke="white" stroke-width="0.35" stroke-linecap="round" stroke-linejoin="round"/>
<path d="M34.3828 88.2549H36.475" stroke="white" stroke-width="0.35" stroke-linecap="round" stroke-linejoin="round"/>
<path opacity="0.6" fill-rule="evenodd" clip-rule="evenodd" d="M54.6668 78.2559C56.5816 78.2559 58.418 79.019 59.772 80.3773C61.126 81.7356 61.8866 83.5779 61.8866 85.4989C61.8866 87.4208 61.1263 89.264 59.7725 90.6239C58.4188 91.9837 56.5825 92.7489 54.6668 92.7514C52.7502 92.7489 50.9128 91.984 49.5576 90.6244C48.2024 89.2649 47.44 87.4216 47.4375 85.4989C47.44 83.5771 48.2027 81.7348 49.5582 80.3767C50.9137 79.0187 52.7511 78.2559 54.6668 78.2559Z" fill="#000A0E"/>
<path d="M56.7891 86.2569L57.7044 86.8941V84.2236L56.7891 84.8514V86.2569Z" fill="white" stroke="white" stroke-width="0.35" stroke-linecap="round" stroke-linejoin="round"/>
<path d="M55.1844 83.4649H52.2609C52.1522 83.4637 52.0443 83.4841 51.9435 83.5249C51.8427 83.5658 51.751 83.6264 51.6737 83.7031C51.5964 83.7798 51.535 83.8711 51.4931 83.9717C51.4512 84.0724 51.4297 84.1804 51.4297 84.2895V86.8288C51.4297 87.0499 51.5172 87.2621 51.6731 87.4185C51.829 87.5748 52.0405 87.6627 52.2609 87.6627H55.1844C55.2931 87.6627 55.4008 87.6411 55.5011 87.5991C55.6014 87.557 55.6925 87.4954 55.7689 87.4179C55.8454 87.3403 55.9057 87.2483 55.9465 87.1472C55.9872 87.0461 56.0076 86.9378 56.0063 86.8288V84.2895C56.0076 84.1808 55.9872 84.073 55.9463 83.9724C55.9054 83.8718 55.845 83.7804 55.7684 83.7036C55.6918 83.6268 55.6007 83.5661 55.5004 83.5251C55.4001 83.4841 55.2927 83.4636 55.1844 83.4649Z" fill="white"/>
</svg>
