<svg width="219" height="140" viewBox="0 0 219 140" fill="none" xmlns="http://www.w3.org/2000/svg">
<mask id="mask0_3243_40673" style="mask-type:alpha" maskUnits="userSpaceOnUse" x="0" y="0" width="219" height="140">
<rect width="219" height="140" fill="#C4C4C4"/>
</mask>
<g mask="url(#mask0_3243_40673)">
</g>
<g clip-path="url(#clip0_3243_40673)">
<path d="M165.495 64.7158H107.118C105.293 64.7158 103.812 66.2031 103.812 68.0378V104.731C103.812 106.565 105.293 108.053 107.118 108.053H165.495C167.321 108.053 168.801 106.565 168.801 104.731V68.0378C168.801 66.2031 167.321 64.7158 165.495 64.7158Z" fill="#E8EDF0"/>
<path d="M168.801 72.5332H103.812V81.6946H168.801V72.5332Z" fill="#4C5864"/>
<path d="M110.656 89.7197H128.891" stroke="#4C5864" stroke-width="0.35" stroke-linecap="round" stroke-linejoin="round"/>
<path d="M110.656 95.4463H119.774" stroke="#4C5864" stroke-width="0.35" stroke-linecap="round" stroke-linejoin="round"/>
<path d="M80.4066 24.625C81.6028 29.4329 86.6888 50.453 75.3959 51.8632C51.8023 52.7813 76.7522 28.3539 80.4066 24.625Z" fill="#1C100D"/>
<path d="M75.3484 43.5342C77.2106 43.5342 78.7203 42.0173 78.7203 40.146C78.7203 38.2748 77.2106 36.7578 75.3484 36.7578C73.4862 36.7578 71.9766 38.2748 71.9766 40.146C71.9766 42.0173 73.4862 43.5342 75.3484 43.5342Z" fill="#E94335" stroke="white" stroke-width="0.35" stroke-miterlimit="10"/>
<path d="M64.9228 38.1113L60.449 47.9542C60.449 47.9542 60.5055 48.5126 58.5652 49.4401C54.082 51.6169 60.5243 54.0776 67.4093 55.1186C70.0654 55.5351 79.597 55.1187 75.3869 51.844C73.7169 50.537 72.1718 49.0763 70.7718 47.481L70.2726 41.2345L64.9228 38.1113Z" fill="white"/>
<path d="M71.2085 45.598L72.2727 42.5789L65.6797 40.6104C66.0321 41.8849 66.7399 43.0316 67.7194 43.9153C68.699 44.799 69.9096 45.3828 71.2085 45.598Z" fill="#1C100D"/>
<path d="M88.5159 62.7563C87.7718 59.0747 77.4866 53.8977 73.7569 50.1782C72.702 51.4748 69.0476 59.0746 67.6631 59.0746C64.7339 59.0746 61.4185 49.2791 60.4484 47.9541C56.1912 49.9889 48.2042 53.273 44.5781 56.2732C39.671 60.3145 51.9716 93.8275 51.9716 93.8275L73.3237 92.7107C73.3237 92.7107 89.9004 69.6084 88.5159 62.7563Z" fill="#ED3B33"/>
<path d="M73.757 50.1782C72.1087 52.7714 70.9314 55.6486 69.0477 58.0998C68.2754 59.1977 67.4654 59.633 66.3257 58.6866C63.2835 55.8473 62.304 51.5505 60.4297 47.9541C62.5018 51.3896 63.5472 55.6296 66.5235 58.4311C66.6892 58.5876 66.8849 58.7085 67.0987 58.7866C67.3124 58.8647 67.5397 58.8983 67.7668 58.8854C68.1839 58.656 68.5419 58.3319 68.8122 57.9389C70.6959 55.5066 71.9581 52.6862 73.7382 50.1971L73.757 50.1782Z" fill="#1C100D"/>
<path d="M78.9298 25.4204C79.3651 30.092 78.7205 34.8015 77.0461 39.1814C74.3241 45.7591 68.7954 45.3521 66.4784 42.7495C64.1614 40.1468 62.711 33.9761 62.9276 31.3072C63.21 29.2373 64.229 27.3404 65.7962 25.9675C67.3633 24.5947 69.3723 23.8388 71.4514 23.8398C77.0837 23.8398 78.9298 25.4204 78.9298 25.4204Z" fill="white"/>
<path d="M77.099 39.1807C75.8181 43.4964 70.8356 46.6007 66.974 43.2882C66.5273 42.8614 66.1464 42.3702 65.8438 41.8307C69.3851 46.629 75.1399 43.9885 77.099 39.1807Z" fill="#1C100D"/>
<path d="M37.6034 122.211C54.7735 122.211 71.9342 122.59 89.0949 122.211C88.3791 116.144 85.384 102.913 72.9138 96.2504L73.3188 92.6729L51.2886 92.001L51.8067 96.2504C51.8067 96.2504 34.8532 108.043 37.0854 122.211C37.2579 122.201 37.4308 122.201 37.6034 122.211Z" fill="#4C5864"/>
<path d="M62.5063 29.4334C59.5206 30.3798 60.2364 35.8123 63.58 35.1119C63.9959 35.0999 64.3976 34.9576 64.7291 34.705C64.4284 35.0138 64.0342 35.2136 63.6083 35.2728C59.935 36.2192 59.0214 30.0485 62.5063 29.3955V29.4334Z" fill="#000A0E"/>
<path d="M64.0409 40.7521C66.1216 40.7521 67.8083 39.0572 67.8083 36.9664C67.8083 34.8756 66.1216 33.1807 64.0409 33.1807C61.9602 33.1807 60.2734 34.8756 60.2734 36.9664C60.2734 39.0572 61.9602 40.7521 64.0409 40.7521Z" fill="#E94335" stroke="white" stroke-width="0.35" stroke-miterlimit="10"/>
<path d="M51.2928 57.9107C51.2928 57.9107 52.6302 61.8383 50.6335 70.4035C48.6367 78.9687 44.7468 100.538 44.7468 100.538C44.7468 100.538 42.0908 103.917 36.7975 101.92C31.5043 99.9226 32.0317 97.0455 32.0317 97.0455C32.0317 97.0455 31.0899 88.2816 37.6075 68.3782C44.2853 48.153 51.2928 57.9107 51.2928 57.9107Z" fill="#ED3B33"/>
<path d="M73.3098 92.6729L51.2891 92.001L51.7977 96.2504H72.9142L73.3098 92.6729Z" fill="#8E0E0E"/>
<path d="M61.6722 67.9048C58.6489 67.7155 54.9474 71.2362 52.2536 74.1323C49.5599 77.0283 42.0156 85.1392 42.0156 85.1392L45.4063 97.8214L60.834 71.7189C60.834 71.7189 64.6956 68.1035 61.6722 67.9048Z" fill="white"/>
<path d="M45.4062 97.8495C50.0214 89.6156 55.3052 80.6813 60.2876 72.665C55.6819 80.899 50.3981 89.8427 45.4062 97.8495Z" fill="#1C100D"/>
<path d="M38.1263 89.7109L43.0145 83.9756L46.4711 99.6863C46.4711 99.6863 43.5043 102.289 42.2987 102.156C40.123 101.939 35.8281 96.2508 35.8281 96.2508" fill="#ED3B33"/>
<path d="M38.125 89.7107C39.7576 87.6791 41.4121 85.6632 43.0886 83.6631L43.1545 83.947C44.3412 89.1713 45.4809 94.4145 46.4699 99.6861C45.1607 94.4808 43.9928 89.2754 42.872 84.0038L43.1263 84.07C41.478 85.9629 39.8109 87.8558 38.125 89.7486V89.7107Z" fill="#1C100D"/>
<path d="M82.5773 57.9111C82.5773 57.9111 110.042 79.5654 109.449 85.2629C108.413 95.0963 78.3672 83.1618 78.3672 83.1618L81.1928 75.704L82.5773 57.9111Z" fill="#ED3B33"/>
<path d="M82.5773 57.9111C82.5773 57.9111 110.042 79.5654 109.449 85.2629C108.413 95.0963 78.3672 83.1618 78.3672 83.1618" fill="#ED3B33"/>
<path d="M55.6406 76.0254C55.6406 76.0254 56.7332 78.4009 58.3061 78.7132C59.879 79.0255 84.1319 78.9498 84.1319 78.9498L78.6032 75.7509C78.6032 75.7509 56.0833 74.6057 55.6406 76.0254Z" fill="#000A0E" stroke="white" stroke-width="0.35" stroke-miterlimit="10"/>
<path d="M87.73 50.1221C81.25 54.0498 75.7777 75.0605 78.3679 77.4266C80.958 79.7926 107.452 80.3226 113.782 78.8462C120.874 77.1805 125.894 55.5262 125.894 52.5639C125.894 47.898 114.837 48.2198 109.779 47.898C104.005 47.5194 92.5429 47.1882 87.73 50.1221Z" fill="#000A0E" stroke="white" stroke-width="0.35" stroke-miterlimit="10"/>
<path d="M102.637 66.9962C104.12 66.9962 105.322 65.7886 105.322 64.2989C105.322 62.8092 104.12 61.6016 102.637 61.6016C101.155 61.6016 99.9531 62.8092 99.9531 64.2989C99.9531 65.7886 101.155 66.9962 102.637 66.9962Z" fill="white"/>
<path d="M66.0043 78.5717C65.8348 79.1869 70.7136 82.9253 74.5752 83.0956C78.4368 83.266 78.9831 83.0956 80.2829 82.7455C81.5827 82.3953 82.2796 80.5781 84.1822 80.4835C86.0848 80.3888 88.5054 79.2721 88.5054 78.5906C88.5054 77.9092 83.4853 78.3351 82.7977 78.5906C82.1101 78.8462 74.3209 78.5906 74.3209 78.5906L66.0043 78.5717Z" fill="white"/>
<path d="M80.2922 82.745C80.9839 82.3622 81.6026 81.8591 82.1194 81.2591C83.2968 80.0193 85.1428 80.4547 86.6121 79.8111C87.2809 79.5177 88.2039 79.3 88.4959 78.5713C88.4778 78.7772 88.3796 78.9676 88.2227 79.1013C87.1177 80.0026 85.7622 80.5381 84.3422 80.6345C83.5736 80.6544 82.8366 80.9459 82.2608 81.4579C81.7063 82.0357 81.0261 82.4763 80.2734 82.745H80.2922Z" fill="#1C100D"/>
<path d="M72.4146 80.5402C71.4728 79.9629 70.2107 79.0165 69.25 78.5527C70.2484 78.9313 71.6329 79.7641 72.5842 80.2563L72.4146 80.5402Z" fill="#1C100D"/>
<path d="M73.1016 78.5332L76.7748 80.2557L76.6241 80.5491L73.1016 78.5332Z" fill="#1C100D"/>
<path d="M60.617 71.8138C61.1488 72.0756 61.7381 72.1974 62.3295 72.1676C62.921 72.1378 63.4952 71.9574 63.9983 71.6434C63.9983 71.6434 65.3451 72.287 63.3578 72.9306C62.7079 73.1388 62.8303 74.5868 63.9983 74.3596C64.8855 74.1334 65.7226 73.7418 66.4659 73.205C66.7883 73.1912 67.1023 73.0975 67.38 72.9324C67.6576 72.7673 67.8904 72.5359 68.0577 72.2586C68.2978 72.2551 68.533 72.1897 68.7408 72.0687C68.9486 71.9478 69.122 71.7753 69.2444 71.5677C69.2444 71.5677 70.8362 75.1641 71.6839 74.5395C72.5315 73.9148 71.0057 69.2016 70.0356 67.11C69.728 66.3001 69.1641 65.614 68.4306 65.1575C67.6972 64.7009 66.8348 64.4991 65.9761 64.583C64.0924 65.0752 58.9688 68.5202 58.9688 68.5202" fill="white"/>
<path d="M69.2389 71.5582C69.4953 70.6328 69.4002 69.6447 68.972 68.7859C68.5437 67.927 67.813 67.2589 66.9219 66.9112L67.0537 66.6084C67.9616 67.0171 68.687 67.7487 69.0904 68.6625C69.4938 69.5762 69.5466 70.6076 69.2389 71.5582Z" fill="#1C100D"/>
<path d="M68.0538 72.249C68.2113 71.3347 68.0463 70.3937 67.5872 69.5886C67.1281 68.7834 66.4037 68.1645 65.5391 67.8387L65.6615 67.5264C66.547 67.9109 67.2708 68.5944 67.7077 69.4585C68.1446 70.3227 68.267 71.3132 68.0538 72.2585V72.249Z" fill="#1C100D"/>
<path d="M66.4619 73.2058C66.585 72.3334 66.3935 71.4454 65.9219 70.7025C65.4503 69.9596 64.7298 69.4107 63.8906 69.1551L63.9942 68.8428C64.8565 69.1537 65.5795 69.7647 66.0322 70.5651C66.4848 71.3654 66.6373 72.3023 66.4619 73.2058Z" fill="#1C100D"/>
<path d="M66.7924 98.3896C67.3657 106.339 67.2364 114.323 66.4062 122.249C66.9337 114.422 66.783 106.245 66.7924 98.3896Z" fill="#1C100D"/>
<path d="M67.2969 118.463C69.0055 116.738 70.194 114.563 70.7253 112.188C71.0566 109.777 71.167 107.341 71.0549 104.91C71.2071 106.125 71.2889 107.348 71.2998 108.573C71.4607 110.422 71.1817 112.283 70.4857 114.003C69.7897 115.723 68.6967 117.251 67.2969 118.463Z" fill="#1C100D"/>
<path d="M58.7844 97.8506C56.9007 104.618 51.3154 110.514 44.6094 105.062C51.5603 109.965 56.4204 104.353 58.7844 97.8506Z" fill="#1C100D"/>
<path d="M72.0625 97.8506C73.7013 101.078 76.7153 107.495 81.1515 104.722C80.7253 105.081 80.2322 105.351 79.701 105.517C75.7075 106.321 73.1833 100.926 72.0625 97.8506Z" fill="#1C100D"/>
<path d="M46.2773 106.235C41.568 109.974 41.1441 116.646 40.3906 122.202C40.6732 116.637 41.2383 109.624 46.2773 106.235Z" fill="#1C100D"/>
<path d="M76.2787 19.3725C63.5636 13.94 62.5841 25.9975 54.842 31.2691C40.2714 41.1214 52.5721 50.4911 60.4932 47.9546C62.6312 47.2637 60.7474 37.9036 63.0079 36.6921C67.7172 34.1746 70.5428 28.2879 70.7029 27.0859C71.0608 27.3604 73.1329 27.1616 74.0183 27.6916L74.9601 25.4675L75.3557 28.5907C77.6915 29.8305 79.7165 30.5688 80.065 29.4331C80.8656 27.0386 83.8418 22.6188 76.2787 19.3725Z" fill="#1C100D"/>
<path d="M74.8274 32.6602C74.6177 33.0015 74.5068 33.3948 74.5072 33.7959C74.5543 34.7423 74.5072 37.4112 74.5072 37.5816C74.5072 37.752 74.0551 38.2157 73.0473 37.9129C72.0395 37.61 71.9453 37.2503 71.9453 37.2503" stroke="#000A0E" stroke-width="0.35" stroke-miterlimit="10"/>
<path d="M74.2487 40.0139C74.2487 40.0139 70.8956 39.4745 69.8125 38.1211C70.1233 40.525 72.1672 41.6039 74.2487 40.0139Z" stroke="#000A0E" stroke-width="0.35" stroke-linecap="round" stroke-linejoin="round"/>
<path d="M72.5996 31.2692C72.2236 30.5859 71.612 30.0644 70.8799 29.8029C70.1477 29.5414 69.3458 29.558 68.625 29.8495" stroke="#1C100D" stroke-miterlimit="10" stroke-linecap="round"/>
<path d="M75.4219 31.7039C75.9231 31.378 76.5259 31.248 77.1161 31.3387C77.7062 31.4294 78.2429 31.7345 78.6242 32.1961" stroke="#1C100D" stroke-miterlimit="10" stroke-linecap="round"/>
<path d="M70.6559 33.0011C70.9836 33.0011 71.2492 32.7341 71.2492 32.4048C71.2492 32.0755 70.9836 31.8086 70.6559 31.8086C70.3282 31.8086 70.0625 32.0755 70.0625 32.4048C70.0625 32.7341 70.3282 33.0011 70.6559 33.0011Z" fill="#28282A"/>
<path d="M76.4449 34.7706C76.7726 34.7706 77.0383 34.5037 77.0383 34.1744C77.0383 33.8451 76.7726 33.5781 76.4449 33.5781C76.1172 33.5781 75.8516 33.8451 75.8516 34.1744C75.8516 34.5037 76.1172 34.7706 76.4449 34.7706Z" fill="#28282A"/>
<path d="M128.345 42.0585C133.766 42.0585 138.16 37.6433 138.16 32.1967C138.16 26.7502 133.766 22.335 128.345 22.335C122.925 22.335 118.531 26.7502 118.531 32.1967C118.531 37.6433 122.925 42.0585 128.345 42.0585Z" fill="#634CE1"/>
<path d="M131.969 29.6973L126.987 34.6944L124.727 32.423" stroke="white" stroke-width="2"/>
<path d="M28.3303 122.89C28.2693 122.89 28.1117 122.844 27.9434 122.555C27.7794 122.273 27.6719 121.857 27.6719 121.398C27.6719 120.938 27.7794 120.522 27.9434 120.24C28.1117 119.951 28.2693 119.905 28.3303 119.905H185.8C185.861 119.905 186.019 119.951 186.187 120.24L186.619 119.989L186.187 120.24C186.351 120.522 186.458 120.938 186.458 121.398C186.458 121.857 186.351 122.273 186.187 122.555L186.619 122.806L186.187 122.555C186.019 122.844 185.861 122.89 185.8 122.89H28.3303Z" fill="#576370" stroke="white"/>
<path d="M161.87 110.513L161.854 110.5C160.401 109.363 159.21 107.922 158.364 106.278C157.518 104.634 157.037 102.826 156.954 100.977L156.953 100.966V100.954V91.4901V91.4825L156.953 91.4748C156.958 91.3266 157.011 91.1844 157.105 91.0701L161.87 110.513ZM161.87 110.513L161.887 110.524M161.87 110.513L161.887 110.524M161.887 110.524L164.325 112.132L161.887 110.524ZM157.481 90.84L157.489 90.8385L165.738 89.23C165.738 89.2299 165.739 89.2298 165.739 89.2297C167.177 88.9426 168.054 88.8169 168.469 88.7573C168.482 88.7555 168.494 88.7538 168.505 88.7521L168.541 88.7471H168.576H169.019H169.055L169.09 88.7521C169.102 88.7538 169.114 88.7555 169.126 88.7573C169.542 88.8169 170.419 88.9426 171.857 89.2297C171.857 89.2298 171.858 89.2299 171.858 89.23L180.106 90.8385L180.114 90.84L180.122 90.8418C180.267 90.8749 180.397 90.9554 180.491 91.0701C180.491 91.0701 180.491 91.0701 180.491 91.0701L180.104 91.387L157.481 90.84ZM157.481 90.84L157.474 90.8418M157.481 90.84L157.474 90.8418M157.474 90.8418C157.328 90.875 157.199 90.9556 157.105 91.0701L157.474 90.8418Z" fill="#3062CC" stroke="white"/>
<path d="M172.128 98.1148H171.648V97.1684C171.648 96.4154 171.35 95.6932 170.82 95.1607C170.29 94.6283 169.572 94.3291 168.822 94.3291C168.073 94.3291 167.354 94.6283 166.824 95.1607C166.294 95.6932 165.997 96.4154 165.997 97.1684V98.1148H165.526C165.22 98.1148 164.927 98.2362 164.71 98.4524C164.493 98.6687 164.37 98.9624 164.367 99.2695V103.803C164.37 104.11 164.493 104.404 164.71 104.62C164.927 104.836 165.22 104.958 165.526 104.957H172.185C172.489 104.957 172.782 104.836 172.997 104.619C173.213 104.403 173.334 104.109 173.334 103.803V99.2695C173.334 99.1129 173.302 98.958 173.241 98.8141C173.18 98.6702 173.09 98.5403 172.977 98.4323C172.865 98.3243 172.731 98.2404 172.585 98.1859C172.439 98.1313 172.284 98.1071 172.128 98.1148ZM167.24 97.1684C167.27 96.774 167.448 96.4057 167.737 96.137C168.026 95.8684 168.405 95.7192 168.799 95.7192C169.192 95.7192 169.571 95.8684 169.86 96.137C170.149 96.4057 170.327 96.774 170.357 97.1684V98.1148H167.24V97.1684Z" fill="white"/>
</g>
<defs>
<clipPath id="clip0_3243_40673">
<rect width="162" height="106" fill="white" transform="translate(27 18)"/>
</clipPath>
</defs>
</svg>
