<svg width="32" height="32" viewBox="0 0 32 32" fill="none" xmlns="http://www.w3.org/2000/svg">
<path d="M20.1042 16.1331V15.0137C20.1055 14.427 19.8652 13.8639 19.4363 13.4486C19.0073 13.0332 18.425 12.7998 17.8177 12.7998H13.224C12.6167 12.7998 12.0343 13.0332 11.6054 13.4486C11.1764 13.8639 10.9361 14.427 10.9375 15.0137V16.1331" stroke="#00060C" stroke-width="1.3"/>
<path d="M15.6953 11.1338C17.076 11.1338 18.1953 10.0145 18.1953 8.63379C18.1953 7.25308 17.076 6.13379 15.6953 6.13379C14.3146 6.13379 13.1953 7.25308 13.1953 8.63379C13.1953 10.0145 14.3146 11.1338 15.6953 11.1338Z" stroke="#00060C" stroke-width="1.3"/>
<path fill-rule="evenodd" clip-rule="evenodd" d="M27.6334 3.38672H29.2654C30.149 3.38672 30.8654 4.10306 30.8654 4.98672V25.8214C30.8654 26.705 30.149 27.4214 29.2654 27.4214H2.65469C1.77103 27.4214 1.05469 26.705 1.05469 25.8214V4.98939C1.05469 4.10573 1.77103 3.38939 2.65469 3.38939L27.6334 3.38672Z" stroke="#00060C" stroke-width="1.3"/>
<path fill-rule="evenodd" clip-rule="evenodd" d="M6.37389 18.2L6.92833 19.3341C7.04064 19.5576 7.25435 19.7125 7.5014 19.7494L8.75006 19.9315C8.80267 19.9388 8.84658 19.9754 8.86337 20.0258C8.88017 20.0763 8.86695 20.132 8.82926 20.1695L7.92539 21.0515C7.74652 21.2278 7.66478 21.4804 7.70641 21.7282L7.92073 22.9696C7.92986 23.0217 7.90888 23.0745 7.8665 23.1061C7.82413 23.1377 7.7676 23.1426 7.72038 23.1189L6.60219 22.5309C6.38057 22.4139 6.11561 22.4139 5.89399 22.5309L4.7758 23.1189C4.72858 23.1426 4.67205 23.1377 4.62968 23.1061C4.5873 23.0745 4.56632 23.0217 4.57545 22.9696L4.78977 21.7282C4.8314 21.4804 4.74966 21.2278 4.57079 21.0515L3.66692 20.1695C3.6294 20.1326 3.61568 20.0778 3.63141 20.0276C3.64714 19.9774 3.68966 19.9402 3.74146 19.9315L4.99012 19.7588C5.23841 19.7249 5.45342 19.5691 5.56319 19.3434L6.13627 18.2C6.16176 18.1589 6.2067 18.1338 6.25508 18.1338C6.30346 18.1338 6.3484 18.1589 6.37389 18.2Z" fill="#E94335"/>
<path fill-rule="evenodd" clip-rule="evenodd" d="M15.5099 18.2037L16.069 19.3369C16.1813 19.5602 16.395 19.715 16.642 19.7519L17.8907 19.9338C17.9433 19.9411 17.9872 19.9777 18.004 20.0281C18.0208 20.0786 18.0076 20.1342 17.9699 20.1716L17.066 21.053C16.8874 21.2292 16.8072 21.4822 16.8517 21.7292L17.066 22.9697C17.0751 23.0218 17.0542 23.0746 17.0118 23.1061C16.9694 23.1377 16.9129 23.1426 16.8657 23.1189L15.7475 22.5313C15.5259 22.4144 15.2609 22.4144 15.0393 22.5313L13.9164 23.1189C13.8692 23.1426 13.8127 23.1377 13.7703 23.1061C13.7279 23.0746 13.7069 23.0218 13.7161 22.9697L13.9304 21.7292C13.972 21.4816 13.8903 21.2292 13.7114 21.053L12.8075 20.1716C12.77 20.1348 12.7563 20.08 12.772 20.0299C12.7878 19.9797 12.8303 19.9426 12.8821 19.9338L14.1307 19.7613C14.3778 19.7243 14.5915 19.5695 14.7038 19.3462L15.2629 18.213C15.2854 18.1663 15.3318 18.1358 15.3836 18.1339C15.4353 18.1319 15.4839 18.1588 15.5099 18.2037Z" fill="#E94335"/>
<path fill-rule="evenodd" clip-rule="evenodd" d="M25.7951 18.2082L26.3542 19.3404C26.464 19.5656 26.679 19.7212 26.9273 19.755L28.176 19.9367C28.2278 19.9455 28.2703 19.9826 28.286 20.0327C28.3017 20.0829 28.288 20.1376 28.2505 20.1744L27.3466 21.0549C27.1678 21.2309 27.086 21.4831 27.1277 21.7305L27.342 22.9699C27.3511 23.0219 27.3301 23.0746 27.2877 23.1061C27.2454 23.1377 27.1888 23.1426 27.1416 23.1189L26.0234 22.5319C25.8018 22.4151 25.5369 22.4151 25.3152 22.5319L24.197 23.1189C24.1498 23.1426 24.0933 23.1377 24.0509 23.1061C24.0085 23.0746 23.9876 23.0219 23.9967 22.9699L24.211 21.7305C24.2543 21.483 24.1723 21.23 23.992 21.0549L23.0882 20.1744C23.0505 20.1369 23.0373 20.0814 23.0541 20.031C23.0708 19.9806 23.1148 19.9441 23.1674 19.9367L24.416 19.7644C24.6631 19.7274 24.8768 19.5728 24.9891 19.3497L25.5435 18.2175C25.5651 18.1684 25.6128 18.1359 25.6664 18.1339C25.72 18.1319 25.77 18.1608 25.7951 18.2082Z" fill="#E94335"/>
<path d="M4.46875 30.397H27.4367" stroke="#00060C" stroke-width="1.3"/>
</svg>
