<svg width="32" height="32" viewBox="0 0 32 32" fill="none" xmlns="http://www.w3.org/2000/svg">
<path d="M14.6016 21.1509L23.7424 11.8672" stroke="#E94335" stroke-width="1.3"/>
<path d="M15.8555 29.3738V27.3453C15.8555 26.4109 15.4651 25.5148 14.7706 24.8548C14.076 24.1948 13.1342 23.8251 12.1531 23.8272H4.75658C2.7164 23.8272 1.0625 25.4023 1.0625 27.3453V29.3738" stroke="#E94335" stroke-width="1.3"/>
<path d="M8.45971 20.361C10.4999 20.361 12.1538 18.6538 12.1538 16.5477C12.1538 14.4417 10.4999 12.7344 8.45971 12.7344C6.41952 12.7344 4.76562 14.4417 4.76562 16.5477C4.76562 18.6538 6.41952 20.361 8.45971 20.361Z" stroke="#E94335" stroke-width="1.3"/>
<path d="M6.92969 10.7851V5.7334C6.92969 4.62883 7.82512 3.7334 8.92969 3.7334H29.1964C30.3009 3.7334 31.1964 4.62883 31.1964 5.7334V23.0667C31.1964 24.1713 30.3009 25.0667 29.1964 25.0667H17.2925" stroke="#00060C" stroke-width="1.3"/>
</svg>
