<svg width="32" height="32" viewBox="0 0 32 32" fill="none" xmlns="http://www.w3.org/2000/svg">
<path fill-rule="evenodd" clip-rule="evenodd" d="M27.8221 0.959961H29.4413C29.8656 0.959961 30.2726 1.12853 30.5726 1.42859C30.8727 1.72865 31.0413 2.13561 31.0413 2.55996V23.36C31.0413 24.2436 30.3249 24.96 29.4413 24.96H2.88125C2.4569 24.96 2.04994 24.7914 1.74988 24.4913C1.44982 24.1913 1.28125 23.7843 1.28125 23.36V2.55996C1.28125 1.67631 1.99759 0.959961 2.88125 0.959961H27.8221Z" stroke="#00060C" stroke-width="1.3"/>
<path d="M4.67188 28.1333H27.6399" stroke="#00060C" stroke-width="1.3"/>
<path d="M12.7266 14.8254L15.9522 11.9806" stroke="#E94335" stroke-width="1.3"/>
<path d="M10.0781 9.35675V8.31995H24.1581V16.9599H14.4525" stroke="#00060C" stroke-width="1.3"/>
<path d="M12.7208 17.1744V16.4608C12.7208 16.0835 12.5707 15.7216 12.3036 15.4551C12.0364 15.1885 11.6742 15.0392 11.2968 15.04H8.45205C7.66736 15.04 7.03125 15.6762 7.03125 16.4608V17.1744" stroke="#E94335" stroke-width="1.5"/>
<path d="M9.87393 13.7215C10.6586 13.7215 11.2947 13.0854 11.2947 12.3007C11.2947 11.516 10.6586 10.8799 9.87393 10.8799C9.08924 10.8799 8.45312 11.516 8.45312 12.3007C8.45312 13.0854 9.08924 13.7215 9.87393 13.7215Z" stroke="#E94335" stroke-width="1.5"/>
</svg>
