<svg width="32" height="32" viewBox="0 0 32 32" fill="none" xmlns="http://www.w3.org/2000/svg">
<path fill-rule="evenodd" clip-rule="evenodd" d="M14.0234 17.6641L22.0318 13.1348L29.8921 26.4712L24.0384 25.5979L21.8837 31.0005L14.0234 17.6641Z" stroke="#00060C" stroke-width="1.3"/>
<path fill-rule="evenodd" clip-rule="evenodd" d="M17.8906 17.6641L9.88222 13.1348L2.022 26.4712L7.87567 25.5979L10.0304 31.0005L17.8906 17.6641Z" stroke="#00060C" stroke-width="1.3"/>
<path fill-rule="evenodd" clip-rule="evenodd" d="M14.66 2.4573C13.8931 2.02935 13.0084 2.03014 12.2665 2.3518C11.5232 2.67409 10.9272 3.31701 10.7347 4.15937C10.6477 4.5404 10.5754 4.92431 10.5032 5.30833C10.4701 5.48426 10.437 5.66021 10.4024 5.83588C10.3758 5.9728 10.3464 6.08174 9.97199 6.27763C9.46594 6.37497 8.95968 6.46768 8.4525 6.55498C7.4472 6.72844 6.71863 7.35203 6.37859 8.13352C6.03867 8.91473 6.08358 9.8617 6.65127 10.6931C6.93926 11.1154 7.22742 11.5379 7.51372 11.9613C7.5953 12.0823 7.64522 12.2028 7.64522 12.3263C7.64522 12.4476 7.59661 12.5661 7.51481 12.686C7.21946 13.1186 6.92398 13.5514 6.63128 13.9852C6.08216 14.7973 6.04332 15.7374 6.38159 16.5163C6.7206 17.297 7.43971 17.9193 8.41647 18.0892C8.93501 18.1793 9.45342 18.2702 10.274 18.4915C10.3466 18.5645 10.374 18.6732 10.4002 18.8092C10.4295 18.962 10.4582 19.1154 10.4869 19.2688C10.5564 19.6405 10.626 20.0121 10.7044 20.3823C10.9031 21.3208 11.5352 22.0022 12.3188 22.3214C13.1022 22.6404 14.0421 22.5992 14.8629 22.0768C15.3094 21.7916 15.7525 21.5005 16.1946 21.2093C16.3204 21.1265 16.4443 21.0733 16.5723 21.0718C16.6914 21.0703 16.8078 21.1158 16.927 21.1942C17.3985 21.5039 17.8718 21.8117 18.3497 22.1132C19.1355 22.6082 20.0698 22.6343 20.8529 22.3091C21.6376 21.9832 22.266 21.3065 22.444 20.4109C22.5325 19.9641 22.6152 19.5168 22.7282 18.9053C22.7614 18.7244 22.7872 18.5889 22.8749 18.5021C22.9622 18.4157 23.0993 18.3899 23.2813 18.3566C23.4406 18.3273 23.5997 18.2994 23.7588 18.2716C24.1391 18.2049 24.5193 18.1381 24.8958 18.0548C25.7999 17.8565 26.4696 17.2369 26.7859 16.4741C27.1022 15.7111 27.0634 14.8073 26.559 14.045C26.2449 13.5703 25.928 13.0974 25.6099 12.0207C25.7047 11.8788 25.8023 11.7384 25.8999 11.598C26.1341 11.2608 26.3679 10.9231 26.568 10.5676C26.6593 10.4054 26.752 10.1609 26.8246 9.92334C26.8727 9.76627 26.9134 9.61324 26.9807 9.18235C26.9767 8.51154 26.7476 7.91752 26.3574 7.46039C25.9658 7.00151 25.4096 6.67759 24.7399 6.55982C24.4435 6.50767 24.1477 6.45229 23.8522 6.39696C23.6509 6.35928 23.4497 6.32162 23.2486 6.28498C23.0844 6.25509 22.9579 6.22839 22.8749 6.14923C22.7952 6.0732 22.768 5.95625 22.7381 5.80523C22.6396 5.30927 22.5457 4.81154 22.4546 4.31472C22.281 3.37131 21.6474 2.67147 20.8538 2.33905C20.0811 2.01537 19.1462 2.01564 18.0405 2.72947C17.7129 2.93949 17.3834 3.15088 17.0653 3.3773C16.9012 3.49421 16.7434 3.56478 16.5805 3.56516C16.4164 3.56554 16.2567 3.49497 16.0908 3.37878C15.6263 3.05361 15.1549 2.73285 14.66 2.4573Z" fill="white" stroke="#00060C" stroke-width="1.3"/>
<path fill-rule="evenodd" clip-rule="evenodd" d="M16.6277 6.88887C13.5034 6.86413 11.0874 9.19458 11.0704 12.2476C11.0526 15.3675 13.3908 17.7361 16.5108 17.7588C19.7603 17.7825 22.1353 15.5077 22.1669 12.3424C22.1974 9.25127 19.8235 6.9136 16.6277 6.88887Z" stroke="#E94335" stroke-width="1.3"/>
</svg>
