<svg width="32" height="32" viewBox="0 0 32 32" fill="none" xmlns="http://www.w3.org/2000/svg">
<path d="M8.58706 22.4672C7.95564 22.613 7.25112 22.7756 6.45283 22.9599C5.82284 23.1054 5.19106 22.6983 5.04165 22.0512L1.22372 5.51388C1.07432 4.86673 1.46372 4.22392 2.09371 4.07847L14.8072 1.14334C15.4371 0.997896 16.0684 1.40507 16.2178 2.05222C16.4164 2.91227 16.5951 3.68627 16.7573 4.38904" stroke="#00060C" stroke-width="1.3"/>
<path d="M19.8058 25.7306C17.4805 25.7306 15.9305 25.7306 11.28 25.7306C10.6334 25.7306 10.1094 25.1919 10.1094 24.5277V7.55545C10.1094 6.89128 10.6334 6.35254 11.28 6.35254H24.3278C24.9744 6.35254 25.4979 6.89128 25.4979 7.55545C25.4979 14.5881 25.4979 16.0143 25.4979 19.5306" stroke="#00060C" stroke-width="1.3"/>
<path d="M22.3309 31.0889L22.0746 20.8594C22.0699 20.6706 22.2191 20.5137 22.4079 20.509C22.4819 20.5071 22.5545 20.5293 22.6148 20.5722L30.9521 26.5049" stroke="#E94335" stroke-width="1.3"/>
<path d="M12.3828 15.1865H22.0719" stroke="#E94335" stroke-width="1.3"/>
<path d="M12.3828 17.4668H19.2221" stroke="#E94335" stroke-width="1.3"/>
<path d="M14.9479 12.6224C16.0496 12.6224 16.9427 11.7293 16.9427 10.6276C16.9427 9.52592 16.0496 8.63281 14.9479 8.63281C13.8462 8.63281 12.9531 9.52592 12.9531 10.6276C12.9531 11.7293 13.8462 12.6224 14.9479 12.6224Z" stroke="#E94335" stroke-width="1.5"/>
</svg>
