<svg width="219" height="140" viewBox="0 0 219 140" fill="none" xmlns="http://www.w3.org/2000/svg">
<mask id="mask0_3243_40734" style="mask-type:alpha" maskUnits="userSpaceOnUse" x="0" y="0" width="219" height="140">
<rect width="219" height="140" fill="#C4C4C4"/>
</mask>
<g mask="url(#mask0_3243_40734)">
</g>
<g clip-path="url(#clip0_3243_40734)">
<path d="M73.1795 26.8848H33.1484V72.6612H73.1795V26.8848Z" fill="white"/>
<path d="M73.0233 27.0455V72.5198H33.3007V27.0455H73.0233ZM73.3317 26.7345H32.9922V72.8308H73.3317V26.7256V26.7345Z" fill="#4C5864"/>
<path d="M70.3083 29.7812H36.0312V69.7646H70.3083V29.7812Z" fill="white"/>
<path d="M70.1609 29.9418V69.6053H36.1834V29.9418H70.1609ZM70.4693 29.6309H35.875V69.9163H70.4693V29.6309Z" fill="#4C5864"/>
<g opacity="0.3">
<path opacity="0.3" d="M65.0942 35.042H41.25V64.5053H65.0942V35.042Z" fill="#4C5864"/>
</g>
<path d="M53.1681 49.6581C56.1562 49.6581 58.5784 47.2156 58.5784 44.2026C58.5784 41.1896 56.1562 38.7471 53.1681 38.7471C50.1801 38.7471 47.7578 41.1896 47.7578 44.2026C47.7578 47.2156 50.1801 49.6581 53.1681 49.6581Z" fill="#634CE1"/>
<path d="M45.4375 53.7451H60.893" stroke="#4C5864" stroke-width="0.35" stroke-linecap="round" stroke-linejoin="round"/>
<path d="M48.5547 56.2686H57.7804" stroke="#4C5864" stroke-width="0.35" stroke-linecap="round" stroke-linejoin="round"/>
<path d="M117.336 133.771V113.944H133.483V133.771H117.336Z" fill="#576370" stroke="white"/>
<path d="M133.82 113.595V134.102H116.972V113.595H133.82ZM134.129 113.284H116.664V134.413H134.129V113.284Z" fill="white"/>
<path d="M79.9175 125.341C76.2187 125.339 72.6722 123.856 70.0568 121.219C67.4414 118.582 65.9711 115.006 65.9688 111.276V59.6443C65.9734 55.9177 67.4436 52.3452 70.0568 49.7101C72.67 47.075 76.213 45.5926 79.9086 45.5879H170.888C174.584 45.5926 178.127 47.075 180.74 49.7101C183.354 52.3452 184.824 55.9177 184.828 59.6443V111.276C184.826 115.004 183.357 118.579 180.743 121.216C178.13 123.853 174.586 125.337 170.888 125.341H79.9175Z" fill="#F4F6F8"/>
<path d="M170.899 45.7036C174.555 45.7083 178.059 47.1748 180.645 49.7815C183.23 52.3883 184.684 55.9224 184.689 59.6089V111.276C184.684 114.963 183.23 118.497 180.645 121.104C178.059 123.71 174.555 125.177 170.899 125.182H79.9189C78.1076 125.183 76.3139 124.824 74.6403 124.125C72.9667 123.427 71.446 122.403 70.1652 121.111C68.8845 119.82 67.8688 118.287 67.1761 116.599C66.4835 114.911 66.1276 113.103 66.1288 111.276V59.6444C66.1265 57.816 66.4813 56.0051 67.173 54.3149C67.8648 52.6248 68.88 51.0886 70.1605 49.7941C71.441 48.4996 72.9619 47.472 74.6362 46.7702C76.3106 46.0683 78.1056 45.7059 79.9189 45.7036H170.899ZM170.899 45.3926H79.9189C76.1797 45.3926 72.5937 46.8904 69.9497 49.5564C67.3057 52.2225 65.8203 55.8385 65.8203 59.6089V111.276C65.8203 115.047 67.3057 118.663 69.9497 121.329C72.5937 123.995 76.1797 125.493 79.9189 125.493H170.899C174.638 125.493 178.224 123.995 180.868 121.329C183.512 118.663 184.997 115.047 184.997 111.276V59.6444C184.997 55.874 183.512 52.2581 180.868 49.592C178.224 46.9259 174.638 45.4281 170.899 45.4281V45.3926Z" fill="#4C5864"/>
<path d="M116.817 35.122C116.817 35.5396 114.059 44.8957 113.152 46.4239C112.244 47.9522 107.68 50.9465 107.68 50.9465C107.68 50.9465 111.856 66.5222 124.272 66.9398C136.688 67.3574 131.771 50.3778 131.771 50.3778L125.937 48.1654L125.638 37.9386C125.638 37.9386 125.224 29.4444 122.457 27.7117C118.351 25.1795 116.817 35.122 116.817 35.122Z" fill="white"/>
<path d="M116.815 35.1221C116.056 38.2057 115.141 41.2484 114.075 44.2383C113.691 45.8003 112.794 47.1849 111.528 48.1655C110.334 49.1794 109.068 50.103 107.739 50.9288C108.847 54.6466 110.687 58.1007 113.15 61.0846C116.674 65.4383 123.001 68.3171 128.447 66.1136C133.927 63.217 132.852 55.558 131.663 50.449L131.733 50.529L125.9 48.2988C125.883 48.2909 125.868 48.2785 125.857 48.2629C125.846 48.2473 125.84 48.229 125.838 48.21C125.609 43.5097 125.926 36.7747 124.755 32.2166C124.323 30.0042 122.596 25.9348 119.838 27.8274C117.899 29.6755 117.344 32.5543 116.815 35.0954V35.1221ZM116.815 35.1221C117.335 32.5631 117.864 29.6932 119.811 27.8185C122.596 25.8726 124.402 29.9776 124.843 32.2166C126.041 36.7392 125.724 43.5186 126.032 48.21L125.971 48.13L131.804 50.3246C133.037 54.8205 133.786 60.5604 130.923 64.5854C128.279 67.8018 123.574 67.5086 120.032 66.3002C113.555 63.8834 109.634 57.335 107.695 50.9644C109.519 49.5339 111.749 48.2988 113.185 46.424C114.717 42.7658 115.955 38.9893 116.886 35.131L116.815 35.1221Z" fill="#28282A"/>
<path d="M119.467 37.7069C119.106 36.0187 125.706 40.5058 125.706 40.5058L125.873 44.4064C125.873 44.4064 120.921 44.4419 119.467 37.7069Z" fill="#28282A"/>
<path d="M117.891 31.3541C117.891 31.3541 117.521 22.1845 121.812 20.8784C126.103 19.5723 132.386 21.456 132.967 24.3259C133.196 25.2368 133.27 26.18 133.188 27.1158C133.117 28.2087 132.967 30.2612 132.959 30.6699C132.867 33.0797 132.473 35.4681 131.787 37.7781C130.844 40.7102 129.443 43.0381 126.429 43.1092C121.821 43.2691 119.547 37.7781 119.547 37.7781" fill="white"/>
<path d="M117.891 31.3539C117.891 27.7999 118.014 21.829 122.191 20.6917C125.495 19.8743 131.883 20.5762 133.108 24.3169C133.38 25.5985 133.437 26.917 133.276 28.2175C132.906 32.7934 132.861 39.7682 128.72 42.6204C124.913 44.7173 120.939 41.3142 119.547 37.8135C120.992 41.2076 124.931 44.5129 128.623 42.4604C132.659 39.6083 132.632 32.6867 132.967 28.1997C133.137 26.9244 133.09 25.6292 132.826 24.3702C131.601 20.8161 125.416 20.1142 122.252 20.8783C118.225 21.9534 118.005 27.8976 117.908 31.3717L117.891 31.3539Z" fill="#28282A"/>
<path d="M131.492 32.4832C131.832 32.4832 132.109 32.2047 132.109 31.8612C132.109 31.5177 131.832 31.2393 131.492 31.2393C131.151 31.2393 130.875 31.5177 130.875 31.8612C130.875 32.2047 131.151 32.4832 131.492 32.4832Z" fill="#28282A"/>
<path d="M125.086 31.9588C125.426 31.9588 125.702 31.6803 125.702 31.3368C125.702 30.9933 125.426 30.7148 125.086 30.7148C124.745 30.7148 124.469 30.9933 124.469 31.3368C124.469 31.6803 124.745 31.9588 125.086 31.9588Z" fill="#28282A"/>
<path d="M129.115 30.2793C128.958 30.6769 128.915 31.1111 128.992 31.5321C129.194 32.4739 129.652 35.3083 129.67 35.5216C129.688 35.7348 129.309 36.2679 128.199 36.1346C127.088 36.0014 126.93 35.6459 126.93 35.6459" stroke="#28282A" stroke-width="0.35" stroke-linecap="round" stroke-linejoin="round"/>
<path d="M129.083 37.7072C127.695 37.6361 126.319 37.4187 124.977 37.0586C125.752 38.9511 127.655 39.4221 129.083 37.7072Z" stroke="#28282A" stroke-width="0.35" stroke-linecap="round" stroke-linejoin="round"/>
<path d="M131.63 50.1467C131.63 50.1467 126.898 57.1572 118.413 56.3664C112.245 55.7533 109.39 49.4004 109.39 49.4004C109.39 49.4004 98.7541 55.62 97.2473 59.1741C92.0485 71.4623 107.249 101.317 115.249 110.122C123.25 118.927 132.176 107.021 132.176 107.021C132.176 107.021 148.205 71.0092 143.781 59.4051C142.548 56.0554 131.63 50.1467 131.63 50.1467Z" fill="#ED3B33"/>
<path d="M111.848 105.616C111.848 105.51 102.93 82.0705 103.803 72.3057C104.208 67.7387 100.745 69.107 96.9297 71.8703C99.159 83.2966 106.164 97.3885 111.848 105.616Z" fill="#CC332C"/>
<path d="M142.908 76.145C142.987 75.7452 143.084 75.3453 143.154 74.9455L138.969 64.6387C138.969 64.6387 139.022 70.0409 139.7 80.09C139.84 82.4301 139.861 84.776 139.762 87.1182C140.943 83.5197 142.053 79.7613 142.908 76.145Z" fill="#CC332C"/>
<path d="M120.928 28.276C121.811 25.4028 120.259 22.3646 117.46 21.4901C114.662 20.6155 111.678 22.2358 110.794 25.109C109.911 27.9823 111.464 31.0205 114.262 31.895C117.06 32.7696 120.045 31.1493 120.928 28.276Z" fill="#000A0E"/>
<path d="M126.109 16.9162C128.665 17.245 129.149 18.4267 129.149 18.4267C137.855 19.3152 135.846 26.7877 133.212 27.3119C128.427 28.2804 122.127 25.7303 122.294 24.9751C120.585 32.7496 117.086 30.4217 117.086 30.4217C114.443 25.446 117.368 17.0939 126.109 16.8984" fill="#000A0E"/>
<path d="M118.281 30.6698L104.315 94.9985C104.315 94.9985 105.707 97.2553 103.037 99.3611C100.367 101.467 101.046 102.782 101.046 102.782C101.046 102.782 97.7235 99.6543 102.543 94.7853C103.151 89.5963 114.104 32.047 114.104 32.047C114.104 32.047 117.188 29.7102 118.281 30.6698Z" fill="#000A0E"/>
<path d="M118.28 30.6699C118.445 32.0395 118.38 33.4273 118.087 34.7749C117.783 35.5829 117.387 36.3523 116.906 37.0673L113.196 36.8007C113.014 36.003 112.949 35.1829 113.002 34.3662C113.171 33.5069 113.549 32.7037 114.104 32.0294" fill="#000A0E"/>
<path d="M116.966 36.8184C117.131 38.185 117.065 39.5698 116.772 40.9144C116.468 41.7248 116.072 42.4969 115.592 43.2157L112.067 42.9403C111.767 42.1656 111.632 41.3363 111.67 40.5057C111.794 39.3417 113.353 36.8983 113.353 36.8983" fill="#000A0E"/>
<path d="M115.493 43.0384C115.717 44.2902 115.687 45.5749 115.405 46.8146C115.15 47.5419 114.791 48.2274 114.339 48.8493L110.928 48.7605C110.674 47.7691 110.608 46.7379 110.735 45.7218C111.051 44.6974 111.508 43.7225 112.092 42.8252" fill="#000A0E"/>
<path d="M114.27 48.6625C114.489 49.9146 114.459 51.1983 114.182 52.4387C113.927 53.1659 113.568 53.8515 113.116 54.4734L109.961 54.1624C109.641 53.2055 109.533 52.1895 109.644 51.1859C109.927 50.2231 110.335 49.3027 110.86 48.4492" fill="#000A0E"/>
<path d="M113.293 54.2245C113.512 55.4647 113.482 56.7368 113.204 57.9652C112.924 58.736 112.468 59.4299 111.874 59.991L109.037 59.6711C108.721 58.7224 108.613 57.7161 108.719 56.7212C109.004 55.7832 109.41 54.8871 109.927 54.0557" fill="#000A0E"/>
<path d="M111.997 59.7605C112.202 60.9092 112.175 62.0877 111.917 63.2257C111.654 63.9422 111.228 64.587 110.675 65.1093L108.031 64.8161C107.74 63.9357 107.641 63.0022 107.741 62.0795C108.037 61.0977 108.429 60.1482 108.913 59.2451" fill="#000A0E"/>
<path d="M110.818 64.8689C111.018 66.0183 110.989 67.1966 110.73 68.3342C110.471 69.051 110.048 69.6963 109.496 70.2178L106.994 69.9068C106.631 69.047 106.485 68.1096 106.571 67.1791C106.907 66.154 107.362 65.1728 107.928 64.2559" fill="#000A0E"/>
<path d="M109.845 69.6939C110.036 70.7842 110.008 71.9019 109.765 72.9815C109.516 73.6573 109.115 74.2656 108.593 74.7585L106.223 74.4653C105.88 73.6501 105.74 72.762 105.818 71.8797C106.136 70.903 106.571 69.9691 107.113 69.0986" fill="#000A0E"/>
<path d="M108.993 74.314C109.184 75.4072 109.157 76.5278 108.914 77.6104C108.662 78.2846 108.261 78.8923 107.742 79.3874L105.372 79.0942C105.027 78.2761 104.888 77.385 104.967 76.4997C105.284 75.5273 105.716 74.5966 106.253 73.7275" fill="#000A0E"/>
<path d="M107.907 79.1393C108.102 80.2288 108.079 81.3468 107.837 82.4268C107.583 83.1023 107.179 83.7102 106.656 84.2038L104.286 83.9106C103.942 83.0954 103.803 82.2073 103.88 81.325C104.198 80.3483 104.633 79.4144 105.176 78.5439" fill="#000A0E"/>
<path d="M106.826 83.91C107.002 84.8997 106.978 85.9152 106.755 86.8954C106.531 87.5142 106.166 88.0711 105.689 88.5214L103.539 88.2548C103.227 87.5123 103.102 86.7032 103.178 85.9003C103.465 85.0186 103.856 84.1746 104.341 83.3857" fill="#000A0E"/>
<path d="M105.762 88.3527C105.914 89.2188 105.893 90.1071 105.7 90.9649C105.503 91.5031 105.183 91.9871 104.766 92.3776L102.889 92.1466C102.614 91.5001 102.502 90.795 102.563 90.0942C102.819 89.321 103.165 88.5813 103.594 87.8906" fill="#000A0E"/>
<path d="M105.175 91.5872C105.308 92.3443 105.29 93.1207 105.122 93.8707C104.947 94.3433 104.667 94.7689 104.302 95.1147L102.646 94.9103C102.412 94.3493 102.315 93.7398 102.364 93.1333C102.582 92.4552 102.877 91.8051 103.245 91.1963" fill="#000A0E"/>
<path d="M117.885 34.5356C119.379 34.5356 120.59 33.3143 120.59 31.8078C120.59 30.3013 119.379 29.0801 117.885 29.0801C116.391 29.0801 115.18 30.3013 115.18 31.8078C115.18 33.3143 116.391 34.5356 117.885 34.5356Z" fill="white"/>
<path d="M117.881 29.0706C117.261 29.0754 116.662 29.2998 116.19 29.7045C115.717 30.1093 115.401 30.6686 115.296 31.2847C115.191 31.9008 115.304 32.5345 115.615 33.075C115.927 33.6155 116.417 34.0285 116.999 34.2417C117.379 34.3963 117.787 34.4645 118.195 34.4414C118.603 34.4184 119.001 34.3047 119.361 34.1085C119.013 34.3633 118.61 34.5288 118.184 34.5908C117.759 34.6527 117.325 34.6091 116.92 34.4639C113.977 33.4154 114.77 28.9106 117.916 29.0706H117.881Z" fill="#000A0E"/>
<path d="M166.062 7.0002C163.787 6.98972 161.543 7.52578 159.515 8.56398C157.792 9.42887 156.256 10.628 154.994 12.0926C153.731 13.5572 152.768 15.2586 152.159 17.0992C151.55 18.9398 151.307 20.8835 151.445 22.8189C151.582 24.7543 152.096 26.6434 152.959 28.378L150.774 34.9885C150.685 35.2944 150.68 35.6185 150.758 35.9271C150.837 36.2357 150.996 36.5174 151.219 36.7427C151.443 36.9679 151.722 37.1285 152.028 37.2075C152.334 37.2866 152.656 37.2813 152.959 37.1921L159.515 34.9885C161.544 36.0226 163.788 36.5584 166.062 36.5523C168.783 36.549 171.449 35.7827 173.763 34.3392C176.077 32.8956 177.947 30.8316 179.165 28.378C180.19 26.3313 180.721 24.0693 180.715 21.7763V20.8877C180.521 17.2635 179.006 13.8395 176.46 11.2731C173.915 8.70664 170.519 7.17863 166.925 6.98242L166.062 7.0002Z" fill="#3062CC"/>
<path d="M157.977 18.3105H173.503" stroke="white" stroke-linecap="round" stroke-linejoin="round"/>
<path d="M157.977 23.5801H167.405" stroke="white" stroke-linecap="round" stroke-linejoin="round"/>
<path d="M97.6936 58.2676C97.6936 58.2676 93.3671 67.5704 91.6929 74.3498C90.0187 81.1292 87.4017 99.5837 89.1993 100.001C90.9968 100.419 96.8741 99.2016 102.496 85.3852L108.109 71.5598L97.6936 58.2676Z" fill="#E94335"/>
<path d="M136.618 54.936C136.618 54.936 141.358 54.4473 145.156 61.4755C148.954 68.5037 160.62 89.0196 160.62 89.0196C160.62 89.0196 160.559 91.7473 155.783 93.6132C151.007 95.4791 148.504 92.5381 148.504 92.5381C148.504 92.5381 138.521 72.0133 136.018 69.2412C133.516 66.469 130.59 56.2066 136.618 54.9626" fill="#E94335"/>
<path d="M133.065 106.923C133.065 106.923 138.44 107.625 144.176 115.062C148.943 121.237 150.018 125.493 150.018 125.493H101.555C101.555 125.493 108.084 113.054 115.195 109.962C122.306 106.87 133.065 106.923 133.065 106.923Z" fill="#8E0E0E"/>
<path d="M115.177 69.0984C115.488 68.2531 115.965 67.4795 116.578 66.8238C117.142 66.4418 119.997 63.4474 117.248 63.8295C117.248 63.8295 113.952 65.8731 113.195 66.4951C112.437 67.117 109.062 72.9457 109.15 73.7098" fill="white"/>
<path d="M136.865 54.0205C136.865 54.0205 135.535 55.3 127.234 54.909C118.934 54.5181 113.938 56.9971 113.938 56.9971C113.938 56.9971 117.048 80.3829 119.224 84.6655C120.106 86.5314 136.372 85.2253 138.266 81.3069C139.297 79.1567 137.835 74.1988 137.385 66.984C136.971 60.56 136.865 54.0205 136.865 54.0205Z" fill="#D8D8D8"/>
<path d="M117.734 58.8713C118.695 59.2889 119.497 60.2841 120.519 60.2574C121.282 60.1302 121.973 59.7295 122.466 59.129C124.325 59.9553 126.484 59.5821 128.493 59.8931C128.723 59.9375 128.959 59.9375 129.189 59.8931C129.347 59.8402 129.498 59.7687 129.639 59.6799L131.401 58.5781" stroke="#B6B6B6" stroke-linecap="round" stroke-linejoin="round"/>
<path d="M120.023 64.2119C120.867 64.5292 121.768 64.6624 122.667 64.6029" stroke="#B6B6B6" stroke-linecap="round" stroke-linejoin="round"/>
<path d="M125.891 64.6469C126.216 64.8211 126.595 64.8594 126.948 64.7535L132.728 63.7939" stroke="#B6B6B6" stroke-linecap="round" stroke-linejoin="round"/>
<path d="M122.023 80.3024C123.019 80.72 124.173 81.1198 125.125 80.6045C126.077 80.0891 126.359 79.0229 127.169 78.4365C127.295 78.3392 127.444 78.2778 127.601 78.2588C127.962 78.2588 128.244 78.552 128.482 78.783C128.72 79.014 132.527 78.8808 132.685 78.552" stroke="#B6B6B6" stroke-linecap="round" stroke-linejoin="round"/>
<path d="M126.28 63.3051C125.998 62.4165 124.113 63.3051 124.113 63.3051L120.447 67.099L117.724 68.2452C117.724 68.2452 115.081 69.3825 115.178 69.1337L109.891 72.6878C109.891 72.6878 91.5274 88.3524 90.2145 90.0228C88.9016 91.6932 82.6365 101.574 93.1399 100.578C102.524 99.6899 110.252 81.9195 111.768 78.2055C111.768 78.2055 117.53 78.6409 119.601 77.8234C120.482 77.4769 122.888 74.0295 122.8 73.1765C122.692 72.4697 122.533 71.7718 122.324 71.0885C122.324 71.0885 123.646 70.1378 123.734 69.187C123.795 68.6825 123.795 68.1722 123.734 67.6677C123.734 67.6677 126.562 64.158 126.28 63.3051Z" fill="white"/>
<path d="M90.2181 90.0232C88.5262 92.5022 85.1867 98.0821 88.9404 100.063C92.5708 101.423 96.6329 99.9391 99.3998 97.3979C105.066 92.2356 108.599 85.1186 111.657 78.1615C111.667 78.1409 111.683 78.1237 111.702 78.1116C111.722 78.0995 111.744 78.0931 111.767 78.0931C111.79 78.0931 111.812 78.0995 111.832 78.1116C111.851 78.1237 111.867 78.1409 111.877 78.1615L111.78 78.0993C114.344 78.2148 117.067 78.4725 119.552 77.7528C120.814 76.732 121.824 75.4303 122.504 73.9499C123.032 73.017 122.328 71.9774 122.283 71.0445C122.817 70.6781 123.255 70.1874 123.561 69.614C123.75 68.9929 123.798 68.3371 123.702 67.6948C124.583 66.3886 126.125 64.9226 126.284 63.3232C126.283 63.753 126.158 64.1732 125.923 64.5316C125.297 65.6546 124.578 66.7217 123.773 67.7214C123.958 68.3712 123.921 69.065 123.666 69.6907C123.412 70.3163 122.956 70.8372 122.372 71.1689V71.08C122.565 71.7183 122.718 72.3682 122.83 73.0259C122.863 73.3716 122.789 73.7193 122.618 74.021C122.035 75.2184 121.281 76.3231 120.38 77.2996C119.235 78.5791 117.208 78.3037 115.666 78.4458C114.353 78.4458 113.023 78.4458 111.727 78.3481C111.708 78.3474 111.689 78.3422 111.672 78.333C111.656 78.3237 111.641 78.3106 111.63 78.2948H111.851C108.837 85.3229 105.277 92.4489 99.5143 97.62C96.6858 100.179 92.5179 101.681 88.8259 100.286C84.9223 98.2065 88.4028 92.6088 90.174 90.0943L90.2181 90.0232Z" fill="#000A0E"/>
<path d="M175.682 49.5421C175.479 50.6261 173.091 54.189 173.038 54.6155C172.986 55.042 173.523 55.2552 173.92 55.6284C174.316 56.0016 173.972 57.1389 173.92 57.4055C173.867 57.672 174.404 57.6276 174.862 58.294C174.992 58.4378 175.087 58.6091 175.142 58.7952C175.197 58.9813 175.21 59.1774 175.18 59.3691C175.18 59.3691 177.056 59.7334 176.061 61.8658C175.065 63.9983 171.082 66.1485 170.051 66.113C169.02 66.0774 165.54 65.0467 165.76 61.3594C165.98 57.672 167.214 55.9305 167.76 55.4063C168.455 54.9037 169.243 54.5472 170.078 54.3579C170.589 54.2246 173.021 49.5687 174.087 48.6447C174.395 48.2626 176.034 47.6673 175.682 49.5421Z" fill="white"/>
<path d="M175.704 49.5427C175.14 51.3197 173.871 52.8835 173.157 54.5895C173.157 55.0515 173.721 55.247 173.994 55.5668C174.127 55.8518 174.196 56.1627 174.196 56.4776C174.196 56.7924 174.127 57.1034 173.994 57.3883C174.384 57.5428 174.716 57.8157 174.945 58.1691C175.174 58.5225 175.288 58.939 175.272 59.3608L175.157 59.1565C175.574 59.2397 175.945 59.4775 176.197 59.8228C177.501 62.5506 172.549 65.4916 170.399 66.1047C169.222 66.1701 168.066 65.7718 167.174 64.994C166.583 64.4934 166.133 63.845 165.868 63.1136C165.604 62.3823 165.534 61.5937 165.667 60.8269C165.707 58.8837 166.321 56.9967 167.43 55.4069C168.154 54.7749 169.028 54.3432 169.967 54.1541C171.069 52.8835 171.836 51.3108 172.84 49.9425C173.298 49.3561 173.721 48.5831 174.417 48.3165C175.404 47.9345 175.88 48.592 175.651 49.5427H175.704ZM175.704 49.5427C175.906 48.6542 175.484 47.9789 174.514 48.3698C173.801 48.6364 173.457 49.4272 173.025 50.0136C172.047 51.4352 171.36 53.0612 170.205 54.3673C168.919 54.7938 167.65 55.1315 167.051 56.482C166.099 58.4456 165.421 60.9246 166.011 63.0837C166.742 65.0829 169.483 66.6911 171.439 65.4827C173.148 64.5942 176.937 62.2929 175.986 60.0005C175.767 59.7179 175.454 59.5252 175.105 59.4585C175.083 59.4535 175.063 59.444 175.046 59.4308C175.028 59.4175 175.014 59.4008 175.003 59.3816C174.992 59.3624 174.986 59.3412 174.983 59.3193C174.981 59.2973 174.983 59.2752 174.99 59.2542C174.994 59.0453 174.956 58.8377 174.879 58.6438C174.802 58.45 174.687 58.2738 174.541 58.1258C174.334 57.9226 174.103 57.7465 173.853 57.6015C173.808 57.5696 173.775 57.5234 173.759 57.4702C173.743 57.4171 173.745 57.3601 173.765 57.3083C173.906 56.8196 174.109 56.1088 173.836 55.7001C173.563 55.2914 172.955 55.1315 172.955 54.5628C173.756 52.7858 175.025 51.3642 175.598 49.5427H175.704Z" fill="#000A0E"/>
<path d="M171.179 59.3155C171.179 59.3155 169.743 60.9415 170.175 61.5546C170.606 62.1677 170.959 62.8163 173.021 61.2436C175.083 59.6709 175.153 59.3066 175.153 59.3066" fill="white"/>
<path d="M171.189 59.3252C170.759 59.8912 170.444 60.5375 170.264 61.2266C170.264 61.4843 170.563 61.8308 170.757 61.9908C170.904 62.0611 171.065 62.0976 171.228 62.0976C171.391 62.0976 171.552 62.0611 171.7 61.9908C172.828 61.5554 174.185 60.0538 175.163 59.3252C174.44 60.658 172.995 61.3421 171.77 62.1507C171.601 62.2662 171.406 62.3366 171.202 62.3553C170.999 62.3739 170.794 62.3402 170.607 62.2573C170.421 62.1531 170.263 62.0049 170.146 61.8253C170.03 61.6458 169.958 61.4403 169.938 61.2266C170.112 60.4654 170.557 59.7952 171.189 59.343V59.3252Z" fill="#000A0E"/>
<path d="M172.462 61.6436C172.462 61.6436 171.933 62.3188 172.462 62.7276C172.99 63.1363 174.876 62.2477 175.546 61.839" fill="white"/>
<path d="M172.473 61.6973C172.103 62.6302 172.588 62.8435 173.451 62.6924C174.315 62.5414 174.8 61.9105 175.531 61.8483C175.02 62.4969 174.192 62.5325 173.495 62.8612C173.117 63.0123 172.614 63.1811 172.279 62.8612C172.206 62.7777 172.152 62.6786 172.122 62.5713C172.092 62.4641 172.086 62.3513 172.104 62.2413C172.123 62.1314 172.166 62.027 172.23 61.9359C172.293 61.8449 172.377 61.7694 172.473 61.715V61.6973Z" fill="#000A0E"/>
<path d="M171.793 55.6465C171.074 56.5564 170.423 57.5186 169.845 58.5253C169.528 59.2805 169.555 59.8492 169.845 60.1424C170.136 60.4356 172.251 60.0535 173.89 57.3613" fill="white"/>
<path d="M171.807 55.6553C171.076 56.709 170.419 57.8136 169.842 58.9606C169.217 60.9597 171.393 60.0001 172.133 59.2182C172.758 58.6398 173.347 58.0225 173.896 57.3701C173.584 58.0805 173.114 58.7089 172.523 59.2066C171.932 59.7043 171.234 60.058 170.486 60.24C169.551 60.5421 169.331 59.5825 169.543 58.8806C170.03 57.6422 170.799 56.5372 171.79 55.6553H171.807Z" fill="#000A0E"/>
<path d="M169.719 57.7696C169.719 57.7696 169.78 57.0943 170.001 56.8811C170.221 56.6678 171.217 56.81 171.613 56.73C172.123 56.5768 172.585 56.292 172.953 55.9037C173.157 55.6547 173.264 55.3384 173.252 55.0152C173.094 54.5265 171.948 54.1266 171.437 54.0645C170.962 54.0869 170.49 54.1523 170.027 54.2599" fill="white"/>
<path d="M169.703 57.77C169.703 57.4146 169.703 56.8371 170.135 56.7394C170.857 56.5705 171.527 56.7394 172.179 56.3573C172.492 56.2173 172.769 56.0077 172.99 55.7442C173.166 55.4599 173.369 55.0601 173.051 54.8557C172.479 54.4589 171.799 54.2509 171.104 54.2604L170.029 54.3404C170.527 54.0768 171.096 53.9803 171.652 54.065C172.208 54.1497 172.723 54.4111 173.122 54.8113C173.686 55.4421 172.893 56.3662 172.329 56.6683C171.712 57.1481 170.875 56.9704 170.188 57.0326C169.879 57.0326 169.818 57.5657 169.729 57.8322L169.703 57.77Z" fill="#000A0E"/>
<path d="M170.09 65.42C170.09 65.42 162.16 91.1249 157.393 92.3688C147.568 94.9188 150.599 85.2606 151.48 83.3059C152.361 81.3512 166.716 61.9814 166.716 61.9814" fill="white"/>
<path d="M170.111 65.4285C168.431 71.1653 166.43 76.8016 164.119 82.3104C162.985 85.0839 161.589 87.7409 159.951 90.2448C159.579 90.9141 159.057 91.4862 158.427 91.9152C157.796 92.3442 157.075 92.6181 156.321 92.7149C152.893 93.4168 150.073 92.1107 150.293 88.2012C150.357 85.9379 151.047 83.7376 152.285 81.8483C153.06 80.6577 155.254 77.5212 156.1 76.3217C159.537 71.4527 163.097 66.6724 166.674 61.9277C166.806 61.9277 156.224 76.4461 156.25 76.455L153.607 80.098C152.704 81.2732 151.913 82.5316 151.245 83.8564C150.364 86.3975 149.395 90.2359 151.941 92.0841C153.269 92.7314 154.783 92.8734 156.206 92.4839C156.927 92.4208 157.617 92.1562 158.197 91.7198C160.841 89.1431 162.224 85.5001 163.766 82.186C166.11 76.7393 168.102 70.9373 170.031 65.4196L170.111 65.4285Z" fill="#000A0E"/>
<path d="M115.18 69.0986L114.44 72.4484L109.408 74.0921C109.408 74.0921 108.959 73.7989 109.505 72.6794C110.051 71.5598 112.853 69.4629 112.853 69.4629L115.18 69.0986Z" fill="white"/>
<path d="M134.078 104.479L112.719 106.923V111.366C112.719 111.366 133.408 109.002 134.078 107.154C134.748 105.306 134.078 104.479 134.078 104.479Z" fill="#8E0E0E"/>
<path d="M134.076 104.497C129.133 105.164 123.035 105.892 118.057 106.399C116.374 106.532 114.224 106.879 112.77 106.923V111.366L112.664 111.277C116.277 110.779 121.335 110.131 124.877 109.5C127.838 108.878 131.045 108.709 133.785 107.323C134.068 106.908 134.239 106.427 134.283 105.925C134.326 105.424 134.24 104.92 134.032 104.462L134.076 104.497ZM134.076 104.497C134.262 104.848 134.375 105.232 134.408 105.628C134.441 106.024 134.394 106.422 134.27 106.799C134.233 107.068 134.11 107.318 133.918 107.51C133.014 108.036 132.032 108.414 131.01 108.629C124.982 109.985 118.875 110.952 112.726 111.526H112.673V111.419V106.976C112.673 106.923 112.673 106.923 112.726 106.923C119.599 106.115 127.194 105.146 134.094 104.515L134.076 104.497Z" fill="#000A0E"/>
<path d="M112.721 106.923V111.365C112.721 111.365 104.297 119.362 101.539 125.466" stroke="#000A0E" stroke-width="0.35" stroke-linecap="round" stroke-linejoin="round"/>
<path d="M106.18 134.34V129.945H144.638V134.34H106.18Z" fill="#576370" stroke="white"/>
<path d="M75.2568 56.1794C76.089 56.1794 76.7636 55.4991 76.7636 54.66C76.7636 53.8209 76.089 53.1406 75.2568 53.1406C74.4246 53.1406 73.75 53.8209 73.75 54.66C73.75 55.4991 74.4246 56.1794 75.2568 56.1794Z" fill="#4C5864" stroke="white" stroke-width="0.35" stroke-miterlimit="10"/>
<path d="M81.3974 56.1794C82.2296 56.1794 82.9042 55.4991 82.9042 54.66C82.9042 53.8209 82.2296 53.1406 81.3974 53.1406C80.5652 53.1406 79.8906 53.8209 79.8906 54.66C79.8906 55.4991 80.5652 56.1794 81.3974 56.1794Z" fill="#4C5864" stroke="white" stroke-width="0.35" stroke-miterlimit="10"/>
<path d="M87.538 56.1794C88.3702 56.1794 89.0448 55.4991 89.0448 54.66C89.0448 53.8209 88.3702 53.1406 87.538 53.1406C86.7059 53.1406 86.0312 53.8209 86.0312 54.66C86.0312 55.4991 86.7059 56.1794 87.538 56.1794Z" fill="#4C5864" stroke="white" stroke-width="0.35" stroke-miterlimit="10"/>
<path opacity="0.6" fill-rule="evenodd" clip-rule="evenodd" d="M79.8895 104.284C81.6976 104.287 83.431 105.012 84.7095 106.301C85.988 107.59 86.7073 109.338 86.7096 111.161C86.7073 112.984 85.9877 114.731 84.709 116.018C83.4302 117.306 81.6968 118.03 79.8895 118.03C78.083 118.03 76.3505 117.306 75.0731 116.018C73.7957 114.73 73.0781 112.983 73.0781 111.161C73.0781 109.339 73.7954 107.591 75.0726 106.302C76.3497 105.012 78.0822 104.287 79.8895 104.284Z" fill="#000A0E"/>
<path d="M79.912 108.3C79.7157 108.3 79.5275 108.378 79.3887 108.518C79.2499 108.658 79.1719 108.848 79.1719 109.046V111.036C79.1719 111.234 79.2499 111.424 79.3887 111.564C79.5275 111.704 79.7157 111.783 79.912 111.783C80.1083 111.783 80.2966 111.704 80.4354 111.564C80.5742 111.424 80.6523 111.234 80.6523 111.036V109.046C80.6534 108.948 80.635 108.85 80.5983 108.759C80.5615 108.668 80.5071 108.585 80.4381 108.516C80.3691 108.446 80.2871 108.391 80.1967 108.354C80.1064 108.317 80.0095 108.299 79.912 108.3Z" fill="white"/>
<path d="M81.3245 110.565H81.6417V111.063C81.5608 111.465 81.3446 111.826 81.0299 112.085C80.7151 112.345 80.3211 112.486 79.9145 112.486C79.508 112.486 79.1141 112.345 78.7993 112.085C78.4846 111.826 78.2684 111.465 78.1875 111.063V110.565H78.4871" stroke="white" stroke-width="0.35" stroke-linecap="round" stroke-linejoin="round"/>
<path d="M79.9141 112.778V113.773" stroke="white" stroke-width="0.35" stroke-linecap="round" stroke-linejoin="round"/>
<path d="M78.9297 113.773H80.9035" stroke="white" stroke-width="0.35" stroke-linecap="round" stroke-linejoin="round"/>
<path opacity="0.6" fill-rule="evenodd" clip-rule="evenodd" d="M98.6863 104.284C100.494 104.287 102.228 105.012 103.506 106.301C104.785 107.59 105.504 109.338 105.507 111.161C105.504 112.984 104.785 114.731 103.506 116.018C102.227 117.306 100.494 118.03 98.6863 118.03C96.8799 118.03 95.1474 117.306 93.87 116.018C92.5926 114.73 91.875 112.983 91.875 111.161C91.875 109.339 92.5923 107.591 93.8694 106.302C95.1466 105.012 96.879 104.287 98.6863 104.284Z" fill="#000A0E"/>
<path d="M100.68 111.881L101.543 112.485V109.953L100.68 110.557V111.881Z" fill="white" stroke="white" stroke-width="0.35" stroke-linecap="round" stroke-linejoin="round"/>
<path d="M99.1663 109.225H96.4083C96.3057 109.225 96.2041 109.245 96.1095 109.285C96.0148 109.325 95.9289 109.383 95.8568 109.457C95.7847 109.53 95.7278 109.618 95.6893 109.713C95.6509 109.809 95.6317 109.912 95.6329 110.015V112.423C95.6317 112.527 95.6509 112.629 95.6893 112.725C95.7278 112.821 95.7847 112.908 95.8568 112.982C95.9289 113.055 96.0148 113.114 96.1095 113.154C96.2041 113.194 96.3057 113.214 96.4083 113.214H99.1663C99.2689 113.214 99.3704 113.194 99.465 113.154C99.5597 113.114 99.6456 113.055 99.7177 112.982C99.7898 112.908 99.8468 112.821 99.8853 112.725C99.9237 112.629 99.9429 112.527 99.9418 112.423V110.015C99.9429 109.912 99.9237 109.809 99.8853 109.713C99.8468 109.618 99.7898 109.53 99.7177 109.457C99.6456 109.383 99.5597 109.325 99.465 109.285C99.3704 109.245 99.2689 109.225 99.1663 109.225Z" fill="white"/>
<path fill-rule="evenodd" clip-rule="evenodd" d="M117.441 104.346C119.241 104.346 120.966 105.067 122.239 106.35C123.511 107.633 124.226 109.373 124.226 111.187C124.226 112.085 124.051 112.975 123.71 113.804C123.368 114.634 122.869 115.387 122.238 116.022C121.608 116.656 120.86 117.16 120.037 117.502C119.214 117.845 118.332 118.021 117.441 118.02C116.551 118.021 115.669 117.845 114.845 117.502C114.022 117.16 113.274 116.656 112.644 116.022C112.014 115.387 111.514 114.634 111.173 113.804C110.832 112.975 110.656 112.085 110.656 111.187C110.656 109.373 111.371 107.633 112.644 106.35C113.916 105.067 115.642 104.346 117.441 104.346Z" fill="#C21710"/>
<path d="M114.319 112.743L113.693 111.854C113.632 111.797 113.584 111.729 113.55 111.652C113.517 111.576 113.5 111.493 113.5 111.41C113.5 111.326 113.517 111.244 113.55 111.167C113.584 111.091 113.632 111.022 113.693 110.965C114.405 110.382 115.245 109.977 116.143 109.784C116.97 109.606 117.826 109.606 118.654 109.784C119.553 109.98 120.395 110.385 121.112 110.965C121.178 111.017 121.232 111.082 121.272 111.155C121.311 111.229 121.335 111.311 121.342 111.394C121.348 111.478 121.338 111.562 121.31 111.641C121.283 111.72 121.24 111.793 121.183 111.854L120.557 112.743C120.355 112.956 118.698 112.352 118.698 112.121V110.983C117.875 110.761 117.009 110.761 116.187 110.983V112.121C116.196 112.343 114.53 112.956 114.319 112.743Z" fill="white"/>
<path d="M117.885 35.8058C118.581 35.8058 119.145 35.237 119.145 34.5352C119.145 33.8335 118.581 33.2646 117.885 33.2646C117.189 33.2646 116.625 33.8335 116.625 34.5352C116.625 35.237 117.189 35.8058 117.885 35.8058Z" fill="#ED3B33"/>
<path d="M117.884 35.5213C118.425 35.5213 118.862 35.0798 118.862 34.5351C118.862 33.9904 118.425 33.5488 117.884 33.5488C117.344 33.5488 116.906 33.9904 116.906 34.5351C116.906 35.0798 117.344 35.5213 117.884 35.5213Z" fill="#C5312A"/>
<path d="M127.52 29.4617C127.562 29.395 127.589 29.3202 127.601 29.2422C127.612 29.1642 127.607 29.0846 127.586 29.0086C127.566 28.9325 127.53 28.8617 127.48 28.8005C127.431 28.7393 127.369 28.6891 127.3 28.6532C125.865 28.2064 124.389 27.9086 122.894 27.7646C122.647 27.889 122.577 28.3777 123.37 28.6087C124.733 28.9851 126.12 29.27 127.52 29.4617Z" fill="#000A0E"/>
<path d="M129.648 29.5864C129.648 29.5864 129.19 28.9022 130.935 28.8845C132.679 28.8667 133.19 28.8845 133.296 28.9467C133.354 29.0171 133.39 29.1033 133.399 29.1944C133.409 29.2854 133.391 29.3773 133.349 29.4582C133.306 29.5391 133.241 29.6055 133.161 29.6489C133.081 29.6923 132.99 29.7107 132.9 29.7019C131.814 29.7324 130.728 29.6939 129.648 29.5864Z" fill="#000A0E"/>
<path d="M131.983 35.1043C133.535 35.1043 134.794 33.8353 134.794 32.2699C134.794 30.7045 133.535 29.4355 131.983 29.4355C130.43 29.4355 129.172 30.7045 129.172 32.2699C129.172 33.8353 130.43 35.1043 131.983 35.1043Z" stroke="#ED3B33" stroke-width="0.35" stroke-miterlimit="10"/>
<path d="M124.795 34.4822C126.348 34.4822 127.606 33.2132 127.606 31.6479C127.606 30.0825 126.348 28.8135 124.795 28.8135C123.243 28.8135 121.984 30.0825 121.984 31.6479C121.984 33.2132 123.243 34.4822 124.795 34.4822Z" stroke="#ED3B33" stroke-width="0.35" stroke-miterlimit="10"/>
<path d="M122.016 30.466L119.258 29.4531" stroke="#ED3B33" stroke-width="0.75" stroke-linecap="round" stroke-linejoin="round"/>
<path d="M129.086 31.8521C128.877 31.701 128.63 31.6138 128.374 31.6012C128.117 31.5886 127.863 31.651 127.641 31.781" stroke="#ED3B33" stroke-width="0.75" stroke-linecap="round" stroke-linejoin="round"/>
</g>
<defs>
<clipPath id="clip0_3243_40734">
<rect width="152" height="128" fill="white" transform="translate(33 7)"/>
</clipPath>
</defs>
</svg>
