<svg width="48" height="48" viewBox="0 0 48 48" fill="none" xmlns="http://www.w3.org/2000/svg">
<rect width="48" height="48" rx="24" fill="#E94335"/>
<path d="M14.0825 25.0825L16.0339 27.0339C16.2363 27.2363 16.5448 27.2881 16.8022 27.163L20.0642 25.5769C20.2666 25.4785 20.4062 25.2853 20.4361 25.0623L20.6589 23.3991C20.6899 23.1683 20.8383 22.97 21.051 22.8751C22.1597 22.3809 23.1656 22.2006 24.0687 22.3343C24.9375 22.4629 25.9095 22.6649 26.9847 22.9403C27.2686 23.0129 27.4725 23.2613 27.4885 23.5538L27.5751 25.1327C27.5879 25.3647 27.7197 25.5736 27.9235 25.685L31.3744 27.5708C31.6359 27.7137 31.9604 27.6671 32.1711 27.4563L34.6711 24.9558C35.1954 24.4315 35.1953 23.5813 34.6709 23.057C34.6579 23.044 34.6446 23.0313 34.6311 23.0188C31.9659 20.5647 28.3006 19.3046 23.635 19.2387C18.8714 19.1714 15.6209 20.5709 13.8837 23.4371C13.5631 23.9659 13.6452 24.6452 14.0825 25.0825Z" fill="white"/>
</svg>
