<svg width="48" height="48" viewBox="0 0 48 48" fill="none" xmlns="http://www.w3.org/2000/svg">
<rect width="48" height="48" rx="24" fill="#252525"/>
<path fill-rule="evenodd" clip-rule="evenodd" d="M24.0853 14C22.6445 14 21.4766 15.168 21.4766 16.6087V23.5652C21.4766 25.006 22.6445 26.1739 24.0853 26.1739C25.526 26.1739 26.694 25.006 26.694 23.5652V16.6087C26.694 15.168 25.526 14 24.0853 14Z" stroke="white" stroke-width="1.5" stroke-linecap="round" stroke-linejoin="round"/>
<path d="M29.0488 21.8261H30.1739V23.5652C30.1739 26.927 27.4487 29.6522 24.087 29.6522C20.7252 29.6522 18 26.927 18 23.5652V21.8261H19.055" stroke="white" stroke-width="1.5" stroke-linecap="round" stroke-linejoin="round"/>
<path d="M24.0832 29.6522V33.1304" stroke="white" stroke-width="1.5" stroke-linecap="round" stroke-linejoin="round"/>
<path d="M20.6094 33.1305H27.5659" stroke="white" stroke-width="1.5" stroke-linecap="round" stroke-linejoin="round"/>
<path d="M16 29.8372C18.8335 27.8506 30.7852 17 30.7852 17" stroke="white" stroke-width="1.5" stroke-linecap="round" stroke-linejoin="round"/>
<path d="M16 27.8372C18.8335 25.8506 30.7852 15 30.7852 15" stroke="#262627" stroke-width="1.5" stroke-linecap="round" stroke-linejoin="round"/>
</svg>
