<svg width="48" height="48" viewBox="0 0 48 48" fill="none" xmlns="http://www.w3.org/2000/svg">
<rect width="48" height="48" rx="24" fill="#252525"/>
<path fill-rule="evenodd" clip-rule="evenodd" d="M24.0867 14C22.646 14 21.478 15.168 21.478 16.6087V23.5652C21.478 25.006 22.646 26.1739 24.0867 26.1739C25.5275 26.1739 26.6954 25.006 26.6954 23.5652V16.6087C26.6954 15.168 25.5275 14 24.0867 14Z" stroke="white" stroke-width="1.3" stroke-linecap="round" stroke-linejoin="round"/>
<path d="M29.0488 21.8262H30.1739V23.5653C30.1739 26.927 27.4487 29.6523 24.087 29.6523C20.7252 29.6523 18 26.927 18 23.5653V21.8262H19.055" stroke="white" stroke-width="1.3" stroke-linecap="round" stroke-linejoin="round"/>
<path d="M24.0871 29.6523V33.1306" stroke="white" stroke-width="1.3" stroke-linecap="round" stroke-linejoin="round"/>
<path d="M20.6089 33.1301H27.5654" stroke="white" stroke-width="1.3" stroke-linecap="round" stroke-linejoin="round"/>
<path d="M16 29.8372C18.8335 27.8506 30.7852 17 30.7852 17" stroke="white" stroke-width="1.3" stroke-linecap="round" stroke-linejoin="round"/>
<path d="M16 27.8372C18.8335 25.8506 30.7852 15 30.7852 15" stroke="#262627" stroke-width="1.3" stroke-linecap="round" stroke-linejoin="round"/>
<path d="M26.6954 18.5V16.6087C26.6954 15.168 25.5275 14 24.0867 14C22.646 14 21.478 15.168 21.478 16.6087V22.5M26.6954 23V23.5652C26.6954 25.006 25.5275 26.1739 24.0867 26.1739C23.8128 26.1739 23.5487 26.1317 23.3006 26.0534" stroke="white" stroke-width="1.3" stroke-linecap="round" stroke-linejoin="round"/>
<path d="M29.0488 21.8262H30.1739V23.5653C30.1739 26.927 27.4487 29.6523 24.087 29.6523C22.7558 29.6523 21.5244 29.2249 20.5225 28.5M19.055 21.8262H18V23.5653C18 24.2416 18.1103 24.8922 18.3139 25.5" stroke="white" stroke-width="1.3" stroke-linecap="round" stroke-linejoin="round"/>
<path d="M24.0871 29.6523V33.1306" stroke="white" stroke-width="1.3" stroke-linecap="round" stroke-linejoin="round"/>
<path d="M20.6089 33.1301H27.5654" stroke="white" stroke-width="1.3" stroke-linecap="round" stroke-linejoin="round"/>
<path d="M16 29.8372C18.8335 27.8506 30.7852 17 30.7852 17" stroke="#E94335" stroke-width="1.3" stroke-linecap="round" stroke-linejoin="round"/>
</svg>
