<svg width="32" height="32" viewBox="0 0 32 32" fill="none" xmlns="http://www.w3.org/2000/svg">
<circle opacity="0.1" cx="16" cy="16" r="16" fill="#277FD9"/>
<g opacity="0.9">
<path d="M14.3359 9.54337L14.5229 10.2697L15.0859 10.1248V9.54337H14.3359ZM12.616 10.2564L12.0857 10.7867L12.4969 11.1979L12.9975 10.9021L12.616 10.2564ZM11.8778 9.5182L12.4081 8.98787V8.98787L11.8778 9.5182ZM9.52079 11.8752L10.0511 11.3449L9.52079 11.8752ZM10.259 12.6134L10.9047 12.9949L11.2005 12.4943L10.7893 12.0831L10.259 12.6134ZM9.54597 14.3333V15.0833H10.1274L10.2723 14.5203L9.54597 14.3333ZM9.54597 17.6667L10.2723 17.4797L10.1274 16.9167H9.54597V17.6667ZM10.259 19.3866L10.7893 19.917L11.2005 19.5057L10.9047 19.0051L10.259 19.3866ZM9.52079 20.1248L8.99046 19.5945L9.52079 20.1248ZM9.52079 22.4818L10.0511 21.9515L10.0511 21.9515L9.52079 22.4818ZM11.8778 22.4818L12.4081 23.0122H12.4081L11.8778 22.4818ZM12.616 21.7436L12.9975 21.0979L12.4969 20.8021L12.0857 21.2133L12.616 21.7436ZM14.3359 22.4566H15.0859V21.8752L14.5229 21.7303L14.3359 22.4566ZM17.6693 22.4566L17.4823 21.7303L16.9193 21.8752V22.4566H17.6693ZM19.3892 21.7436L19.9195 21.2133L19.5083 20.8021L19.0077 21.0979L19.3892 21.7436ZM22.4844 20.1248L23.0147 19.5945L22.4844 20.1248ZM21.7462 19.3866L21.1005 19.0051L20.8047 19.5057L21.2159 19.917L21.7462 19.3866ZM22.4592 17.6667V16.9167H21.8778L21.7329 17.4797L22.4592 17.6667ZM22.4592 14.3333L21.7329 14.5203L21.8778 15.0833H22.4592V14.3333ZM21.7462 12.6134L21.2159 12.0831L20.8047 12.4943L21.1005 12.9949L21.7462 12.6134ZM22.4844 11.8752L23.0147 12.4056L22.4844 11.8752ZM22.4844 9.5182L23.0147 8.98787V8.98787L22.4844 9.5182ZM19.3892 10.2564L19.0077 10.9021L19.5083 11.1979L19.9195 10.7867L19.3892 10.2564ZM17.6693 9.54337H16.9193V10.1248L17.4823 10.2697L17.6693 9.54337ZM15.0859 8.50001C15.0859 7.99375 15.4963 7.58334 16.0026 7.58334V6.08334C14.6679 6.08334 13.5859 7.16532 13.5859 8.50001H15.0859ZM15.0859 9.54337V8.50001H13.5859V9.54337H15.0859ZM12.9975 10.9021C13.4683 10.6239 13.9806 10.4093 14.5229 10.2697L14.149 8.81704C13.4678 8.99236 12.8247 9.26188 12.2344 9.61068L12.9975 10.9021ZM11.3475 10.0485L12.0857 10.7867L13.1463 9.72605L12.4081 8.98787L11.3475 10.0485ZM10.0511 10.0485C10.4091 9.69055 10.9895 9.69055 11.3475 10.0485L12.4081 8.98787C11.4644 8.0441 9.93423 8.0441 8.99046 8.98787L10.0511 10.0485ZM10.0511 11.3449C9.69314 10.9869 9.69314 10.4065 10.0511 10.0485L8.99046 8.98787C8.04669 9.93164 8.0467 11.4618 8.99046 12.4056L10.0511 11.3449ZM10.7893 12.0831L10.0511 11.3449L8.99046 12.4056L9.72864 13.1437L10.7893 12.0831ZM10.2723 14.5203C10.4119 13.978 10.6265 13.4657 10.9047 12.9949L9.61327 12.2319C9.26448 12.8221 8.99495 13.4653 8.81964 14.1464L10.2723 14.5203ZM8.5026 15.0833H9.54597V13.5833H8.5026V15.0833ZM7.58594 16C7.58594 15.4937 7.99634 15.0833 8.5026 15.0833V13.5833C7.16792 13.5833 6.08594 14.6653 6.08594 16H7.58594ZM8.50261 16.9167C7.99634 16.9167 7.58594 16.5063 7.58594 16H6.08594C6.08594 17.3347 7.16792 18.4167 8.50261 18.4167V16.9167ZM9.54597 16.9167H8.50261V18.4167H9.54597V16.9167ZM10.9047 19.0051C10.6265 18.5343 10.4119 18.022 10.2723 17.4797L8.81964 17.8536C8.99495 18.5348 9.26448 19.1779 9.61327 19.7682L10.9047 19.0051ZM10.0511 20.6551L10.7893 19.917L9.72864 18.8563L8.99046 19.5945L10.0511 20.6551ZM10.0511 21.9515C9.69314 21.5935 9.69314 21.0131 10.0511 20.6551L8.99046 19.5945C8.0467 20.5382 8.04669 22.0684 8.99046 23.0122L10.0511 21.9515ZM11.3475 21.9515C10.9895 22.3095 10.4091 22.3095 10.0511 21.9515L8.99046 23.0122C9.93423 23.9559 11.4644 23.9559 12.4081 23.0122L11.3475 21.9515ZM12.0857 21.2133L11.3475 21.9515L12.4081 23.0122L13.1463 22.274L12.0857 21.2133ZM14.5229 21.7303C13.9806 21.5908 13.4683 21.3761 12.9975 21.0979L12.2344 22.3893C12.8247 22.7381 13.4678 23.0077 14.149 23.183L14.5229 21.7303ZM15.0859 23.5V22.4566H13.5859V23.5H15.0859ZM16.0026 24.4167C15.4963 24.4167 15.0859 24.0063 15.0859 23.5H13.5859C13.5859 24.8347 14.6679 25.9167 16.0026 25.9167V24.4167ZM16.9193 23.5C16.9193 24.0063 16.5089 24.4167 16.0026 24.4167V25.9167C17.3373 25.9167 18.4193 24.8347 18.4193 23.5H16.9193ZM16.9193 22.4566V23.5H18.4193V22.4566H16.9193ZM19.0077 21.0979C18.5369 21.3761 18.0246 21.5908 17.4823 21.7303L17.8562 23.183C18.5374 23.0077 19.1805 22.7381 19.7708 22.3893L19.0077 21.0979ZM20.6577 21.9515L19.9195 21.2133L18.8589 22.274L19.5971 23.0122L20.6577 21.9515ZM21.9541 21.9515C21.5961 22.3095 21.0157 22.3095 20.6577 21.9515L19.5971 23.0122C20.5408 23.9559 22.071 23.9559 23.0147 23.0122L21.9541 21.9515ZM21.9541 20.6551C22.3121 21.0131 22.3121 21.5935 21.9541 21.9515L23.0147 23.0122C23.9585 22.0684 23.9585 20.5382 23.0147 19.5945L21.9541 20.6551ZM21.2159 19.917L21.9541 20.6551L23.0147 19.5945L22.2766 18.8563L21.2159 19.917ZM21.7329 17.4797C21.5933 18.022 21.3787 18.5343 21.1005 19.0051L22.3919 19.7682C22.7407 19.1779 23.0103 18.5348 23.1856 17.8536L21.7329 17.4797ZM23.5026 16.9167H22.4592V18.4167H23.5026V16.9167ZM24.4193 16C24.4193 16.5063 24.0089 16.9167 23.5026 16.9167V18.4167C24.8373 18.4167 25.9193 17.3347 25.9193 16H24.4193ZM23.5026 15.0833C24.0089 15.0833 24.4193 15.4937 24.4193 16H25.9193C25.9193 14.6653 24.8373 13.5833 23.5026 13.5833V15.0833ZM22.4592 15.0833H23.5026V13.5833H22.4592V15.0833ZM21.1005 12.9949C21.3787 13.4657 21.5933 13.978 21.7329 14.5203L23.1856 14.1464C23.0103 13.4653 22.7407 12.8221 22.3919 12.2319L21.1005 12.9949ZM21.9541 11.3449L21.2159 12.0831L22.2766 13.1437L23.0147 12.4056L21.9541 11.3449ZM21.9541 10.0485C22.3121 10.4065 22.3121 10.9869 21.9541 11.3449L23.0147 12.4056C23.9585 11.4618 23.9585 9.93164 23.0147 8.98787L21.9541 10.0485ZM20.6577 10.0485C21.0157 9.69055 21.5961 9.69055 21.9541 10.0485L23.0147 8.98787C22.071 8.0441 20.5408 8.0441 19.5971 8.98787L20.6577 10.0485ZM19.9195 10.7867L20.6577 10.0485L19.5971 8.98787L18.8589 9.72605L19.9195 10.7867ZM17.4823 10.2697C18.0246 10.4093 18.5369 10.6239 19.0077 10.9021L19.7708 9.61068C19.1805 9.26188 18.5374 8.99236 17.8562 8.81704L17.4823 10.2697ZM16.9193 8.50001V9.54337H18.4193V8.50001H16.9193ZM16.0026 7.58334C16.5089 7.58334 16.9193 7.99375 16.9193 8.50001H18.4193C18.4193 7.16532 17.3373 6.08334 16.0026 6.08334V7.58334ZM18.5859 16C18.5859 17.4267 17.4293 18.5833 16.0026 18.5833V20.0833C18.2578 20.0833 20.0859 18.2552 20.0859 16H18.5859ZM16.0026 13.4167C17.4293 13.4167 18.5859 14.5733 18.5859 16H20.0859C20.0859 13.7448 18.2578 11.9167 16.0026 11.9167V13.4167ZM13.4193 16C13.4193 14.5733 14.5759 13.4167 16.0026 13.4167V11.9167C13.7474 11.9167 11.9193 13.7448 11.9193 16H13.4193ZM16.0026 18.5833C14.5759 18.5833 13.4193 17.4267 13.4193 16H11.9193C11.9193 18.2552 13.7474 20.0833 16.0026 20.0833V18.5833Z" fill="#277FD9"/>
</g>
</svg>
