<svg width="48" height="48" viewBox="0 0 48 48" fill="none" xmlns="http://www.w3.org/2000/svg">
<rect width="48" height="48" rx="24" fill="#252525"/>
<path d="M31.0444 26.5251L34.0908 28.6371V19.7734L31.0511 21.8808" stroke="white" stroke-width="1.3" stroke-linecap="round" stroke-linejoin="round"/>
<path fill-rule="evenodd" clip-rule="evenodd" d="M14 20C14 18.8954 14.8954 18 16 18H25.6983C26.8029 18 27.6983 18.8954 27.6983 20V23.0989V24.1909V25.3623V28.4091C27.6983 29.5137 26.8029 30.4091 25.6983 30.4091H16C14.8954 30.4091 14 29.5137 14 28.4091V20Z" stroke="white" stroke-width="1.3" stroke-linecap="round" stroke-linejoin="round"/>
<path d="M16.9346 33L28.2093 16.4297" stroke="white" stroke-width="1.3" stroke-linecap="round" stroke-linejoin="round"/>
<path d="M15.6953 32.3738L26.4762 16.3223" stroke="#252525" stroke-width="1.3" stroke-linecap="round" stroke-linejoin="round"/>
<path d="M31.0444 26.5251L34.0908 28.6371V19.7734L31.0511 21.8808" stroke="white" stroke-width="1.3" stroke-linecap="round" stroke-linejoin="round"/>
<path d="M27.6983 21V23.0989V24.1909V25.3623V28.4091C27.6983 29.5137 26.8029 30.4091 25.6983 30.4091H21.5M16.5 30.4091H16C14.8954 30.4091 14 29.5137 14 28.4091V20C14 18.8954 14.8954 18 16 18H24.5" stroke="white" stroke-width="1.3" stroke-linecap="round" stroke-linejoin="round"/>
<path d="M16.9346 33L28.2093 16.4297" stroke="#E94335" stroke-width="1.3" stroke-linecap="round" stroke-linejoin="round"/>
</svg>
